ISO-10303-21;
HEADER;
FILE_DESCRIPTION(('STEP AP214'),'1');
FILE_NAME('result.step','2024-12-11T06:10:08',(' '),(' '),'Spatial InterOp 3D',' ',' ');
FILE_SCHEMA(('automotive_design'));
ENDSEC;
DATA;
#1=MECHANICAL_DESIGN_GEOMETRIC_PRESENTATION_REPRESENTATION(' ',(#10,#11,#12,#13,#14,#15,#16,#17,#18,#19,#20,#21,#22,#23,#24,#25),#6);
#2=PRODUCT_DEFINITION_CONTEXT('',#26,'design');
#3=APPLICATION_PROTOCOL_DEFINITION('INTERNATIONAL STANDARD','automotive_design',1994,#26);
#4=PRODUCT_CATEGORY_RELATIONSHIP('NONE','NONE',#27,#28);
#5=SHAPE_DEFINITION_REPRESENTATION(#29,#30);
#6= (GEOMETRIC_REPRESENTATION_CONTEXT(3)GLOBAL_UNCERTAINTY_ASSIGNED_CONTEXT((#33))GLOBAL_UNIT_ASSIGNED_CONTEXT((#35,#36,#37))REPRESENTATION_CONTEXT('NONE','WORKSPACE'));
#10=STYLED_ITEM('',(#39),#40);
#11=STYLED_ITEM('',(#41),#42);
#12=STYLED_ITEM('',(#43),#44);
#13=STYLED_ITEM('',(#45),#46);
#14=STYLED_ITEM('',(#47),#48);
#15=STYLED_ITEM('',(#49),#50);
#16=STYLED_ITEM('',(#51),#52);
#17=STYLED_ITEM('',(#53),#54);
#18=STYLED_ITEM('',(#55),#56);
#19=STYLED_ITEM('',(#57),#58);
#20=STYLED_ITEM('',(#59),#60);
#21=STYLED_ITEM('',(#61),#62);
#22=STYLED_ITEM('',(#63),#64);
#23=STYLED_ITEM('',(#65),#66);
#24=STYLED_ITEM('',(#67),#68);
#25=STYLED_ITEM('',(#69),#70);
#26=APPLICATION_CONTEXT(' ');
#27=PRODUCT_CATEGORY('part','NONE');
#28=PRODUCT_RELATED_PRODUCT_CATEGORY('detail',' ',(#71));
#29=PRODUCT_DEFINITION_SHAPE('NONE','NONE',#72);
#30=ADVANCED_BREP_SHAPE_REPRESENTATION('001',(#73,#74),#6);
#33=UNCERTAINTY_MEASURE_WITH_UNIT(LENGTH_MEASURE(1.0E-06),#35,'','');
#35= (CONVERSION_BASED_UNIT('MILLIMETRE',#77)LENGTH_UNIT()NAMED_UNIT(#80));
#36= (NAMED_UNIT(#82)PLANE_ANGLE_UNIT()SI_UNIT($,.RADIAN.));
#37= (NAMED_UNIT(#82)SOLID_ANGLE_UNIT()SI_UNIT($,.STERADIAN.));
#39=PRESENTATION_STYLE_ASSIGNMENT((#88));
#40=ADVANCED_FACE('',(#89),#90,.F.);
#41=PRESENTATION_STYLE_ASSIGNMENT((#91));
#42=ADVANCED_FACE('',(#92),#93,.F.);
#43=PRESENTATION_STYLE_ASSIGNMENT((#94));
#44=ADVANCED_FACE('',(#95),#96,.F.);
#45=PRESENTATION_STYLE_ASSIGNMENT((#97));
#46=ADVANCED_FACE('',(#98),#99,.F.);
#47=PRESENTATION_STYLE_ASSIGNMENT((#100));
#48=ADVANCED_FACE('',(#101),#102,.F.);
#49=PRESENTATION_STYLE_ASSIGNMENT((#103));
#50=ADVANCED_FACE('',(#104),#105,.F.);
#51=PRESENTATION_STYLE_ASSIGNMENT((#106));
#52=ADVANCED_FACE('',(#107),#108,.F.);
#53=PRESENTATION_STYLE_ASSIGNMENT((#109));
#54=ADVANCED_FACE('',(#110),#111,.T.);
#55=PRESENTATION_STYLE_ASSIGNMENT((#112));
#56=ADVANCED_FACE('',(#113),#114,.F.);
#57=PRESENTATION_STYLE_ASSIGNMENT((#115));
#58=ADVANCED_FACE('',(#116),#117,.T.);
#59=PRESENTATION_STYLE_ASSIGNMENT((#118));
#60=ADVANCED_FACE('',(#119),#120,.T.);
#61=PRESENTATION_STYLE_ASSIGNMENT((#121));
#62=ADVANCED_FACE('',(#122),#123,.F.);
#63=PRESENTATION_STYLE_ASSIGNMENT((#124));
#64=ADVANCED_FACE('',(#125,#126,#127),#128,.F.);
#65=PRESENTATION_STYLE_ASSIGNMENT((#129));
#66=ADVANCED_FACE('',(#130,#131,#132),#133,.T.);
#67=PRESENTATION_STYLE_ASSIGNMENT((#134));
#68=ADVANCED_FACE('',(#135),#136,.F.);
#69=PRESENTATION_STYLE_ASSIGNMENT((#137));
#70=ADVANCED_FACE('',(#138),#139,.F.);
#71=PRODUCT('001','001','PART-001-DESC',(#140));
#72=PRODUCT_DEFINITION('NONE','NONE',#141,#2);
#73=MANIFOLD_SOLID_BREP('001',#142);
#74=AXIS2_PLACEMENT_3D('',#143,#144,#145);
#77=LENGTH_MEASURE_WITH_UNIT(LENGTH_MEASURE(1.0),#146);
#80=DIMENSIONAL_EXPONENTS(1.0,0.0,0.0,0.0,0.0,0.0,0.0);
#82=DIMENSIONAL_EXPONENTS(0.0,0.0,0.0,0.0,0.0,0.0,0.0);
#88=SURFACE_STYLE_USAGE(.BOTH.,#147);
#89=FACE_OUTER_BOUND('',#148,.T.);
#90=CYLINDRICAL_SURFACE('',#149,1.25);
#91=SURFACE_STYLE_USAGE(.BOTH.,#150);
#92=FACE_OUTER_BOUND('',#151,.T.);
#93=CYLINDRICAL_SURFACE('',#152,1.25);
#94=SURFACE_STYLE_USAGE(.BOTH.,#153);
#95=FACE_OUTER_BOUND('',#154,.T.);
#96=PLANE('',#155);
#97=SURFACE_STYLE_USAGE(.BOTH.,#156);
#98=FACE_OUTER_BOUND('',#157,.T.);
#99=PLANE('',#158);
#100=SURFACE_STYLE_USAGE(.BOTH.,#159);
#101=FACE_OUTER_BOUND('',#160,.T.);
#102=PLANE('',#161);
#103=SURFACE_STYLE_USAGE(.BOTH.,#162);
#104=FACE_OUTER_BOUND('',#163,.T.);
#105=PLANE('',#164);
#106=SURFACE_STYLE_USAGE(.BOTH.,#165);
#107=FACE_OUTER_BOUND('',#166,.T.);
#108=PLANE('',#167);
#109=SURFACE_STYLE_USAGE(.BOTH.,#168);
#110=FACE_OUTER_BOUND('',#169,.T.);
#111=PLANE('',#170);
#112=SURFACE_STYLE_USAGE(.BOTH.,#171);
#113=FACE_OUTER_BOUND('',#172,.T.);
#114=PLANE('',#173);
#115=SURFACE_STYLE_USAGE(.BOTH.,#174);
#116=FACE_OUTER_BOUND('',#175,.T.);
#117=CYLINDRICAL_SURFACE('',#176,1.0);
#118=SURFACE_STYLE_USAGE(.BOTH.,#177);
#119=FACE_OUTER_BOUND('',#178,.T.);
#120=CYLINDRICAL_SURFACE('',#179,1.0);
#121=SURFACE_STYLE_USAGE(.BOTH.,#180);
#122=FACE_OUTER_BOUND('',#181,.T.);
#123=PLANE('',#182);
#124=SURFACE_STYLE_USAGE(.BOTH.,#183);
#125=FACE_BOUND('',#184,.T.);
#126=FACE_BOUND('',#185,.T.);
#127=FACE_OUTER_BOUND('',#186,.T.);
#128=PLANE('',#187);
#129=SURFACE_STYLE_USAGE(.BOTH.,#188);
#130=FACE_BOUND('',#189,.T.);
#131=FACE_BOUND('',#190,.T.);
#132=FACE_OUTER_BOUND('',#191,.T.);
#133=PLANE('',#192);
#134=SURFACE_STYLE_USAGE(.BOTH.,#193);
#135=FACE_OUTER_BOUND('',#194,.T.);
#136=CYLINDRICAL_SURFACE('',#195,1.25);
#137=SURFACE_STYLE_USAGE(.BOTH.,#196);
#138=FACE_OUTER_BOUND('',#197,.T.);
#139=CYLINDRICAL_SURFACE('',#198,1.25);
#140=PRODUCT_CONTEXT('',#26,'mechanical');
#141=PRODUCT_DEFINITION_FORMATION_WITH_SPECIFIED_SOURCE(' ','NONE',#71,.NOT_KNOWN.);
#142=CLOSED_SHELL('',(#40,#42,#44,#46,#48,#50,#52,#54,#56,#58,#60,#62,#64,#66,#68,#70));
#143=CARTESIAN_POINT('',(0.0,0.0,0.0));
#144=DIRECTION('',(0.0,0.0,1.0));
#145=DIRECTION('',(1.0,0.0,0.0));
#146= (NAMED_UNIT(#80)LENGTH_UNIT()SI_UNIT(.MILLI.,.METRE.));
#147=SURFACE_SIDE_STYLE('',(#200));
#148=EDGE_LOOP('',(#201,#202,#203,#204));
#149=AXIS2_PLACEMENT_3D('',#205,#206,#207);
#150=SURFACE_SIDE_STYLE('',(#208));
#151=EDGE_LOOP('',(#209,#210,#211,#212));
#152=AXIS2_PLACEMENT_3D('',#213,#214,#215);
#153=SURFACE_SIDE_STYLE('',(#216));
#154=EDGE_LOOP('',(#217,#218,#219,#220));
#155=AXIS2_PLACEMENT_3D('',#221,#222,#223);
#156=SURFACE_SIDE_STYLE('',(#224));
#157=EDGE_LOOP('',(#225,#226,#227,#228));
#158=AXIS2_PLACEMENT_3D('',#229,#230,#231);
#159=SURFACE_SIDE_STYLE('',(#232));
#160=EDGE_LOOP('',(#233,#234,#235,#236));
#161=AXIS2_PLACEMENT_3D('',#237,#238,#239);
#162=SURFACE_SIDE_STYLE('',(#240));
#163=EDGE_LOOP('',(#241,#242,#243,#244));
#164=AXIS2_PLACEMENT_3D('',#245,#246,#247);
#165=SURFACE_SIDE_STYLE('',(#248));
#166=EDGE_LOOP('',(#249,#250,#251,#252));
#167=AXIS2_PLACEMENT_3D('',#253,#254,#255);
#168=SURFACE_SIDE_STYLE('',(#256));
#169=EDGE_LOOP('',(#257,#258,#259,#260,#261,#262,#263,#264,#265,#266));
#170=AXIS2_PLACEMENT_3D('',#267,#268,#269);
#171=SURFACE_SIDE_STYLE('',(#270));
#172=EDGE_LOOP('',(#271,#272,#273,#274,#275,#276,#277,#278,#279,#280));
#173=AXIS2_PLACEMENT_3D('',#281,#282,#283);
#174=SURFACE_SIDE_STYLE('',(#284));
#175=EDGE_LOOP('',(#285,#286,#287,#288));
#176=AXIS2_PLACEMENT_3D('',#289,#290,#291);
#177=SURFACE_SIDE_STYLE('',(#292));
#178=EDGE_LOOP('',(#293,#294,#295,#296));
#179=AXIS2_PLACEMENT_3D('',#297,#298,#299);
#180=SURFACE_SIDE_STYLE('',(#300));
#181=EDGE_LOOP('',(#301,#302,#303,#304));
#182=AXIS2_PLACEMENT_3D('',#305,#306,#307);
#183=SURFACE_SIDE_STYLE('',(#308));
#184=EDGE_LOOP('',(#309,#310));
#185=EDGE_LOOP('',(#311,#312));
#186=EDGE_LOOP('',(#313,#314,#315,#316));
#187=AXIS2_PLACEMENT_3D('',#317,#318,#319);
#188=SURFACE_SIDE_STYLE('',(#320));
#189=EDGE_LOOP('',(#321,#322));
#190=EDGE_LOOP('',(#323,#324));
#191=EDGE_LOOP('',(#325,#326,#327,#328));
#192=AXIS2_PLACEMENT_3D('',#329,#330,#331);
#193=SURFACE_SIDE_STYLE('',(#332));
#194=EDGE_LOOP('',(#333,#334,#335,#336));
#195=AXIS2_PLACEMENT_3D('',#337,#338,#339);
#196=SURFACE_SIDE_STYLE('',(#340));
#197=EDGE_LOOP('',(#341,#342,#343,#344));
#198=AXIS2_PLACEMENT_3D('',#345,#346,#347);
#200=SURFACE_STYLE_FILL_AREA(#348);
#201=ORIENTED_EDGE('',*,*,#349,.F.);
#202=ORIENTED_EDGE('',*,*,#350,.F.);
#203=ORIENTED_EDGE('',*,*,#351,.F.);
#204=ORIENTED_EDGE('',*,*,#352,.T.);
#205=CARTESIAN_POINT('',(2.5,2.0,-2.0));
#206=DIRECTION('',(0.0,-1.0,6.12323399573677E-17));
#207=DIRECTION('',(0.0,-6.12323399573677E-17,-1.0));
#208=SURFACE_STYLE_FILL_AREA(#353);
#209=ORIENTED_EDGE('',*,*,#354,.F.);
#210=ORIENTED_EDGE('',*,*,#355,.F.);
#211=ORIENTED_EDGE('',*,*,#356,.F.);
#212=ORIENTED_EDGE('',*,*,#357,.T.);
#213=CARTESIAN_POINT('',(7.5,2.0,-2.0));
#214=DIRECTION('',(0.0,-1.0,6.12323399573677E-17));
#215=DIRECTION('',(0.0,-6.12323399573677E-17,-1.0));
#216=SURFACE_STYLE_FILL_AREA(#358);
#217=ORIENTED_EDGE('',*,*,#359,.T.);
#218=ORIENTED_EDGE('',*,*,#360,.T.);
#219=ORIENTED_EDGE('',*,*,#361,.F.);
#220=ORIENTED_EDGE('',*,*,#362,.F.);
#221=CARTESIAN_POINT('',(10.0,2.0,-6.0));
#222=DIRECTION('',(0.0,0.0,1.0));
#223=DIRECTION('',(1.0,0.0,0.0));
#224=SURFACE_STYLE_FILL_AREA(#363);
#225=ORIENTED_EDGE('',*,*,#364,.F.);
#226=ORIENTED_EDGE('',*,*,#365,.T.);
#227=ORIENTED_EDGE('',*,*,#366,.T.);
#228=ORIENTED_EDGE('',*,*,#367,.T.);
#229=CARTESIAN_POINT('',(10.0,9.0,-6.0));
#230=DIRECTION('',(0.0,-1.0,0.0));
#231=DIRECTION('',(1.0,0.0,0.0));
#232=SURFACE_STYLE_FILL_AREA(#368);
#233=ORIENTED_EDGE('',*,*,#369,.F.);
#234=ORIENTED_EDGE('',*,*,#370,.T.);
#235=ORIENTED_EDGE('',*,*,#371,.T.);
#236=ORIENTED_EDGE('',*,*,#372,.F.);
#237=CARTESIAN_POINT('',(10.0,9.0,0.0));
#238=DIRECTION('',(0.0,0.0,-1.0));
#239=DIRECTION('',(-1.0,0.0,0.0));
#240=SURFACE_STYLE_FILL_AREA(#373);
#241=ORIENTED_EDGE('',*,*,#374,.T.);
#242=ORIENTED_EDGE('',*,*,#375,.F.);
#243=ORIENTED_EDGE('',*,*,#376,.F.);
#244=ORIENTED_EDGE('',*,*,#372,.T.);
#245=CARTESIAN_POINT('',(10.0,7.0,0.0));
#246=DIRECTION('',(0.0,1.0,2.11551643411806E-16));
#247=DIRECTION('',(0.0,-2.11551643411806E-16,1.0));
#248=SURFACE_STYLE_FILL_AREA(#377);
#249=ORIENTED_EDGE('',*,*,#378,.T.);
#250=ORIENTED_EDGE('',*,*,#379,.F.);
#251=ORIENTED_EDGE('',*,*,#380,.F.);
#252=ORIENTED_EDGE('',*,*,#375,.T.);
#253=CARTESIAN_POINT('',(10.0,7.0,-4.1));
#254=DIRECTION('',(0.0,4.33680868994202E-17,-1.0));
#255=DIRECTION('',(0.0,1.0,4.33680868994202E-17));
#256=SURFACE_STYLE_FILL_AREA(#381);
#257=ORIENTED_EDGE('',*,*,#361,.T.);
#258=ORIENTED_EDGE('',*,*,#382,.T.);
#259=ORIENTED_EDGE('',*,*,#364,.T.);
#260=ORIENTED_EDGE('',*,*,#383,.T.);
#261=ORIENTED_EDGE('',*,*,#369,.T.);
#262=ORIENTED_EDGE('',*,*,#376,.T.);
#263=ORIENTED_EDGE('',*,*,#380,.T.);
#264=ORIENTED_EDGE('',*,*,#384,.T.);
#265=ORIENTED_EDGE('',*,*,#385,.F.);
#266=ORIENTED_EDGE('',*,*,#386,.F.);
#267=CARTESIAN_POINT('',(10.0,2.0,-6.0));
#268=DIRECTION('',(1.0,0.0,0.0));
#269=DIRECTION('',(0.0,1.0,0.0));
#270=SURFACE_STYLE_FILL_AREA(#387);
#271=ORIENTED_EDGE('',*,*,#366,.F.);
#272=ORIENTED_EDGE('',*,*,#388,.T.);
#273=ORIENTED_EDGE('',*,*,#359,.F.);
#274=ORIENTED_EDGE('',*,*,#389,.F.);
#275=ORIENTED_EDGE('',*,*,#390,.T.);
#276=ORIENTED_EDGE('',*,*,#391,.T.);
#277=ORIENTED_EDGE('',*,*,#378,.F.);
#278=ORIENTED_EDGE('',*,*,#374,.F.);
#279=ORIENTED_EDGE('',*,*,#371,.F.);
#280=ORIENTED_EDGE('',*,*,#392,.T.);
#281=CARTESIAN_POINT('',(0.0,2.0,-6.0));
#282=DIRECTION('',(1.0,0.0,0.0));
#283=DIRECTION('',(0.0,1.0,0.0));
#284=SURFACE_STYLE_FILL_AREA(#393);
#285=ORIENTED_EDGE('',*,*,#382,.F.);
#286=ORIENTED_EDGE('',*,*,#360,.F.);
#287=ORIENTED_EDGE('',*,*,#388,.F.);
#288=ORIENTED_EDGE('',*,*,#365,.F.);
#289=CARTESIAN_POINT('',(10.0,8.0,-5.0));
#290=DIRECTION('',(-1.0,0.0,0.0));
#291=DIRECTION('',(0.0,-1.0,0.0));
#292=SURFACE_STYLE_FILL_AREA(#394);
#293=ORIENTED_EDGE('',*,*,#383,.F.);
#294=ORIENTED_EDGE('',*,*,#367,.F.);
#295=ORIENTED_EDGE('',*,*,#392,.F.);
#296=ORIENTED_EDGE('',*,*,#370,.F.);
#297=CARTESIAN_POINT('',(10.0,8.0,-1.0));
#298=DIRECTION('',(-1.0,0.0,0.0));
#299=DIRECTION('',(0.0,-1.0,0.0));
#300=SURFACE_STYLE_FILL_AREA(#395);
#301=ORIENTED_EDGE('',*,*,#396,.T.);
#302=ORIENTED_EDGE('',*,*,#390,.F.);
#303=ORIENTED_EDGE('',*,*,#397,.F.);
#304=ORIENTED_EDGE('',*,*,#385,.T.);
#305=CARTESIAN_POINT('',(0.0,0.0,0.0));
#306=DIRECTION('',(0.0,-6.12323399573677E-17,-1.0));
#307=DIRECTION('',(0.0,1.0,-6.12323399573677E-17));
#308=SURFACE_STYLE_FILL_AREA(#398);
#309=ORIENTED_EDGE('',*,*,#352,.F.);
#310=ORIENTED_EDGE('',*,*,#399,.F.);
#311=ORIENTED_EDGE('',*,*,#357,.F.);
#312=ORIENTED_EDGE('',*,*,#400,.F.);
#313=ORIENTED_EDGE('',*,*,#389,.T.);
#314=ORIENTED_EDGE('',*,*,#362,.T.);
#315=ORIENTED_EDGE('',*,*,#386,.T.);
#316=ORIENTED_EDGE('',*,*,#397,.T.);
#317=CARTESIAN_POINT('',(0.0,-4.44089209850063E-16,-6.0));
#318=DIRECTION('',(0.0,1.0,-6.12323399573677E-17));
#319=DIRECTION('',(0.0,6.12323399573677E-17,1.0));
#320=SURFACE_STYLE_FILL_AREA(#401);
#321=ORIENTED_EDGE('',*,*,#350,.T.);
#322=ORIENTED_EDGE('',*,*,#402,.T.);
#323=ORIENTED_EDGE('',*,*,#355,.T.);
#324=ORIENTED_EDGE('',*,*,#403,.T.);
#325=ORIENTED_EDGE('',*,*,#384,.F.);
#326=ORIENTED_EDGE('',*,*,#379,.T.);
#327=ORIENTED_EDGE('',*,*,#391,.F.);
#328=ORIENTED_EDGE('',*,*,#396,.F.);
#329=CARTESIAN_POINT('',(0.0,2.0,-6.0));
#330=DIRECTION('',(0.0,1.0,-6.12323399573677E-17));
#331=DIRECTION('',(0.0,6.12323399573677E-17,1.0));
#332=SURFACE_STYLE_FILL_AREA(#404);
#333=ORIENTED_EDGE('',*,*,#354,.T.);
#334=ORIENTED_EDGE('',*,*,#400,.T.);
#335=ORIENTED_EDGE('',*,*,#356,.T.);
#336=ORIENTED_EDGE('',*,*,#403,.F.);
#337=CARTESIAN_POINT('',(7.5,2.0,-2.0));
#338=DIRECTION('',(0.0,-1.0,6.12323399573677E-17));
#339=DIRECTION('',(0.0,-6.12323399573677E-17,-1.0));
#340=SURFACE_STYLE_FILL_AREA(#405);
#341=ORIENTED_EDGE('',*,*,#349,.T.);
#342=ORIENTED_EDGE('',*,*,#399,.T.);
#343=ORIENTED_EDGE('',*,*,#351,.T.);
#344=ORIENTED_EDGE('',*,*,#402,.F.);
#345=CARTESIAN_POINT('',(2.5,2.0,-2.0));
#346=DIRECTION('',(0.0,-1.0,6.12323399573677E-17));
#347=DIRECTION('',(0.0,-6.12323399573677E-17,-1.0));
#348=FILL_AREA_STYLE('',(#406));
#349=EDGE_CURVE('',#407,#408,#409,.T.);
#350=EDGE_CURVE('',#410,#407,#411,.T.);
#351=EDGE_CURVE('',#412,#410,#413,.T.);
#352=EDGE_CURVE('',#412,#408,#414,.T.);
#353=FILL_AREA_STYLE('',(#415));
#354=EDGE_CURVE('',#416,#417,#418,.T.);
#355=EDGE_CURVE('',#419,#416,#420,.T.);
#356=EDGE_CURVE('',#421,#419,#422,.T.);
#357=EDGE_CURVE('',#421,#417,#423,.T.);
#358=FILL_AREA_STYLE('',(#424));
#359=EDGE_CURVE('',#425,#426,#427,.T.);
#360=EDGE_CURVE('',#426,#428,#429,.T.);
#361=EDGE_CURVE('',#430,#428,#431,.T.);
#362=EDGE_CURVE('',#425,#430,#432,.T.);
#363=FILL_AREA_STYLE('',(#433));
#364=EDGE_CURVE('',#434,#435,#436,.T.);
#365=EDGE_CURVE('',#434,#437,#438,.T.);
#366=EDGE_CURVE('',#437,#439,#440,.T.);
#367=EDGE_CURVE('',#439,#435,#441,.T.);
#368=FILL_AREA_STYLE('',(#442));
#369=EDGE_CURVE('',#443,#444,#445,.T.);
#370=EDGE_CURVE('',#443,#446,#447,.T.);
#371=EDGE_CURVE('',#446,#448,#449,.T.);
#372=EDGE_CURVE('',#444,#448,#450,.T.);
#373=FILL_AREA_STYLE('',(#451));
#374=EDGE_CURVE('',#448,#452,#453,.T.);
#375=EDGE_CURVE('',#454,#452,#455,.T.);
#376=EDGE_CURVE('',#444,#454,#456,.T.);
#377=FILL_AREA_STYLE('',(#457));
#378=EDGE_CURVE('',#452,#458,#459,.T.);
#379=EDGE_CURVE('',#460,#458,#461,.T.);
#380=EDGE_CURVE('',#454,#460,#462,.T.);
#381=FILL_AREA_STYLE('',(#463));
#382=EDGE_CURVE('',#428,#434,#464,.T.);
#383=EDGE_CURVE('',#435,#443,#465,.T.);
#384=EDGE_CURVE('',#460,#466,#467,.T.);
#385=EDGE_CURVE('',#468,#466,#469,.T.);
#386=EDGE_CURVE('',#430,#468,#470,.T.);
#387=FILL_AREA_STYLE('',(#471));
#388=EDGE_CURVE('',#437,#426,#472,.T.);
#389=EDGE_CURVE('',#473,#425,#474,.T.);
#390=EDGE_CURVE('',#473,#475,#476,.T.);
#391=EDGE_CURVE('',#475,#458,#477,.T.);
#392=EDGE_CURVE('',#446,#439,#478,.T.);
#393=FILL_AREA_STYLE('',(#479));
#394=FILL_AREA_STYLE('',(#480));
#395=FILL_AREA_STYLE('',(#481));
#396=EDGE_CURVE('',#466,#475,#482,.T.);
#397=EDGE_CURVE('',#468,#473,#483,.T.);
#398=FILL_AREA_STYLE('',(#484));
#399=EDGE_CURVE('',#408,#412,#485,.T.);
#400=EDGE_CURVE('',#417,#421,#486,.T.);
#401=FILL_AREA_STYLE('',(#487));
#402=EDGE_CURVE('',#407,#410,#488,.T.);
#403=EDGE_CURVE('',#416,#419,#489,.T.);
#404=FILL_AREA_STYLE('',(#490));
#405=FILL_AREA_STYLE('',(#491));
#406=FILL_AREA_STYLE_COLOUR('',#492);
#407=VERTEX_POINT('',#493);
#408=VERTEX_POINT('',#494);
#409=LINE('',#495,#496);
#410=VERTEX_POINT('',#497);
#411=CIRCLE('',#498,1.25);
#412=VERTEX_POINT('',#499);
#413=LINE('',#500,#501);
#414=CIRCLE('',#502,1.25);
#415=FILL_AREA_STYLE_COLOUR('',#503);
#416=VERTEX_POINT('',#504);
#417=VERTEX_POINT('',#505);
#418=LINE('',#506,#507);
#419=VERTEX_POINT('',#508);
#420=CIRCLE('',#509,1.25);
#421=VERTEX_POINT('',#510);
#422=LINE('',#511,#512);
#423=CIRCLE('',#513,1.25);
#424=FILL_AREA_STYLE_COLOUR('',#514);
#425=VERTEX_POINT('',#515);
#426=VERTEX_POINT('',#516);
#427=LINE('',#517,#518);
#428=VERTEX_POINT('',#519);
#429=LINE('',#520,#521);
#430=VERTEX_POINT('',#522);
#431=LINE('',#523,#524);
#432=LINE('',#525,#526);
#433=FILL_AREA_STYLE_COLOUR('',#527);
#434=VERTEX_POINT('',#528);
#435=VERTEX_POINT('',#529);
#436=LINE('',#530,#531);
#437=VERTEX_POINT('',#532);
#438=LINE('',#533,#534);
#439=VERTEX_POINT('',#535);
#440=LINE('',#536,#537);
#441=LINE('',#538,#539);
#442=FILL_AREA_STYLE_COLOUR('',#540);
#443=VERTEX_POINT('',#541);
#444=VERTEX_POINT('',#542);
#445=LINE('',#543,#544);
#446=VERTEX_POINT('',#545);
#447=LINE('',#546,#547);
#448=VERTEX_POINT('',#548);
#449=LINE('',#549,#550);
#450=LINE('',#551,#552);
#451=FILL_AREA_STYLE_COLOUR('',#553);
#452=VERTEX_POINT('',#554);
#453=LINE('',#555,#556);
#454=VERTEX_POINT('',#557);
#455=LINE('',#558,#559);
#456=LINE('',#560,#561);
#457=FILL_AREA_STYLE_COLOUR('',#562);
#458=VERTEX_POINT('',#563);
#459=LINE('',#564,#565);
#460=VERTEX_POINT('',#566);
#461=LINE('',#567,#568);
#462=LINE('',#569,#570);
#463=FILL_AREA_STYLE_COLOUR('',#571);
#464=CIRCLE('',#572,1.0);
#465=CIRCLE('',#573,1.0);
#466=VERTEX_POINT('',#574);
#467=LINE('',#575,#576);
#468=VERTEX_POINT('',#577);
#469=LINE('',#578,#579);
#470=LINE('',#580,#581);
#471=FILL_AREA_STYLE_COLOUR('',#582);
#472=CIRCLE('',#583,1.0);
#473=VERTEX_POINT('',#584);
#474=LINE('',#585,#586);
#475=VERTEX_POINT('',#587);
#476=LINE('',#588,#589);
#477=LINE('',#590,#591);
#478=CIRCLE('',#592,1.0);
#479=FILL_AREA_STYLE_COLOUR('',#593);
#480=FILL_AREA_STYLE_COLOUR('',#594);
#481=FILL_AREA_STYLE_COLOUR('',#595);
#482=LINE('',#596,#597);
#483=LINE('',#598,#599);
#484=FILL_AREA_STYLE_COLOUR('',#600);
#485=CIRCLE('',#601,1.25);
#486=CIRCLE('',#602,1.25);
#487=FILL_AREA_STYLE_COLOUR('',#603);
#488=CIRCLE('',#604,1.25);
#489=CIRCLE('',#605,1.25);
#490=FILL_AREA_STYLE_COLOUR('',#606);
#491=FILL_AREA_STYLE_COLOUR('',#607);
#492=COLOUR_RGB('',0.0,0.0,0.0);
#493=CARTESIAN_POINT('',(2.5,2.0,-0.75));
#494=CARTESIAN_POINT('',(2.5,7.65404249467096E-17,-0.75));
#495=CARTESIAN_POINT('',(2.5,2.0,-0.75));
#496=VECTOR('',#608,1.0);
#497=CARTESIAN_POINT('',(2.5,2.0,-3.25));
#498=AXIS2_PLACEMENT_3D('',#609,#610,#611);
#499=CARTESIAN_POINT('',(2.5,4.44089209850063E-16,-3.25));
#500=CARTESIAN_POINT('',(2.5,-4.44089209850063E-16,-3.25));
#501=VECTOR('',#612,1.0);
#502=AXIS2_PLACEMENT_3D('',#613,#614,#615);
#503=COLOUR_RGB('',0.0,0.0,0.0);
#504=CARTESIAN_POINT('',(7.5,2.0,-0.750000000000001));
#505=CARTESIAN_POINT('',(7.5,7.65404249467096E-17,-0.750000000000001));
#506=CARTESIAN_POINT('',(7.5,2.0,-0.750000000000001));
#507=VECTOR('',#616,1.0);
#508=CARTESIAN_POINT('',(7.5,2.0,-3.25));
#509=AXIS2_PLACEMENT_3D('',#617,#618,#619);
#510=CARTESIAN_POINT('',(7.5,4.44089209850063E-16,-3.25));
#511=CARTESIAN_POINT('',(7.5,-4.44089209850063E-16,-3.25));
#512=VECTOR('',#620,1.0);
#513=AXIS2_PLACEMENT_3D('',#621,#622,#623);
#514=COLOUR_RGB('',0.0,0.0,0.0);
#515=CARTESIAN_POINT('',(0.0,-4.44089209850063E-16,-6.0));
#516=CARTESIAN_POINT('',(0.0,8.0,-6.0));
#517=CARTESIAN_POINT('',(0.0,2.0,-6.0));
#518=VECTOR('',#624,1.0);
#519=CARTESIAN_POINT('',(10.0,8.0,-6.0));
#520=CARTESIAN_POINT('',(0.0,8.0,-6.0));
#521=VECTOR('',#625,1.0);
#522=CARTESIAN_POINT('',(10.0,-4.44089209850063E-16,-6.0));
#523=CARTESIAN_POINT('',(10.0,2.0,-6.0));
#524=VECTOR('',#626,1.0);
#525=CARTESIAN_POINT('',(0.0,-4.44089209850063E-16,-6.0));
#526=VECTOR('',#627,1.0);
#527=COLOUR_RGB('',0.0,0.0,0.0);
#528=CARTESIAN_POINT('',(10.0,9.0,-5.0));
#529=CARTESIAN_POINT('',(10.0,9.0,-1.0));
#530=CARTESIAN_POINT('',(10.0,9.0,-6.0));
#531=VECTOR('',#628,1.0);
#532=CARTESIAN_POINT('',(0.0,9.0,-5.0));
#533=CARTESIAN_POINT('',(10.0,9.0,-5.0));
#534=VECTOR('',#629,1.0);
#535=CARTESIAN_POINT('',(0.0,9.0,-1.0));
#536=CARTESIAN_POINT('',(0.0,9.0,-6.0));
#537=VECTOR('',#630,1.0);
#538=CARTESIAN_POINT('',(0.0,9.0,-1.0));
#539=VECTOR('',#631,1.0);
#540=COLOUR_RGB('',0.0,0.0,0.0);
#541=CARTESIAN_POINT('',(10.0,8.0,0.0));
#542=CARTESIAN_POINT('',(10.0,7.0,0.0));
#543=CARTESIAN_POINT('',(10.0,9.0,0.0));
#544=VECTOR('',#632,1.0);
#545=CARTESIAN_POINT('',(0.0,8.0,0.0));
#546=CARTESIAN_POINT('',(10.0,8.0,0.0));
#547=VECTOR('',#633,1.0);
#548=CARTESIAN_POINT('',(0.0,7.0,0.0));
#549=CARTESIAN_POINT('',(0.0,9.0,0.0));
#550=VECTOR('',#634,1.0);
#551=CARTESIAN_POINT('',(10.0,7.0,0.0));
#552=VECTOR('',#635,1.0);
#553=COLOUR_RGB('',0.0,0.0,0.0);
#554=CARTESIAN_POINT('',(0.0,7.0,-4.1));
#555=CARTESIAN_POINT('',(0.0,7.0,0.0));
#556=VECTOR('',#636,1.0);
#557=CARTESIAN_POINT('',(10.0,7.0,-4.1));
#558=CARTESIAN_POINT('',(10.0,7.0,-4.1));
#559=VECTOR('',#637,1.0);
#560=CARTESIAN_POINT('',(10.0,7.0,0.0));
#561=VECTOR('',#638,1.0);
#562=COLOUR_RGB('',0.0,0.0,0.0);
#563=CARTESIAN_POINT('',(0.0,2.0,-4.1));
#564=CARTESIAN_POINT('',(0.0,7.0,-4.1));
#565=VECTOR('',#639,1.0);
#566=CARTESIAN_POINT('',(10.0,2.0,-4.1));
#567=CARTESIAN_POINT('',(10.0,2.0,-4.1));
#568=VECTOR('',#640,1.0);
#569=CARTESIAN_POINT('',(10.0,7.0,-4.1));
#570=VECTOR('',#641,1.0);
#571=COLOUR_RGB('',0.0,0.0,0.0);
#572=AXIS2_PLACEMENT_3D('',#642,#643,#644);
#573=AXIS2_PLACEMENT_3D('',#645,#646,#647);
#574=CARTESIAN_POINT('',(10.0,2.0,0.0));
#575=CARTESIAN_POINT('',(10.0,2.0,-6.0));
#576=VECTOR('',#648,1.0);
#577=CARTESIAN_POINT('',(10.0,0.0,0.0));
#578=CARTESIAN_POINT('',(10.0,0.0,0.0));
#579=VECTOR('',#649,1.0);
#580=CARTESIAN_POINT('',(10.0,-4.44089209850063E-16,-6.0));
#581=VECTOR('',#650,1.0);
#582=COLOUR_RGB('',0.0,0.0,0.0);
#583=AXIS2_PLACEMENT_3D('',#651,#652,#653);
#584=CARTESIAN_POINT('',(0.0,0.0,0.0));
#585=CARTESIAN_POINT('',(0.0,-4.44089209850063E-16,-6.0));
#586=VECTOR('',#654,1.0);
#587=CARTESIAN_POINT('',(0.0,2.0,0.0));
#588=CARTESIAN_POINT('',(0.0,0.0,0.0));
#589=VECTOR('',#655,1.0);
#590=CARTESIAN_POINT('',(0.0,2.0,-6.0));
#591=VECTOR('',#656,1.0);
#592=AXIS2_PLACEMENT_3D('',#657,#658,#659);
#593=COLOUR_RGB('',0.0,0.0,0.0);
#594=COLOUR_RGB('',0.0,0.0,0.0);
#595=COLOUR_RGB('',0.0,0.0,0.0);
#596=CARTESIAN_POINT('',(0.0,2.0,0.0));
#597=VECTOR('',#660,1.0);
#598=CARTESIAN_POINT('',(0.0,0.0,0.0));
#599=VECTOR('',#661,1.0);
#600=COLOUR_RGB('',0.0,0.0,0.0);
#601=AXIS2_PLACEMENT_3D('',#662,#663,#664);
#602=AXIS2_PLACEMENT_3D('',#665,#666,#667);
#603=COLOUR_RGB('',0.0,0.0,0.0);
#604=AXIS2_PLACEMENT_3D('',#668,#669,#670);
#605=AXIS2_PLACEMENT_3D('',#671,#672,#673);
#606=COLOUR_RGB('',0.0,0.0,0.0);
#607=COLOUR_RGB('',0.0,0.0,0.0);
#608=DIRECTION('',(0.0,-1.0,6.12323399573677E-17));
#609=CARTESIAN_POINT('',(2.5,2.0,-2.0));
#610=DIRECTION('',(0.0,-1.0,6.12323399573677E-17));
#611=DIRECTION('',(0.0,-6.12323399573677E-17,-1.0));
#612=DIRECTION('',(0.0,1.0,-6.12323399573677E-17));
#613=CARTESIAN_POINT('',(2.5,0.0,-2.0));
#614=DIRECTION('',(0.0,-1.0,6.12323399573677E-17));
#615=DIRECTION('',(0.0,-6.12323399573677E-17,-1.0));
#616=DIRECTION('',(0.0,-1.0,6.12323399573677E-17));
#617=CARTESIAN_POINT('',(7.5,2.0,-2.0));
#618=DIRECTION('',(0.0,-1.0,6.12323399573677E-17));
#619=DIRECTION('',(0.0,-6.12323399573677E-17,-1.0));
#620=DIRECTION('',(0.0,1.0,-6.12323399573677E-17));
#621=CARTESIAN_POINT('',(7.5,0.0,-2.0));
#622=DIRECTION('',(0.0,-1.0,6.12323399573677E-17));
#623=DIRECTION('',(0.0,-6.12323399573677E-17,-1.0));
#624=DIRECTION('',(0.0,1.0,0.0));
#625=DIRECTION('',(1.0,0.0,0.0));
#626=DIRECTION('',(0.0,1.0,0.0));
#627=DIRECTION('',(1.0,0.0,0.0));
#628=DIRECTION('',(0.0,0.0,1.0));
#629=DIRECTION('',(-1.0,0.0,0.0));
#630=DIRECTION('',(0.0,0.0,1.0));
#631=DIRECTION('',(1.0,0.0,0.0));
#632=DIRECTION('',(0.0,-1.0,0.0));
#633=DIRECTION('',(-1.0,0.0,0.0));
#634=DIRECTION('',(0.0,-1.0,0.0));
#635=DIRECTION('',(-1.0,0.0,0.0));
#636=DIRECTION('',(0.0,2.11551643411806E-16,-1.0));
#637=DIRECTION('',(-1.0,0.0,0.0));
#638=DIRECTION('',(0.0,2.11551643411806E-16,-1.0));
#639=DIRECTION('',(0.0,-1.0,-4.33680868994202E-17));
#640=DIRECTION('',(-1.0,0.0,0.0));
#641=DIRECTION('',(0.0,-1.0,-4.33680868994202E-17));
#642=CARTESIAN_POINT('',(10.0,8.0,-5.0));
#643=DIRECTION('',(1.0,0.0,0.0));
#644=DIRECTION('',(0.0,1.0,0.0));
#645=CARTESIAN_POINT('',(10.0,8.0,-1.0));
#646=DIRECTION('',(1.0,0.0,0.0));
#647=DIRECTION('',(0.0,1.0,0.0));
#648=DIRECTION('',(0.0,6.12323399573677E-17,1.0));
#649=DIRECTION('',(0.0,1.0,-6.12323399573677E-17));
#650=DIRECTION('',(0.0,6.12323399573677E-17,1.0));
#651=CARTESIAN_POINT('',(0.0,8.0,-5.0));
#652=DIRECTION('',(-1.0,0.0,0.0));
#653=DIRECTION('',(0.0,1.0,0.0));
#654=DIRECTION('',(0.0,-6.12323399573677E-17,-1.0));
#655=DIRECTION('',(0.0,1.0,-6.12323399573677E-17));
#656=DIRECTION('',(0.0,-6.12323399573677E-17,-1.0));
#657=CARTESIAN_POINT('',(0.0,8.0,-1.0));
#658=DIRECTION('',(-1.0,0.0,0.0));
#659=DIRECTION('',(0.0,1.0,0.0));
#660=DIRECTION('',(-1.0,0.0,0.0));
#661=DIRECTION('',(-1.0,0.0,0.0));
#662=CARTESIAN_POINT('',(2.5,0.0,-2.0));
#663=DIRECTION('',(0.0,-1.0,6.12323399573677E-17));
#664=DIRECTION('',(0.0,-6.12323399573677E-17,-1.0));
#665=CARTESIAN_POINT('',(7.5,0.0,-2.0));
#666=DIRECTION('',(0.0,-1.0,6.12323399573677E-17));
#667=DIRECTION('',(0.0,-6.12323399573677E-17,-1.0));
#668=CARTESIAN_POINT('',(2.5,2.0,-2.0));
#669=DIRECTION('',(0.0,-1.0,6.12323399573677E-17));
#670=DIRECTION('',(0.0,-6.12323399573677E-17,-1.0));
#671=CARTESIAN_POINT('',(7.5,2.0,-2.0));
#672=DIRECTION('',(0.0,-1.0,6.12323399573677E-17));
#673=DIRECTION('',(0.0,-6.12323399573677E-17,-1.0));
ENDSEC;
END-ISO-10303-21;
