ISO-10303-21;
HEADER;
FILE_DESCRIPTION(('STEP AP214'),'1');
FILE_NAME('result.step','2024-12-03T07:16:13',(' '),(' '),'Spatial InterOp 3D',' ',' ');
FILE_SCHEMA(('automotive_design'));
ENDSEC;
DATA;
#1=MECHANICAL_DESIGN_GEOMETRIC_PRESENTATION_REPRESENTATION(' ',(#10,#11,#12,#13,#14,#15,#16,#17,#18,#19,#20,#21,#22,#23,#24,#25,#26,#27,#28,#29,#30,#31,#32,#33,#34,#35,#36,#37,#38,#39,#40,#41,#42,#43,#44,#45,#46),#6);
#2=PRODUCT_DEFINITION_CONTEXT('',#47,'design');
#3=APPLICATION_PROTOCOL_DEFINITION('INTERNATIONAL STANDARD','automotive_design',1994,#47);
#4=PRODUCT_CATEGORY_RELATIONSHIP('NONE','NONE',#48,#49);
#5=SHAPE_DEFINITION_REPRESENTATION(#50,#51);
#6= (GEOMETRIC_REPRESENTATION_CONTEXT(3)GLOBAL_UNCERTAINTY_ASSIGNED_CONTEXT((#54))GLOBAL_UNIT_ASSIGNED_CONTEXT((#56,#57,#58))REPRESENTATION_CONTEXT('NONE','WORKSPACE'));
#10=STYLED_ITEM('',(#60),#61);
#11=STYLED_ITEM('',(#62),#63);
#12=STYLED_ITEM('',(#64),#65);
#13=STYLED_ITEM('',(#66),#67);
#14=STYLED_ITEM('',(#68),#69);
#15=STYLED_ITEM('',(#70),#71);
#16=STYLED_ITEM('',(#72),#73);
#17=STYLED_ITEM('',(#74),#75);
#18=STYLED_ITEM('',(#76),#77);
#19=STYLED_ITEM('',(#78),#79);
#20=STYLED_ITEM('',(#80),#81);
#21=STYLED_ITEM('',(#82),#83);
#22=STYLED_ITEM('',(#84),#85);
#23=STYLED_ITEM('',(#86),#87);
#24=STYLED_ITEM('',(#88),#89);
#25=STYLED_ITEM('',(#90),#91);
#26=STYLED_ITEM('',(#92),#93);
#27=STYLED_ITEM('',(#94),#95);
#28=STYLED_ITEM('',(#96),#97);
#29=STYLED_ITEM('',(#98),#99);
#30=STYLED_ITEM('',(#100),#101);
#31=STYLED_ITEM('',(#102),#103);
#32=STYLED_ITEM('',(#104),#105);
#33=STYLED_ITEM('',(#106),#107);
#34=STYLED_ITEM('',(#108),#109);
#35=STYLED_ITEM('',(#110),#111);
#36=STYLED_ITEM('',(#112),#113);
#37=STYLED_ITEM('',(#114),#115);
#38=STYLED_ITEM('',(#116),#117);
#39=STYLED_ITEM('',(#118),#119);
#40=STYLED_ITEM('',(#120),#121);
#41=STYLED_ITEM('',(#122),#123);
#42=STYLED_ITEM('',(#124),#125);
#43=STYLED_ITEM('',(#126),#127);
#44=STYLED_ITEM('',(#128),#129);
#45=STYLED_ITEM('',(#130),#131);
#46=STYLED_ITEM('',(#132),#133);
#47=APPLICATION_CONTEXT(' ');
#48=PRODUCT_CATEGORY('part','NONE');
#49=PRODUCT_RELATED_PRODUCT_CATEGORY('detail',' ',(#134));
#50=PRODUCT_DEFINITION_SHAPE('NONE','NONE',#135);
#51=ADVANCED_BREP_SHAPE_REPRESENTATION('001',(#133,#136),#6);
#54=UNCERTAINTY_MEASURE_WITH_UNIT(LENGTH_MEASURE(1.0E-06),#56,'','');
#56= (CONVERSION_BASED_UNIT('MILLIMETRE',#139)LENGTH_UNIT()NAMED_UNIT(#142));
#57= (NAMED_UNIT(#144)PLANE_ANGLE_UNIT()SI_UNIT($,.RADIAN.));
#58= (NAMED_UNIT(#144)SOLID_ANGLE_UNIT()SI_UNIT($,.STERADIAN.));
#60=PRESENTATION_STYLE_ASSIGNMENT((#150));
#61=ADVANCED_FACE('',(#151),#152,.F.);
#62=PRESENTATION_STYLE_ASSIGNMENT((#153));
#63=ADVANCED_FACE('',(#154),#155,.F.);
#64=PRESENTATION_STYLE_ASSIGNMENT((#156));
#65=ADVANCED_FACE('',(#157),#158,.F.);
#66=PRESENTATION_STYLE_ASSIGNMENT((#159));
#67=ADVANCED_FACE('NONE',(#160),#161,.F.);
#68=PRESENTATION_STYLE_ASSIGNMENT((#162));
#69=ADVANCED_FACE('NONE',(#163),#164,.F.);
#70=PRESENTATION_STYLE_ASSIGNMENT((#165));
#71=ADVANCED_FACE('NONE',(#166),#167,.F.);
#72=PRESENTATION_STYLE_ASSIGNMENT((#168));
#73=ADVANCED_FACE('NONE',(#169,#170,#171,#172,#173,#174),#175,.T.);
#74=PRESENTATION_STYLE_ASSIGNMENT((#176));
#75=ADVANCED_FACE('NONE',(#177,#178,#179,#180,#181,#182),#183,.F.);
#76=PRESENTATION_STYLE_ASSIGNMENT((#184));
#77=ADVANCED_FACE('NONE',(#185),#186,.F.);
#78=PRESENTATION_STYLE_ASSIGNMENT((#187));
#79=ADVANCED_FACE('NONE',(#188),#189,.F.);
#80=PRESENTATION_STYLE_ASSIGNMENT((#190));
#81=ADVANCED_FACE('NONE',(#191),#192,.F.);
#82=PRESENTATION_STYLE_ASSIGNMENT((#193));
#83=ADVANCED_FACE('NONE',(#194),#195,.F.);
#84=PRESENTATION_STYLE_ASSIGNMENT((#196));
#85=ADVANCED_FACE('NONE',(#197),#198,.F.);
#86=PRESENTATION_STYLE_ASSIGNMENT((#199));
#87=ADVANCED_FACE('NONE',(#200),#201,.T.);
#88=PRESENTATION_STYLE_ASSIGNMENT((#202));
#89=ADVANCED_FACE('NONE',(#203),#204,.F.);
#90=PRESENTATION_STYLE_ASSIGNMENT((#205));
#91=ADVANCED_FACE('NONE',(#206),#207,.T.);
#92=PRESENTATION_STYLE_ASSIGNMENT((#208));
#93=ADVANCED_FACE('NONE',(#209),#210,.F.);
#94=PRESENTATION_STYLE_ASSIGNMENT((#211));
#95=ADVANCED_FACE('NONE',(#212),#213,.T.);
#96=PRESENTATION_STYLE_ASSIGNMENT((#214));
#97=ADVANCED_FACE('NONE',(#215),#216,.F.);
#98=PRESENTATION_STYLE_ASSIGNMENT((#217));
#99=ADVANCED_FACE('NONE',(#218),#219,.T.);
#100=PRESENTATION_STYLE_ASSIGNMENT((#220));
#101=ADVANCED_FACE('NONE',(#221),#222,.F.);
#102=PRESENTATION_STYLE_ASSIGNMENT((#223));
#103=ADVANCED_FACE('NONE',(#224),#225,.T.);
#104=PRESENTATION_STYLE_ASSIGNMENT((#226));
#105=ADVANCED_FACE('NONE',(#227),#228,.F.);
#106=PRESENTATION_STYLE_ASSIGNMENT((#229));
#107=ADVANCED_FACE('NONE',(#230),#231,.T.);
#108=PRESENTATION_STYLE_ASSIGNMENT((#232));
#109=ADVANCED_FACE('NONE',(#233),#234,.F.);
#110=PRESENTATION_STYLE_ASSIGNMENT((#235));
#111=ADVANCED_FACE('NONE',(#236),#237,.T.);
#112=PRESENTATION_STYLE_ASSIGNMENT((#238));
#113=ADVANCED_FACE('NONE',(#239),#240,.F.);
#114=PRESENTATION_STYLE_ASSIGNMENT((#241));
#115=ADVANCED_FACE('NONE',(#242),#243,.T.);
#116=PRESENTATION_STYLE_ASSIGNMENT((#244));
#117=ADVANCED_FACE('NONE',(#245),#246,.F.);
#118=PRESENTATION_STYLE_ASSIGNMENT((#247));
#119=ADVANCED_FACE('NONE',(#248),#249,.T.);
#120=PRESENTATION_STYLE_ASSIGNMENT((#250));
#121=ADVANCED_FACE('NONE',(#251),#252,.F.);
#122=PRESENTATION_STYLE_ASSIGNMENT((#253));
#123=ADVANCED_FACE('NONE',(#254),#255,.T.);
#124=PRESENTATION_STYLE_ASSIGNMENT((#256));
#125=ADVANCED_FACE('NONE',(#257),#258,.F.);
#126=PRESENTATION_STYLE_ASSIGNMENT((#259));
#127=ADVANCED_FACE('NONE',(#260),#261,.F.);
#128=PRESENTATION_STYLE_ASSIGNMENT((#262));
#129=ADVANCED_FACE('NONE',(#263),#264,.F.);
#130=PRESENTATION_STYLE_ASSIGNMENT((#265));
#131=ADVANCED_FACE('NONE',(#266),#267,.F.);
#132=PRESENTATION_STYLE_ASSIGNMENT((#268));
#133=MANIFOLD_SOLID_BREP('001',#269);
#134=PRODUCT('001','001','PART-001-DESC',(#270));
#135=PRODUCT_DEFINITION('NONE','NONE',#271,#2);
#136=AXIS2_PLACEMENT_3D('',#272,#273,#274);
#139=LENGTH_MEASURE_WITH_UNIT(LENGTH_MEASURE(1.0),#275);
#142=DIMENSIONAL_EXPONENTS(1.0,0.0,0.0,0.0,0.0,0.0,0.0);
#144=DIMENSIONAL_EXPONENTS(0.0,0.0,0.0,0.0,0.0,0.0,0.0);
#150=SURFACE_STYLE_USAGE(.BOTH.,#276);
#151=FACE_OUTER_BOUND('',#277,.T.);
#152=CYLINDRICAL_SURFACE('',#278,2.1);
#153=SURFACE_STYLE_USAGE(.BOTH.,#279);
#154=FACE_OUTER_BOUND('',#280,.T.);
#155=CYLINDRICAL_SURFACE('',#281,2.1);
#156=SURFACE_STYLE_USAGE(.BOTH.,#282);
#157=FACE_OUTER_BOUND('',#283,.T.);
#158=CYLINDRICAL_SURFACE('',#284,2.1);
#159=SURFACE_STYLE_USAGE(.BOTH.,#285);
#160=FACE_OUTER_BOUND('',#286,.T.);
#161=CYLINDRICAL_SURFACE('',#287,2.1);
#162=SURFACE_STYLE_USAGE(.BOTH.,#288);
#163=FACE_OUTER_BOUND('',#289,.T.);
#164=CYLINDRICAL_SURFACE('',#290,2.1);
#165=SURFACE_STYLE_USAGE(.BOTH.,#291);
#166=FACE_OUTER_BOUND('',#292,.T.);
#167=CYLINDRICAL_SURFACE('',#293,2.1);
#168=SURFACE_STYLE_USAGE(.BOTH.,#294);
#169=FACE_OUTER_BOUND('',#295,.T.);
#170=FACE_BOUND('',#296,.T.);
#171=FACE_BOUND('',#297,.T.);
#172=FACE_BOUND('',#298,.T.);
#173=FACE_BOUND('',#299,.T.);
#174=FACE_BOUND('',#300,.T.);
#175=PLANE('',#301);
#176=SURFACE_STYLE_USAGE(.BOTH.,#302);
#177=FACE_BOUND('',#303,.T.);
#178=FACE_BOUND('',#304,.T.);
#179=FACE_OUTER_BOUND('',#305,.T.);
#180=FACE_BOUND('',#306,.T.);
#181=FACE_BOUND('',#307,.T.);
#182=FACE_BOUND('',#308,.T.);
#183=PLANE('',#309);
#184=SURFACE_STYLE_USAGE(.BOTH.,#310);
#185=FACE_OUTER_BOUND('',#311,.T.);
#186=PLANE('',#312);
#187=SURFACE_STYLE_USAGE(.BOTH.,#313);
#188=FACE_OUTER_BOUND('',#314,.T.);
#189=PLANE('',#315);
#190=SURFACE_STYLE_USAGE(.BOTH.,#316);
#191=FACE_OUTER_BOUND('',#317,.T.);
#192=PLANE('',#318);
#193=SURFACE_STYLE_USAGE(.BOTH.,#319);
#194=FACE_OUTER_BOUND('',#320,.T.);
#195=PLANE('',#321);
#196=SURFACE_STYLE_USAGE(.BOTH.,#322);
#197=FACE_OUTER_BOUND('',#323,.T.);
#198=CYLINDRICAL_SURFACE('',#324,2.1);
#199=SURFACE_STYLE_USAGE(.BOTH.,#325);
#200=FACE_OUTER_BOUND('',#326,.T.);
#201=PLANE('',#327);
#202=SURFACE_STYLE_USAGE(.BOTH.,#328);
#203=FACE_OUTER_BOUND('',#329,.T.);
#204=CYLINDRICAL_SURFACE('',#330,2.1);
#205=SURFACE_STYLE_USAGE(.BOTH.,#331);
#206=FACE_OUTER_BOUND('',#332,.T.);
#207=PLANE('',#333);
#208=SURFACE_STYLE_USAGE(.BOTH.,#334);
#209=FACE_OUTER_BOUND('',#335,.T.);
#210=CYLINDRICAL_SURFACE('',#336,2.1);
#211=SURFACE_STYLE_USAGE(.BOTH.,#337);
#212=FACE_OUTER_BOUND('',#338,.T.);
#213=PLANE('',#339);
#214=SURFACE_STYLE_USAGE(.BOTH.,#340);
#215=FACE_OUTER_BOUND('',#341,.T.);
#216=CYLINDRICAL_SURFACE('',#342,2.1);
#217=SURFACE_STYLE_USAGE(.BOTH.,#343);
#218=FACE_OUTER_BOUND('',#344,.T.);
#219=PLANE('',#345);
#220=SURFACE_STYLE_USAGE(.BOTH.,#346);
#221=FACE_OUTER_BOUND('',#347,.T.);
#222=CYLINDRICAL_SURFACE('',#348,2.1);
#223=SURFACE_STYLE_USAGE(.BOTH.,#349);
#224=FACE_OUTER_BOUND('',#350,.T.);
#225=PLANE('',#351);
#226=SURFACE_STYLE_USAGE(.BOTH.,#352);
#227=FACE_OUTER_BOUND('',#353,.T.);
#228=CYLINDRICAL_SURFACE('',#354,2.1);
#229=SURFACE_STYLE_USAGE(.BOTH.,#355);
#230=FACE_OUTER_BOUND('',#356,.T.);
#231=PLANE('',#357);
#232=SURFACE_STYLE_USAGE(.BOTH.,#358);
#233=FACE_OUTER_BOUND('',#359,.T.);
#234=CYLINDRICAL_SURFACE('',#360,2.1);
#235=SURFACE_STYLE_USAGE(.BOTH.,#361);
#236=FACE_OUTER_BOUND('',#362,.T.);
#237=PLANE('',#363);
#238=SURFACE_STYLE_USAGE(.BOTH.,#364);
#239=FACE_OUTER_BOUND('',#365,.T.);
#240=CYLINDRICAL_SURFACE('',#366,2.1);
#241=SURFACE_STYLE_USAGE(.BOTH.,#367);
#242=FACE_OUTER_BOUND('',#368,.T.);
#243=PLANE('',#369);
#244=SURFACE_STYLE_USAGE(.BOTH.,#370);
#245=FACE_OUTER_BOUND('',#371,.T.);
#246=CYLINDRICAL_SURFACE('',#372,2.1);
#247=SURFACE_STYLE_USAGE(.BOTH.,#373);
#248=FACE_OUTER_BOUND('',#374,.T.);
#249=PLANE('',#375);
#250=SURFACE_STYLE_USAGE(.BOTH.,#376);
#251=FACE_OUTER_BOUND('',#377,.T.);
#252=CYLINDRICAL_SURFACE('',#378,2.1);
#253=SURFACE_STYLE_USAGE(.BOTH.,#379);
#254=FACE_OUTER_BOUND('',#380,.T.);
#255=PLANE('',#381);
#256=SURFACE_STYLE_USAGE(.BOTH.,#382);
#257=FACE_OUTER_BOUND('',#383,.T.);
#258=PLANE('',#384);
#259=SURFACE_STYLE_USAGE(.BOTH.,#385);
#260=FACE_OUTER_BOUND('',#386,.T.);
#261=PLANE('',#387);
#262=SURFACE_STYLE_USAGE(.BOTH.,#388);
#263=FACE_OUTER_BOUND('',#389,.T.);
#264=PLANE('',#390);
#265=SURFACE_STYLE_USAGE(.BOTH.,#391);
#266=FACE_OUTER_BOUND('',#392,.T.);
#267=PLANE('',#393);
#268=SURFACE_STYLE_USAGE(.BOTH.,#394);
#269=CLOSED_SHELL('',(#61,#63,#65,#67,#69,#71,#73,#75,#77,#79,#81,#83,#85,#87,#89,#91,#93,#95,#97,#99,#101,#103,#105,#107,#109,#111,#113,#115,#117,#119,#121,#123,#125,#127,#129,#131));
#270=PRODUCT_CONTEXT('',#47,'mechanical');
#271=PRODUCT_DEFINITION_FORMATION_WITH_SPECIFIED_SOURCE(' ','NONE',#134,.NOT_KNOWN.);
#272=CARTESIAN_POINT('',(0.0,0.0,0.0));
#273=DIRECTION('',(0.0,0.0,1.0));
#274=DIRECTION('',(1.0,0.0,0.0));
#275= (NAMED_UNIT(#142)LENGTH_UNIT()SI_UNIT(.MILLI.,.METRE.));
#276=SURFACE_SIDE_STYLE('',(#396));
#277=EDGE_LOOP('',(#397,#398,#399,#400));
#278=AXIS2_PLACEMENT_3D('',#401,#402,#403);
#279=SURFACE_SIDE_STYLE('',(#404));
#280=EDGE_LOOP('',(#405,#406,#407,#408));
#281=AXIS2_PLACEMENT_3D('',#409,#410,#411);
#282=SURFACE_SIDE_STYLE('',(#412));
#283=EDGE_LOOP('',(#413,#414,#415,#416));
#284=AXIS2_PLACEMENT_3D('',#417,#418,#419);
#285=SURFACE_SIDE_STYLE('',(#420));
#286=EDGE_LOOP('',(#421,#422,#423,#424));
#287=AXIS2_PLACEMENT_3D('',#425,#426,#427);
#288=SURFACE_SIDE_STYLE('',(#428));
#289=EDGE_LOOP('',(#429,#430,#431,#432));
#290=AXIS2_PLACEMENT_3D('',#433,#434,#435);
#291=SURFACE_SIDE_STYLE('',(#436));
#292=EDGE_LOOP('',(#437,#438,#439,#440));
#293=AXIS2_PLACEMENT_3D('',#441,#442,#443);
#294=SURFACE_SIDE_STYLE('',(#444));
#295=EDGE_LOOP('',(#445,#446,#447,#448,#449,#450,#451,#452));
#296=EDGE_LOOP('',(#453,#454,#455,#456,#457,#458));
#297=EDGE_LOOP('',(#459,#460,#461,#462,#463,#464));
#298=EDGE_LOOP('',(#465,#466,#467,#468,#469,#470));
#299=EDGE_LOOP('',(#471,#472,#473,#474));
#300=EDGE_LOOP('',(#475,#476,#477,#478));
#301=AXIS2_PLACEMENT_3D('',#479,#480,#481);
#302=SURFACE_SIDE_STYLE('',(#482));
#303=EDGE_LOOP('',(#483,#484,#485,#486));
#304=EDGE_LOOP('',(#487,#488,#489,#490,#491,#492));
#305=EDGE_LOOP('',(#493,#494,#495,#496,#497,#498,#499,#500));
#306=EDGE_LOOP('',(#501,#502,#503,#504,#505,#506));
#307=EDGE_LOOP('',(#507,#508,#509,#510,#511,#512));
#308=EDGE_LOOP('',(#513,#514,#515,#516));
#309=AXIS2_PLACEMENT_3D('',#517,#518,#519);
#310=SURFACE_SIDE_STYLE('',(#520));
#311=EDGE_LOOP('',(#521,#522,#523,#524));
#312=AXIS2_PLACEMENT_3D('',#525,#526,#527);
#313=SURFACE_SIDE_STYLE('',(#528));
#314=EDGE_LOOP('',(#529,#530,#531,#532));
#315=AXIS2_PLACEMENT_3D('',#533,#534,#535);
#316=SURFACE_SIDE_STYLE('',(#536));
#317=EDGE_LOOP('',(#537,#538,#539,#540));
#318=AXIS2_PLACEMENT_3D('',#541,#542,#543);
#319=SURFACE_SIDE_STYLE('',(#544));
#320=EDGE_LOOP('',(#545,#546,#547,#548));
#321=AXIS2_PLACEMENT_3D('',#549,#550,#551);
#322=SURFACE_SIDE_STYLE('',(#552));
#323=EDGE_LOOP('',(#553,#554,#555,#556));
#324=AXIS2_PLACEMENT_3D('',#557,#558,#559);
#325=SURFACE_SIDE_STYLE('',(#560));
#326=EDGE_LOOP('',(#561,#562,#563,#564));
#327=AXIS2_PLACEMENT_3D('',#565,#566,#567);
#328=SURFACE_SIDE_STYLE('',(#568));
#329=EDGE_LOOP('',(#569,#570,#571,#572));
#330=AXIS2_PLACEMENT_3D('',#573,#574,#575);
#331=SURFACE_SIDE_STYLE('',(#576));
#332=EDGE_LOOP('',(#577,#578,#579,#580));
#333=AXIS2_PLACEMENT_3D('',#581,#582,#583);
#334=SURFACE_SIDE_STYLE('',(#584));
#335=EDGE_LOOP('',(#585,#586,#587,#588));
#336=AXIS2_PLACEMENT_3D('',#589,#590,#591);
#337=SURFACE_SIDE_STYLE('',(#592));
#338=EDGE_LOOP('',(#593,#594,#595,#596));
#339=AXIS2_PLACEMENT_3D('',#597,#598,#599);
#340=SURFACE_SIDE_STYLE('',(#600));
#341=EDGE_LOOP('',(#601,#602,#603,#604));
#342=AXIS2_PLACEMENT_3D('',#605,#606,#607);
#343=SURFACE_SIDE_STYLE('',(#608));
#344=EDGE_LOOP('',(#609,#610,#611,#612));
#345=AXIS2_PLACEMENT_3D('',#613,#614,#615);
#346=SURFACE_SIDE_STYLE('',(#616));
#347=EDGE_LOOP('',(#617,#618,#619,#620));
#348=AXIS2_PLACEMENT_3D('',#621,#622,#623);
#349=SURFACE_SIDE_STYLE('',(#624));
#350=EDGE_LOOP('',(#625,#626,#627,#628));
#351=AXIS2_PLACEMENT_3D('',#629,#630,#631);
#352=SURFACE_SIDE_STYLE('',(#632));
#353=EDGE_LOOP('',(#633,#634,#635,#636));
#354=AXIS2_PLACEMENT_3D('',#637,#638,#639);
#355=SURFACE_SIDE_STYLE('',(#640));
#356=EDGE_LOOP('',(#641,#642,#643,#644));
#357=AXIS2_PLACEMENT_3D('',#645,#646,#647);
#358=SURFACE_SIDE_STYLE('',(#648));
#359=EDGE_LOOP('',(#649,#650,#651,#652));
#360=AXIS2_PLACEMENT_3D('',#653,#654,#655);
#361=SURFACE_SIDE_STYLE('',(#656));
#362=EDGE_LOOP('',(#657,#658,#659,#660));
#363=AXIS2_PLACEMENT_3D('',#661,#662,#663);
#364=SURFACE_SIDE_STYLE('',(#664));
#365=EDGE_LOOP('',(#665,#666,#667,#668));
#366=AXIS2_PLACEMENT_3D('',#669,#670,#671);
#367=SURFACE_SIDE_STYLE('',(#672));
#368=EDGE_LOOP('',(#673,#674,#675,#676));
#369=AXIS2_PLACEMENT_3D('',#677,#678,#679);
#370=SURFACE_SIDE_STYLE('',(#680));
#371=EDGE_LOOP('',(#681,#682,#683,#684));
#372=AXIS2_PLACEMENT_3D('',#685,#686,#687);
#373=SURFACE_SIDE_STYLE('',(#688));
#374=EDGE_LOOP('',(#689,#690,#691,#692));
#375=AXIS2_PLACEMENT_3D('',#693,#694,#695);
#376=SURFACE_SIDE_STYLE('',(#696));
#377=EDGE_LOOP('',(#697,#698,#699,#700));
#378=AXIS2_PLACEMENT_3D('',#701,#702,#703);
#379=SURFACE_SIDE_STYLE('',(#704));
#380=EDGE_LOOP('',(#705,#706,#707,#708));
#381=AXIS2_PLACEMENT_3D('',#709,#710,#711);
#382=SURFACE_SIDE_STYLE('',(#712));
#383=EDGE_LOOP('',(#713,#714,#715,#716));
#384=AXIS2_PLACEMENT_3D('',#717,#718,#719);
#385=SURFACE_SIDE_STYLE('',(#720));
#386=EDGE_LOOP('',(#721,#722,#723,#724));
#387=AXIS2_PLACEMENT_3D('',#725,#726,#727);
#388=SURFACE_SIDE_STYLE('',(#728));
#389=EDGE_LOOP('',(#729,#730,#731,#732));
#390=AXIS2_PLACEMENT_3D('',#733,#734,#735);
#391=SURFACE_SIDE_STYLE('',(#736));
#392=EDGE_LOOP('',(#737,#738,#739,#740));
#393=AXIS2_PLACEMENT_3D('',#741,#742,#743);
#394=SURFACE_SIDE_STYLE('',(#744));
#396=SURFACE_STYLE_FILL_AREA(#745);
#397=ORIENTED_EDGE('',*,*,#746,.F.);
#398=ORIENTED_EDGE('',*,*,#747,.T.);
#399=ORIENTED_EDGE('',*,*,#748,.T.);
#400=ORIENTED_EDGE('',*,*,#749,.F.);
#401=CARTESIAN_POINT('',(25.0,15.0,-6.0));
#402=DIRECTION('',(-0.0,0.0,1.0));
#403=DIRECTION('',(0.0,1.0,0.0));
#404=SURFACE_STYLE_FILL_AREA(#750);
#405=ORIENTED_EDGE('',*,*,#751,.F.);
#406=ORIENTED_EDGE('',*,*,#752,.T.);
#407=ORIENTED_EDGE('',*,*,#753,.T.);
#408=ORIENTED_EDGE('',*,*,#754,.F.);
#409=CARTESIAN_POINT('',(5.0,4.99999999999999,-6.0));
#410=DIRECTION('',(-0.0,0.0,1.0));
#411=DIRECTION('',(0.0,1.0,0.0));
#412=SURFACE_STYLE_FILL_AREA(#755);
#413=ORIENTED_EDGE('',*,*,#756,.F.);
#414=ORIENTED_EDGE('',*,*,#757,.T.);
#415=ORIENTED_EDGE('',*,*,#758,.T.);
#416=ORIENTED_EDGE('',*,*,#759,.F.);
#417=CARTESIAN_POINT('',(5.0,25.0,-6.0));
#418=DIRECTION('',(-0.0,0.0,1.0));
#419=DIRECTION('',(0.0,1.0,0.0));
#420=SURFACE_STYLE_FILL_AREA(#760);
#421=ORIENTED_EDGE('',*,*,#761,.T.);
#422=ORIENTED_EDGE('',*,*,#762,.T.);
#423=ORIENTED_EDGE('',*,*,#763,.F.);
#424=ORIENTED_EDGE('',*,*,#764,.F.);
#425=CARTESIAN_POINT('',(25.0,25.0,-6.0));
#426=DIRECTION('',(-0.0,0.0,1.0));
#427=DIRECTION('',(0.0,1.0,0.0));
#428=SURFACE_STYLE_FILL_AREA(#765);
#429=ORIENTED_EDGE('',*,*,#766,.T.);
#430=ORIENTED_EDGE('',*,*,#767,.T.);
#431=ORIENTED_EDGE('',*,*,#768,.F.);
#432=ORIENTED_EDGE('',*,*,#769,.F.);
#433=CARTESIAN_POINT('',(5.0,15.0,-6.0));
#434=DIRECTION('',(-0.0,0.0,1.0));
#435=DIRECTION('',(0.0,1.0,0.0));
#436=SURFACE_STYLE_FILL_AREA(#770);
#437=ORIENTED_EDGE('',*,*,#771,.T.);
#438=ORIENTED_EDGE('',*,*,#772,.T.);
#439=ORIENTED_EDGE('',*,*,#773,.F.);
#440=ORIENTED_EDGE('',*,*,#774,.F.);
#441=CARTESIAN_POINT('',(5.0,35.0,-6.0));
#442=DIRECTION('',(-0.0,0.0,1.0));
#443=DIRECTION('',(0.0,1.0,0.0));
#444=SURFACE_STYLE_FILL_AREA(#775);
#445=ORIENTED_EDGE('',*,*,#776,.F.);
#446=ORIENTED_EDGE('',*,*,#777,.F.);
#447=ORIENTED_EDGE('',*,*,#778,.T.);
#448=ORIENTED_EDGE('',*,*,#779,.F.);
#449=ORIENTED_EDGE('',*,*,#780,.F.);
#450=ORIENTED_EDGE('',*,*,#781,.T.);
#451=ORIENTED_EDGE('',*,*,#782,.T.);
#452=ORIENTED_EDGE('',*,*,#783,.T.);
#453=ORIENTED_EDGE('',*,*,#784,.F.);
#454=ORIENTED_EDGE('',*,*,#785,.F.);
#455=ORIENTED_EDGE('',*,*,#771,.F.);
#456=ORIENTED_EDGE('',*,*,#786,.F.);
#457=ORIENTED_EDGE('',*,*,#757,.F.);
#458=ORIENTED_EDGE('',*,*,#787,.F.);
#459=ORIENTED_EDGE('',*,*,#788,.F.);
#460=ORIENTED_EDGE('',*,*,#789,.F.);
#461=ORIENTED_EDGE('',*,*,#766,.F.);
#462=ORIENTED_EDGE('',*,*,#790,.F.);
#463=ORIENTED_EDGE('',*,*,#752,.F.);
#464=ORIENTED_EDGE('',*,*,#791,.F.);
#465=ORIENTED_EDGE('',*,*,#792,.F.);
#466=ORIENTED_EDGE('',*,*,#793,.F.);
#467=ORIENTED_EDGE('',*,*,#761,.F.);
#468=ORIENTED_EDGE('',*,*,#794,.F.);
#469=ORIENTED_EDGE('',*,*,#747,.F.);
#470=ORIENTED_EDGE('',*,*,#795,.F.);
#471=ORIENTED_EDGE('',*,*,#796,.F.);
#472=ORIENTED_EDGE('',*,*,#797,.F.);
#473=ORIENTED_EDGE('',*,*,#798,.F.);
#474=ORIENTED_EDGE('',*,*,#799,.F.);
#475=ORIENTED_EDGE('',*,*,#800,.F.);
#476=ORIENTED_EDGE('',*,*,#801,.F.);
#477=ORIENTED_EDGE('',*,*,#802,.F.);
#478=ORIENTED_EDGE('',*,*,#803,.F.);
#479=CARTESIAN_POINT('',(70.0,20.0,-6.0));
#480=DIRECTION('',(0.0,0.0,-1.0));
#481=DIRECTION('',(0.0,-1.0,0.0));
#482=SURFACE_STYLE_FILL_AREA(#804);
#483=ORIENTED_EDGE('',*,*,#805,.T.);
#484=ORIENTED_EDGE('',*,*,#806,.T.);
#485=ORIENTED_EDGE('',*,*,#807,.T.);
#486=ORIENTED_EDGE('',*,*,#808,.T.);
#487=ORIENTED_EDGE('',*,*,#768,.T.);
#488=ORIENTED_EDGE('',*,*,#809,.T.);
#489=ORIENTED_EDGE('',*,*,#810,.T.);
#490=ORIENTED_EDGE('',*,*,#811,.T.);
#491=ORIENTED_EDGE('',*,*,#754,.T.);
#492=ORIENTED_EDGE('',*,*,#812,.T.);
#493=ORIENTED_EDGE('',*,*,#813,.T.);
#494=ORIENTED_EDGE('',*,*,#814,.T.);
#495=ORIENTED_EDGE('',*,*,#815,.F.);
#496=ORIENTED_EDGE('',*,*,#816,.F.);
#497=ORIENTED_EDGE('',*,*,#817,.F.);
#498=ORIENTED_EDGE('',*,*,#818,.T.);
#499=ORIENTED_EDGE('',*,*,#819,.T.);
#500=ORIENTED_EDGE('',*,*,#820,.F.);
#501=ORIENTED_EDGE('',*,*,#773,.T.);
#502=ORIENTED_EDGE('',*,*,#821,.T.);
#503=ORIENTED_EDGE('',*,*,#822,.T.);
#504=ORIENTED_EDGE('',*,*,#823,.T.);
#505=ORIENTED_EDGE('',*,*,#759,.T.);
#506=ORIENTED_EDGE('',*,*,#824,.T.);
#507=ORIENTED_EDGE('',*,*,#763,.T.);
#508=ORIENTED_EDGE('',*,*,#825,.T.);
#509=ORIENTED_EDGE('',*,*,#826,.T.);
#510=ORIENTED_EDGE('',*,*,#827,.T.);
#511=ORIENTED_EDGE('',*,*,#749,.T.);
#512=ORIENTED_EDGE('',*,*,#828,.T.);
#513=ORIENTED_EDGE('',*,*,#829,.T.);
#514=ORIENTED_EDGE('',*,*,#830,.T.);
#515=ORIENTED_EDGE('',*,*,#831,.T.);
#516=ORIENTED_EDGE('',*,*,#832,.T.);
#517=CARTESIAN_POINT('',(70.0,20.0,0.0));
#518=DIRECTION('',(0.0,0.0,-1.0));
#519=DIRECTION('',(0.0,-1.0,0.0));
#520=SURFACE_STYLE_FILL_AREA(#833);
#521=ORIENTED_EDGE('',*,*,#781,.F.);
#522=ORIENTED_EDGE('',*,*,#834,.F.);
#523=ORIENTED_EDGE('',*,*,#817,.T.);
#524=ORIENTED_EDGE('',*,*,#835,.F.);
#525=CARTESIAN_POINT('',(-1.4210854715202E-14,0.0,-6.0));
#526=DIRECTION('',(1.48690583655155E-16,1.0,0.0));
#527=DIRECTION('',(1.0,-1.48690583655155E-16,0.0));
#528=SURFACE_STYLE_FILL_AREA(#836);
#529=ORIENTED_EDGE('',*,*,#816,.T.);
#530=ORIENTED_EDGE('',*,*,#837,.F.);
#531=ORIENTED_EDGE('',*,*,#782,.F.);
#532=ORIENTED_EDGE('',*,*,#835,.T.);
#533=CARTESIAN_POINT('',(-1.4210854715202E-14,40.0,-6.0));
#534=DIRECTION('',(1.0,0.0,0.0));
#535=DIRECTION('',(0.0,-0.0,1.0));
#536=SURFACE_STYLE_FILL_AREA(#838);
#537=ORIENTED_EDGE('',*,*,#815,.T.);
#538=ORIENTED_EDGE('',*,*,#839,.T.);
#539=ORIENTED_EDGE('',*,*,#783,.F.);
#540=ORIENTED_EDGE('',*,*,#837,.T.);
#541=CARTESIAN_POINT('',(-1.4210854715202E-14,40.0,-6.0));
#542=DIRECTION('',(-1.23908819712629E-16,-1.0,0.0));
#543=DIRECTION('',(-1.0,1.23908819712629E-16,0.0));
#544=SURFACE_STYLE_FILL_AREA(#840);
#545=ORIENTED_EDGE('',*,*,#778,.F.);
#546=ORIENTED_EDGE('',*,*,#841,.T.);
#547=ORIENTED_EDGE('',*,*,#820,.T.);
#548=ORIENTED_EDGE('',*,*,#842,.T.);
#549=CARTESIAN_POINT('',(140.0,40.0,-6.0));
#550=DIRECTION('',(-1.0,0.0,-0.0));
#551=DIRECTION('',(0.0,0.0,-1.0));
#552=SURFACE_STYLE_FILL_AREA(#843);
#553=ORIENTED_EDGE('',*,*,#772,.F.);
#554=ORIENTED_EDGE('',*,*,#785,.T.);
#555=ORIENTED_EDGE('',*,*,#844,.T.);
#556=ORIENTED_EDGE('',*,*,#821,.F.);
#557=CARTESIAN_POINT('',(5.0,35.0,-6.0));
#558=DIRECTION('',(-0.0,0.0,1.0));
#559=DIRECTION('',(0.0,1.0,0.0));
#560=SURFACE_STYLE_FILL_AREA(#845);
#561=ORIENTED_EDGE('',*,*,#822,.F.);
#562=ORIENTED_EDGE('',*,*,#844,.F.);
#563=ORIENTED_EDGE('',*,*,#784,.T.);
#564=ORIENTED_EDGE('',*,*,#846,.T.);
#565=CARTESIAN_POINT('',(7.1,35.0,-6.0));
#566=DIRECTION('',(-1.0,0.0,-0.0));
#567=DIRECTION('',(0.0,0.0,-1.0));
#568=SURFACE_STYLE_FILL_AREA(#847);
#569=ORIENTED_EDGE('',*,*,#756,.T.);
#570=ORIENTED_EDGE('',*,*,#823,.F.);
#571=ORIENTED_EDGE('',*,*,#846,.F.);
#572=ORIENTED_EDGE('',*,*,#787,.T.);
#573=CARTESIAN_POINT('',(5.0,25.0,-6.0));
#574=DIRECTION('',(-0.0,0.0,1.0));
#575=DIRECTION('',(0.0,1.0,0.0));
#576=SURFACE_STYLE_FILL_AREA(#848);
#577=ORIENTED_EDGE('',*,*,#824,.F.);
#578=ORIENTED_EDGE('',*,*,#758,.F.);
#579=ORIENTED_EDGE('',*,*,#786,.T.);
#580=ORIENTED_EDGE('',*,*,#774,.T.);
#581=CARTESIAN_POINT('',(2.89999999999999,35.0,-6.0));
#582=DIRECTION('',(1.0,0.0,0.0));
#583=DIRECTION('',(0.0,-0.0,1.0));
#584=SURFACE_STYLE_FILL_AREA(#849);
#585=ORIENTED_EDGE('',*,*,#767,.F.);
#586=ORIENTED_EDGE('',*,*,#789,.T.);
#587=ORIENTED_EDGE('',*,*,#850,.T.);
#588=ORIENTED_EDGE('',*,*,#809,.F.);
#589=CARTESIAN_POINT('',(5.0,15.0,-6.0));
#590=DIRECTION('',(-0.0,0.0,1.0));
#591=DIRECTION('',(0.0,1.0,0.0));
#592=SURFACE_STYLE_FILL_AREA(#851);
#593=ORIENTED_EDGE('',*,*,#810,.F.);
#594=ORIENTED_EDGE('',*,*,#850,.F.);
#595=ORIENTED_EDGE('',*,*,#788,.T.);
#596=ORIENTED_EDGE('',*,*,#852,.T.);
#597=CARTESIAN_POINT('',(7.1,15.0,-6.0));
#598=DIRECTION('',(-1.0,0.0,-0.0));
#599=DIRECTION('',(0.0,0.0,-1.0));
#600=SURFACE_STYLE_FILL_AREA(#853);
#601=ORIENTED_EDGE('',*,*,#751,.T.);
#602=ORIENTED_EDGE('',*,*,#811,.F.);
#603=ORIENTED_EDGE('',*,*,#852,.F.);
#604=ORIENTED_EDGE('',*,*,#791,.T.);
#605=CARTESIAN_POINT('',(5.0,4.99999999999999,-6.0));
#606=DIRECTION('',(-0.0,0.0,1.0));
#607=DIRECTION('',(0.0,1.0,0.0));
#608=SURFACE_STYLE_FILL_AREA(#854);
#609=ORIENTED_EDGE('',*,*,#812,.F.);
#610=ORIENTED_EDGE('',*,*,#753,.F.);
#611=ORIENTED_EDGE('',*,*,#790,.T.);
#612=ORIENTED_EDGE('',*,*,#769,.T.);
#613=CARTESIAN_POINT('',(2.89999999999999,15.0,-6.0));
#614=DIRECTION('',(1.0,0.0,0.0));
#615=DIRECTION('',(0.0,-0.0,1.0));
#616=SURFACE_STYLE_FILL_AREA(#855);
#617=ORIENTED_EDGE('',*,*,#762,.F.);
#618=ORIENTED_EDGE('',*,*,#793,.T.);
#619=ORIENTED_EDGE('',*,*,#856,.T.);
#620=ORIENTED_EDGE('',*,*,#825,.F.);
#621=CARTESIAN_POINT('',(25.0,25.0,-6.0));
#622=DIRECTION('',(-0.0,0.0,1.0));
#623=DIRECTION('',(0.0,1.0,0.0));
#624=SURFACE_STYLE_FILL_AREA(#857);
#625=ORIENTED_EDGE('',*,*,#826,.F.);
#626=ORIENTED_EDGE('',*,*,#856,.F.);
#627=ORIENTED_EDGE('',*,*,#792,.T.);
#628=ORIENTED_EDGE('',*,*,#858,.T.);
#629=CARTESIAN_POINT('',(27.1,25.0,-6.0));
#630=DIRECTION('',(-1.0,0.0,-0.0));
#631=DIRECTION('',(0.0,0.0,-1.0));
#632=SURFACE_STYLE_FILL_AREA(#859);
#633=ORIENTED_EDGE('',*,*,#746,.T.);
#634=ORIENTED_EDGE('',*,*,#827,.F.);
#635=ORIENTED_EDGE('',*,*,#858,.F.);
#636=ORIENTED_EDGE('',*,*,#795,.T.);
#637=CARTESIAN_POINT('',(25.0,15.0,-6.0));
#638=DIRECTION('',(-0.0,0.0,1.0));
#639=DIRECTION('',(0.0,1.0,0.0));
#640=SURFACE_STYLE_FILL_AREA(#860);
#641=ORIENTED_EDGE('',*,*,#828,.F.);
#642=ORIENTED_EDGE('',*,*,#748,.F.);
#643=ORIENTED_EDGE('',*,*,#794,.T.);
#644=ORIENTED_EDGE('',*,*,#764,.T.);
#645=CARTESIAN_POINT('',(22.9,25.0,-6.0));
#646=DIRECTION('',(1.0,0.0,0.0));
#647=DIRECTION('',(0.0,-0.0,1.0));
#648=SURFACE_STYLE_FILL_AREA(#861);
#649=ORIENTED_EDGE('',*,*,#805,.F.);
#650=ORIENTED_EDGE('',*,*,#862,.F.);
#651=ORIENTED_EDGE('',*,*,#797,.T.);
#652=ORIENTED_EDGE('',*,*,#863,.T.);
#653=CARTESIAN_POINT('',(70.5,20.0,-6.0));
#654=DIRECTION('',(-0.0,0.0,1.0));
#655=DIRECTION('',(0.0,1.0,0.0));
#656=SURFACE_STYLE_FILL_AREA(#864);
#657=ORIENTED_EDGE('',*,*,#806,.F.);
#658=ORIENTED_EDGE('',*,*,#863,.F.);
#659=ORIENTED_EDGE('',*,*,#796,.T.);
#660=ORIENTED_EDGE('',*,*,#865,.T.);
#661=CARTESIAN_POINT('',(70.5,17.9,-6.0));
#662=DIRECTION('',(1.73472347597681E-16,1.0,0.0));
#663=DIRECTION('',(1.0,-1.73472347597681E-16,0.0));
#664=SURFACE_STYLE_FILL_AREA(#866);
#665=ORIENTED_EDGE('',*,*,#807,.F.);
#666=ORIENTED_EDGE('',*,*,#865,.F.);
#667=ORIENTED_EDGE('',*,*,#799,.T.);
#668=ORIENTED_EDGE('',*,*,#867,.T.);
#669=CARTESIAN_POINT('',(60.5,20.0,-6.0));
#670=DIRECTION('',(-0.0,0.0,1.0));
#671=DIRECTION('',(0.0,1.0,0.0));
#672=SURFACE_STYLE_FILL_AREA(#868);
#673=ORIENTED_EDGE('',*,*,#808,.F.);
#674=ORIENTED_EDGE('',*,*,#867,.F.);
#675=ORIENTED_EDGE('',*,*,#798,.T.);
#676=ORIENTED_EDGE('',*,*,#862,.T.);
#677=CARTESIAN_POINT('',(70.5,22.1,-6.0));
#678=DIRECTION('',(-1.73472347597681E-16,-1.0,0.0));
#679=DIRECTION('',(-1.0,1.73472347597681E-16,0.0));
#680=SURFACE_STYLE_FILL_AREA(#869);
#681=ORIENTED_EDGE('',*,*,#829,.F.);
#682=ORIENTED_EDGE('',*,*,#870,.F.);
#683=ORIENTED_EDGE('',*,*,#801,.T.);
#684=ORIENTED_EDGE('',*,*,#871,.T.);
#685=CARTESIAN_POINT('',(132.5,20.0,-6.0));
#686=DIRECTION('',(-0.0,0.0,1.0));
#687=DIRECTION('',(0.0,1.0,0.0));
#688=SURFACE_STYLE_FILL_AREA(#872);
#689=ORIENTED_EDGE('',*,*,#830,.F.);
#690=ORIENTED_EDGE('',*,*,#871,.F.);
#691=ORIENTED_EDGE('',*,*,#800,.T.);
#692=ORIENTED_EDGE('',*,*,#873,.T.);
#693=CARTESIAN_POINT('',(132.5,17.9,-6.0));
#694=DIRECTION('',(1.73472347597681E-16,1.0,0.0));
#695=DIRECTION('',(1.0,-1.73472347597681E-16,0.0));
#696=SURFACE_STYLE_FILL_AREA(#874);
#697=ORIENTED_EDGE('',*,*,#831,.F.);
#698=ORIENTED_EDGE('',*,*,#873,.F.);
#699=ORIENTED_EDGE('',*,*,#803,.T.);
#700=ORIENTED_EDGE('',*,*,#875,.T.);
#701=CARTESIAN_POINT('',(122.5,20.0,-6.0));
#702=DIRECTION('',(-0.0,0.0,1.0));
#703=DIRECTION('',(0.0,1.0,0.0));
#704=SURFACE_STYLE_FILL_AREA(#876);
#705=ORIENTED_EDGE('',*,*,#832,.F.);
#706=ORIENTED_EDGE('',*,*,#875,.F.);
#707=ORIENTED_EDGE('',*,*,#802,.T.);
#708=ORIENTED_EDGE('',*,*,#870,.T.);
#709=CARTESIAN_POINT('',(132.5,22.1,-6.0));
#710=DIRECTION('',(-1.73472347597681E-16,-1.0,0.0));
#711=DIRECTION('',(-1.0,1.73472347597681E-16,0.0));
#712=SURFACE_STYLE_FILL_AREA(#877);
#713=ORIENTED_EDGE('',*,*,#834,.T.);
#714=ORIENTED_EDGE('',*,*,#780,.T.);
#715=ORIENTED_EDGE('',*,*,#878,.F.);
#716=ORIENTED_EDGE('',*,*,#818,.F.);
#717=CARTESIAN_POINT('',(30.0,-2.1316282072803E-14,4.0));
#718=DIRECTION('',(-1.0,0.0,-0.0));
#719=DIRECTION('',(0.0,0.0,-1.0));
#720=SURFACE_STYLE_FILL_AREA(#879);
#721=ORIENTED_EDGE('',*,*,#878,.T.);
#722=ORIENTED_EDGE('',*,*,#779,.T.);
#723=ORIENTED_EDGE('',*,*,#842,.F.);
#724=ORIENTED_EDGE('',*,*,#819,.F.);
#725=CARTESIAN_POINT('',(140.0,3.49999999999998,4.0));
#726=DIRECTION('',(0.0,1.0,0.0));
#727=DIRECTION('',(0.0,0.0,-1.0));
#728=SURFACE_STYLE_FILL_AREA(#880);
#729=ORIENTED_EDGE('',*,*,#881,.T.);
#730=ORIENTED_EDGE('',*,*,#776,.T.);
#731=ORIENTED_EDGE('',*,*,#839,.F.);
#732=ORIENTED_EDGE('',*,*,#814,.F.);
#733=CARTESIAN_POINT('',(30.0,40.0,4.0));
#734=DIRECTION('',(-1.0,0.0,0.0));
#735=DIRECTION('',(0.0,0.0,-1.0));
#736=SURFACE_STYLE_FILL_AREA(#882);
#737=ORIENTED_EDGE('',*,*,#841,.F.);
#738=ORIENTED_EDGE('',*,*,#777,.T.);
#739=ORIENTED_EDGE('',*,*,#881,.F.);
#740=ORIENTED_EDGE('',*,*,#813,.F.);
#741=CARTESIAN_POINT('',(140.0,36.5,4.0));
#742=DIRECTION('',(0.0,-1.0,0.0));
#743=DIRECTION('',(0.0,0.0,1.0));
#744=SURFACE_STYLE_FILL_AREA(#883);
#745=FILL_AREA_STYLE('',(#884));
#746=EDGE_CURVE('',#885,#886,#887,.T.);
#747=EDGE_CURVE('',#885,#888,#889,.T.);
#748=EDGE_CURVE('',#888,#890,#891,.T.);
#749=EDGE_CURVE('',#886,#890,#892,.T.);
#750=FILL_AREA_STYLE('',(#893));
#751=EDGE_CURVE('',#894,#895,#896,.T.);
#752=EDGE_CURVE('',#894,#897,#898,.T.);
#753=EDGE_CURVE('',#897,#899,#900,.T.);
#754=EDGE_CURVE('',#895,#899,#901,.T.);
#755=FILL_AREA_STYLE('',(#902));
#756=EDGE_CURVE('',#903,#904,#905,.T.);
#757=EDGE_CURVE('',#903,#906,#907,.T.);
#758=EDGE_CURVE('',#906,#908,#909,.T.);
#759=EDGE_CURVE('',#904,#908,#910,.T.);
#760=FILL_AREA_STYLE('',(#911));
#761=EDGE_CURVE('',#912,#913,#914,.T.);
#762=EDGE_CURVE('',#913,#915,#916,.T.);
#763=EDGE_CURVE('',#917,#915,#918,.T.);
#764=EDGE_CURVE('',#912,#917,#919,.T.);
#765=FILL_AREA_STYLE('',(#920));
#766=EDGE_CURVE('',#921,#922,#923,.T.);
#767=EDGE_CURVE('',#922,#924,#925,.T.);
#768=EDGE_CURVE('',#926,#924,#927,.T.);
#769=EDGE_CURVE('',#921,#926,#928,.T.);
#770=FILL_AREA_STYLE('',(#929));
#771=EDGE_CURVE('',#930,#931,#932,.T.);
#772=EDGE_CURVE('',#931,#933,#934,.T.);
#773=EDGE_CURVE('',#935,#933,#936,.T.);
#774=EDGE_CURVE('',#930,#935,#937,.T.);
#775=FILL_AREA_STYLE('',(#938));
#776=EDGE_CURVE('',#939,#940,#941,.T.);
#777=EDGE_CURVE('',#942,#939,#943,.T.);
#778=EDGE_CURVE('',#942,#944,#945,.T.);
#779=EDGE_CURVE('',#946,#944,#947,.T.);
#780=EDGE_CURVE('',#948,#946,#949,.T.);
#781=EDGE_CURVE('',#948,#950,#951,.T.);
#782=EDGE_CURVE('',#950,#952,#953,.T.);
#783=EDGE_CURVE('',#952,#940,#954,.T.);
#784=EDGE_CURVE('',#955,#956,#957,.T.);
#785=EDGE_CURVE('',#931,#955,#958,.T.);
#786=EDGE_CURVE('',#906,#930,#959,.T.);
#787=EDGE_CURVE('',#956,#903,#960,.T.);
#788=EDGE_CURVE('',#961,#962,#963,.T.);
#789=EDGE_CURVE('',#922,#961,#964,.T.);
#790=EDGE_CURVE('',#897,#921,#965,.T.);
#791=EDGE_CURVE('',#962,#894,#966,.T.);
#792=EDGE_CURVE('',#967,#968,#969,.T.);
#793=EDGE_CURVE('',#913,#967,#970,.T.);
#794=EDGE_CURVE('',#888,#912,#971,.T.);
#795=EDGE_CURVE('',#968,#885,#972,.T.);
#796=EDGE_CURVE('',#973,#974,#975,.T.);
#797=EDGE_CURVE('',#976,#973,#977,.T.);
#798=EDGE_CURVE('',#978,#976,#979,.T.);
#799=EDGE_CURVE('',#974,#978,#980,.T.);
#800=EDGE_CURVE('',#981,#982,#983,.T.);
#801=EDGE_CURVE('',#984,#981,#985,.T.);
#802=EDGE_CURVE('',#986,#984,#987,.T.);
#803=EDGE_CURVE('',#982,#986,#988,.T.);
#804=FILL_AREA_STYLE('',(#989));
#805=EDGE_CURVE('',#990,#991,#992,.T.);
#806=EDGE_CURVE('',#991,#993,#994,.T.);
#807=EDGE_CURVE('',#993,#995,#996,.T.);
#808=EDGE_CURVE('',#995,#990,#997,.T.);
#809=EDGE_CURVE('',#924,#998,#999,.T.);
#810=EDGE_CURVE('',#998,#1000,#1001,.T.);
#811=EDGE_CURVE('',#1000,#895,#1002,.T.);
#812=EDGE_CURVE('',#899,#926,#1003,.T.);
#813=EDGE_CURVE('',#1004,#1005,#1006,.T.);
#814=EDGE_CURVE('',#1005,#1007,#1008,.T.);
#815=EDGE_CURVE('',#1009,#1007,#1010,.T.);
#816=EDGE_CURVE('',#1011,#1009,#1012,.T.);
#817=EDGE_CURVE('',#1013,#1011,#1014,.T.);
#818=EDGE_CURVE('',#1013,#1015,#1016,.T.);
#819=EDGE_CURVE('',#1015,#1017,#1018,.T.);
#820=EDGE_CURVE('',#1004,#1017,#1019,.T.);
#821=EDGE_CURVE('',#933,#1020,#1021,.T.);
#822=EDGE_CURVE('',#1020,#1022,#1023,.T.);
#823=EDGE_CURVE('',#1022,#904,#1024,.T.);
#824=EDGE_CURVE('',#908,#935,#1025,.T.);
#825=EDGE_CURVE('',#915,#1026,#1027,.T.);
#826=EDGE_CURVE('',#1026,#1028,#1029,.T.);
#827=EDGE_CURVE('',#1028,#886,#1030,.T.);
#828=EDGE_CURVE('',#890,#917,#1031,.T.);
#829=EDGE_CURVE('',#1032,#1033,#1034,.T.);
#830=EDGE_CURVE('',#1033,#1035,#1036,.T.);
#831=EDGE_CURVE('',#1035,#1037,#1038,.T.);
#832=EDGE_CURVE('',#1037,#1032,#1039,.T.);
#833=FILL_AREA_STYLE('',(#1040));
#834=EDGE_CURVE('',#1013,#948,#1041,.T.);
#835=EDGE_CURVE('',#950,#1011,#1042,.T.);
#836=FILL_AREA_STYLE('',(#1043));
#837=EDGE_CURVE('',#952,#1009,#1044,.T.);
#838=FILL_AREA_STYLE('',(#1045));
#839=EDGE_CURVE('',#1007,#940,#1046,.T.);
#840=FILL_AREA_STYLE('',(#1047));
#841=EDGE_CURVE('',#942,#1004,#1048,.T.);
#842=EDGE_CURVE('',#1017,#944,#1049,.T.);
#843=FILL_AREA_STYLE('',(#1050));
#844=EDGE_CURVE('',#955,#1020,#1051,.T.);
#845=FILL_AREA_STYLE('',(#1052));
#846=EDGE_CURVE('',#956,#1022,#1053,.T.);
#847=FILL_AREA_STYLE('',(#1054));
#848=FILL_AREA_STYLE('',(#1055));
#849=FILL_AREA_STYLE('',(#1056));
#850=EDGE_CURVE('',#961,#998,#1057,.T.);
#851=FILL_AREA_STYLE('',(#1058));
#852=EDGE_CURVE('',#962,#1000,#1059,.T.);
#853=FILL_AREA_STYLE('',(#1060));
#854=FILL_AREA_STYLE('',(#1061));
#855=FILL_AREA_STYLE('',(#1062));
#856=EDGE_CURVE('',#967,#1026,#1063,.T.);
#857=FILL_AREA_STYLE('',(#1064));
#858=EDGE_CURVE('',#968,#1028,#1065,.T.);
#859=FILL_AREA_STYLE('',(#1066));
#860=FILL_AREA_STYLE('',(#1067));
#861=FILL_AREA_STYLE('',(#1068));
#862=EDGE_CURVE('',#976,#990,#1069,.T.);
#863=EDGE_CURVE('',#973,#991,#1070,.T.);
#864=FILL_AREA_STYLE('',(#1071));
#865=EDGE_CURVE('',#974,#993,#1072,.T.);
#866=FILL_AREA_STYLE('',(#1073));
#867=EDGE_CURVE('',#978,#995,#1074,.T.);
#868=FILL_AREA_STYLE('',(#1075));
#869=FILL_AREA_STYLE('',(#1076));
#870=EDGE_CURVE('',#984,#1032,#1077,.T.);
#871=EDGE_CURVE('',#981,#1033,#1078,.T.);
#872=FILL_AREA_STYLE('',(#1079));
#873=EDGE_CURVE('',#982,#1035,#1080,.T.);
#874=FILL_AREA_STYLE('',(#1081));
#875=EDGE_CURVE('',#986,#1037,#1082,.T.);
#876=FILL_AREA_STYLE('',(#1083));
#877=FILL_AREA_STYLE('',(#1084));
#878=EDGE_CURVE('',#1015,#946,#1085,.T.);
#879=FILL_AREA_STYLE('',(#1086));
#880=FILL_AREA_STYLE('',(#1087));
#881=EDGE_CURVE('',#1005,#939,#1088,.T.);
#882=FILL_AREA_STYLE('',(#1089));
#883=FILL_AREA_STYLE('',(#1090));
#884=FILL_AREA_STYLE_COLOUR('',#1091);
#885=VERTEX_POINT('',#1092);
#886=VERTEX_POINT('',#1093);
#887=LINE('',#1094,#1095);
#888=VERTEX_POINT('',#1096);
#889=CIRCLE('',#1097,2.1);
#890=VERTEX_POINT('',#1098);
#891=LINE('',#1099,#1100);
#892=CIRCLE('',#1101,2.1);
#893=FILL_AREA_STYLE_COLOUR('',#1102);
#894=VERTEX_POINT('',#1103);
#895=VERTEX_POINT('',#1104);
#896=LINE('',#1105,#1106);
#897=VERTEX_POINT('',#1107);
#898=CIRCLE('',#1108,2.1);
#899=VERTEX_POINT('',#1109);
#900=LINE('',#1110,#1111);
#901=CIRCLE('',#1112,2.1);
#902=FILL_AREA_STYLE_COLOUR('',#1113);
#903=VERTEX_POINT('',#1114);
#904=VERTEX_POINT('',#1115);
#905=LINE('',#1116,#1117);
#906=VERTEX_POINT('',#1118);
#907=CIRCLE('',#1119,2.1);
#908=VERTEX_POINT('',#1120);
#909=LINE('',#1121,#1122);
#910=CIRCLE('',#1123,2.1);
#911=FILL_AREA_STYLE_COLOUR('',#1124);
#912=VERTEX_POINT('',#1125);
#913=VERTEX_POINT('',#1126);
#914=CIRCLE('',#1127,2.1);
#915=VERTEX_POINT('',#1128);
#916=LINE('',#1129,#1130);
#917=VERTEX_POINT('',#1131);
#918=CIRCLE('',#1132,2.1);
#919=LINE('',#1133,#1134);
#920=FILL_AREA_STYLE_COLOUR('',#1135);
#921=VERTEX_POINT('',#1136);
#922=VERTEX_POINT('',#1137);
#923=CIRCLE('',#1138,2.1);
#924=VERTEX_POINT('',#1139);
#925=LINE('',#1140,#1141);
#926=VERTEX_POINT('',#1142);
#927=CIRCLE('',#1143,2.1);
#928=LINE('',#1144,#1145);
#929=FILL_AREA_STYLE_COLOUR('',#1146);
#930=VERTEX_POINT('',#1147);
#931=VERTEX_POINT('',#1148);
#932=CIRCLE('',#1149,2.1);
#933=VERTEX_POINT('',#1150);
#934=LINE('',#1151,#1152);
#935=VERTEX_POINT('',#1153);
#936=CIRCLE('',#1154,2.1);
#937=LINE('',#1155,#1156);
#938=FILL_AREA_STYLE_COLOUR('',#1157);
#939=VERTEX_POINT('',#1158);
#940=VERTEX_POINT('',#1159);
#941=LINE('',#1160,#1161);
#942=VERTEX_POINT('',#1162);
#943=LINE('',#1163,#1164);
#944=VERTEX_POINT('',#1165);
#945=LINE('',#1166,#1167);
#946=VERTEX_POINT('',#1168);
#947=LINE('',#1169,#1170);
#948=VERTEX_POINT('',#1171);
#949=LINE('',#1172,#1173);
#950=VERTEX_POINT('',#1174);
#951=LINE('',#1175,#1176);
#952=VERTEX_POINT('',#1177);
#953=LINE('',#1178,#1179);
#954=LINE('',#1180,#1181);
#955=VERTEX_POINT('',#1182);
#956=VERTEX_POINT('',#1183);
#957=LINE('',#1184,#1185);
#958=CIRCLE('',#1186,2.1);
#959=LINE('',#1187,#1188);
#960=CIRCLE('',#1189,2.1);
#961=VERTEX_POINT('',#1190);
#962=VERTEX_POINT('',#1191);
#963=LINE('',#1192,#1193);
#964=CIRCLE('',#1194,2.1);
#965=LINE('',#1195,#1196);
#966=CIRCLE('',#1197,2.1);
#967=VERTEX_POINT('',#1198);
#968=VERTEX_POINT('',#1199);
#969=LINE('',#1200,#1201);
#970=CIRCLE('',#1202,2.1);
#971=LINE('',#1203,#1204);
#972=CIRCLE('',#1205,2.1);
#973=VERTEX_POINT('',#1206);
#974=VERTEX_POINT('',#1207);
#975=LINE('',#1208,#1209);
#976=VERTEX_POINT('',#1210);
#977=CIRCLE('',#1211,2.1);
#978=VERTEX_POINT('',#1212);
#979=LINE('',#1213,#1214);
#980=CIRCLE('',#1215,2.1);
#981=VERTEX_POINT('',#1216);
#982=VERTEX_POINT('',#1217);
#983=LINE('',#1218,#1219);
#984=VERTEX_POINT('',#1220);
#985=CIRCLE('',#1221,2.1);
#986=VERTEX_POINT('',#1222);
#987=LINE('',#1223,#1224);
#988=CIRCLE('',#1225,2.1);
#989=FILL_AREA_STYLE_COLOUR('',#1226);
#990=VERTEX_POINT('',#1227);
#991=VERTEX_POINT('',#1228);
#992=CIRCLE('',#1229,2.1);
#993=VERTEX_POINT('',#1230);
#994=LINE('',#1231,#1232);
#995=VERTEX_POINT('',#1233);
#996=CIRCLE('',#1234,2.1);
#997=LINE('',#1235,#1236);
#998=VERTEX_POINT('',#1237);
#999=CIRCLE('',#1238,2.1);
#1000=VERTEX_POINT('',#1239);
#1001=LINE('',#1240,#1241);
#1002=CIRCLE('',#1242,2.1);
#1003=LINE('',#1243,#1244);
#1004=VERTEX_POINT('',#1245);
#1005=VERTEX_POINT('',#1246);
#1006=LINE('',#1247,#1248);
#1007=VERTEX_POINT('',#1249);
#1008=LINE('',#1250,#1251);
#1009=VERTEX_POINT('',#1252);
#1010=LINE('',#1253,#1254);
#1011=VERTEX_POINT('',#1255);
#1012=LINE('',#1256,#1257);
#1013=VERTEX_POINT('',#1258);
#1014=LINE('',#1259,#1260);
#1015=VERTEX_POINT('',#1261);
#1016=LINE('',#1262,#1263);
#1017=VERTEX_POINT('',#1264);
#1018=LINE('',#1265,#1266);
#1019=LINE('',#1267,#1268);
#1020=VERTEX_POINT('',#1269);
#1021=CIRCLE('',#1270,2.1);
#1022=VERTEX_POINT('',#1271);
#1023=LINE('',#1272,#1273);
#1024=CIRCLE('',#1274,2.1);
#1025=LINE('',#1275,#1276);
#1026=VERTEX_POINT('',#1277);
#1027=CIRCLE('',#1278,2.1);
#1028=VERTEX_POINT('',#1279);
#1029=LINE('',#1280,#1281);
#1030=CIRCLE('',#1282,2.1);
#1031=LINE('',#1283,#1284);
#1032=VERTEX_POINT('',#1285);
#1033=VERTEX_POINT('',#1286);
#1034=CIRCLE('',#1287,2.1);
#1035=VERTEX_POINT('',#1288);
#1036=LINE('',#1289,#1290);
#1037=VERTEX_POINT('',#1291);
#1038=CIRCLE('',#1292,2.1);
#1039=LINE('',#1293,#1294);
#1040=FILL_AREA_STYLE_COLOUR('',#1295);
#1041=LINE('',#1296,#1297);
#1042=LINE('',#1298,#1299);
#1043=FILL_AREA_STYLE_COLOUR('',#1300);
#1044=LINE('',#1301,#1302);
#1045=FILL_AREA_STYLE_COLOUR('',#1303);
#1046=LINE('',#1304,#1305);
#1047=FILL_AREA_STYLE_COLOUR('',#1306);
#1048=LINE('',#1307,#1308);
#1049=LINE('',#1309,#1310);
#1050=FILL_AREA_STYLE_COLOUR('',#1311);
#1051=LINE('',#1312,#1313);
#1052=FILL_AREA_STYLE_COLOUR('',#1314);
#1053=LINE('',#1315,#1316);
#1054=FILL_AREA_STYLE_COLOUR('',#1317);
#1055=FILL_AREA_STYLE_COLOUR('',#1318);
#1056=FILL_AREA_STYLE_COLOUR('',#1319);
#1057=LINE('',#1320,#1321);
#1058=FILL_AREA_STYLE_COLOUR('',#1322);
#1059=LINE('',#1323,#1324);
#1060=FILL_AREA_STYLE_COLOUR('',#1325);
#1061=FILL_AREA_STYLE_COLOUR('',#1326);
#1062=FILL_AREA_STYLE_COLOUR('',#1327);
#1063=LINE('',#1328,#1329);
#1064=FILL_AREA_STYLE_COLOUR('',#1330);
#1065=LINE('',#1331,#1332);
#1066=FILL_AREA_STYLE_COLOUR('',#1333);
#1067=FILL_AREA_STYLE_COLOUR('',#1334);
#1068=FILL_AREA_STYLE_COLOUR('',#1335);
#1069=LINE('',#1336,#1337);
#1070=LINE('',#1338,#1339);
#1071=FILL_AREA_STYLE_COLOUR('',#1340);
#1072=LINE('',#1341,#1342);
#1073=FILL_AREA_STYLE_COLOUR('',#1343);
#1074=LINE('',#1344,#1345);
#1075=FILL_AREA_STYLE_COLOUR('',#1346);
#1076=FILL_AREA_STYLE_COLOUR('',#1347);
#1077=LINE('',#1348,#1349);
#1078=LINE('',#1350,#1351);
#1079=FILL_AREA_STYLE_COLOUR('',#1352);
#1080=LINE('',#1353,#1354);
#1081=FILL_AREA_STYLE_COLOUR('',#1355);
#1082=LINE('',#1356,#1357);
#1083=FILL_AREA_STYLE_COLOUR('',#1358);
#1084=FILL_AREA_STYLE_COLOUR('',#1359);
#1085=LINE('',#1360,#1361);
#1086=FILL_AREA_STYLE_COLOUR('',#1362);
#1087=FILL_AREA_STYLE_COLOUR('',#1363);
#1088=LINE('',#1364,#1365);
#1089=FILL_AREA_STYLE_COLOUR('',#1366);
#1090=FILL_AREA_STYLE_COLOUR('',#1367);
#1091=COLOUR_RGB('',0.0,0.0,0.0);
#1092=CARTESIAN_POINT('',(25.0,12.9,-6.0));
#1093=CARTESIAN_POINT('',(25.0,12.9,0.0));
#1094=CARTESIAN_POINT('',(25.0,12.9,-6.0));
#1095=VECTOR('',#1368,1.0);
#1096=CARTESIAN_POINT('',(22.9,15.0,-6.0));
#1097=AXIS2_PLACEMENT_3D('',#1369,#1370,#1371);
#1098=CARTESIAN_POINT('',(22.9,15.0,0.0));
#1099=CARTESIAN_POINT('',(22.9,15.0,-6.0));
#1100=VECTOR('',#1372,1.0);
#1101=AXIS2_PLACEMENT_3D('',#1373,#1374,#1375);
#1102=COLOUR_RGB('',0.0,0.0,0.0);
#1103=CARTESIAN_POINT('',(5.0,2.89999999999999,-6.0));
#1104=CARTESIAN_POINT('',(5.0,2.89999999999999,0.0));
#1105=CARTESIAN_POINT('',(5.0,2.89999999999999,-6.0));
#1106=VECTOR('',#1376,1.0);
#1107=CARTESIAN_POINT('',(2.89999999999999,4.99999999999999,-6.0));
#1108=AXIS2_PLACEMENT_3D('',#1377,#1378,#1379);
#1109=CARTESIAN_POINT('',(2.89999999999999,4.99999999999999,0.0));
#1110=CARTESIAN_POINT('',(2.89999999999999,4.99999999999999,-6.0));
#1111=VECTOR('',#1380,1.0);
#1112=AXIS2_PLACEMENT_3D('',#1381,#1382,#1383);
#1113=COLOUR_RGB('',0.0,0.0,0.0);
#1114=CARTESIAN_POINT('',(5.0,22.9,-6.0));
#1115=CARTESIAN_POINT('',(5.0,22.9,0.0));
#1116=CARTESIAN_POINT('',(5.0,22.9,-6.0));
#1117=VECTOR('',#1384,1.0);
#1118=CARTESIAN_POINT('',(2.89999999999999,25.0,-6.0));
#1119=AXIS2_PLACEMENT_3D('',#1385,#1386,#1387);
#1120=CARTESIAN_POINT('',(2.89999999999999,25.0,0.0));
#1121=CARTESIAN_POINT('',(2.89999999999999,25.0,-6.0));
#1122=VECTOR('',#1388,1.0);
#1123=AXIS2_PLACEMENT_3D('',#1389,#1390,#1391);
#1124=COLOUR_RGB('',0.0,0.0,0.0);
#1125=CARTESIAN_POINT('',(22.9,25.0,-6.0));
#1126=CARTESIAN_POINT('',(25.0,27.1,-6.0));
#1127=AXIS2_PLACEMENT_3D('',#1392,#1393,#1394);
#1128=CARTESIAN_POINT('',(25.0,27.1,0.0));
#1129=CARTESIAN_POINT('',(25.0,27.1,-6.0));
#1130=VECTOR('',#1395,1.0);
#1131=CARTESIAN_POINT('',(22.9,25.0,0.0));
#1132=AXIS2_PLACEMENT_3D('',#1396,#1397,#1398);
#1133=CARTESIAN_POINT('',(22.9,25.0,-6.0));
#1134=VECTOR('',#1399,1.0);
#1135=COLOUR_RGB('',0.0,0.0,0.0);
#1136=CARTESIAN_POINT('',(2.89999999999999,15.0,-6.0));
#1137=CARTESIAN_POINT('',(5.0,17.1,-6.0));
#1138=AXIS2_PLACEMENT_3D('',#1400,#1401,#1402);
#1139=CARTESIAN_POINT('',(5.0,17.1,0.0));
#1140=CARTESIAN_POINT('',(5.0,17.1,-6.0));
#1141=VECTOR('',#1403,1.0);
#1142=CARTESIAN_POINT('',(2.89999999999999,15.0,0.0));
#1143=AXIS2_PLACEMENT_3D('',#1404,#1405,#1406);
#1144=CARTESIAN_POINT('',(2.89999999999999,15.0,-6.0));
#1145=VECTOR('',#1407,1.0);
#1146=COLOUR_RGB('',0.0,0.0,0.0);
#1147=CARTESIAN_POINT('',(2.89999999999999,35.0,-6.0));
#1148=CARTESIAN_POINT('',(5.0,37.1,-6.0));
#1149=AXIS2_PLACEMENT_3D('',#1408,#1409,#1410);
#1150=CARTESIAN_POINT('',(5.0,37.1,0.0));
#1151=CARTESIAN_POINT('',(5.0,37.1,-6.0));
#1152=VECTOR('',#1411,1.0);
#1153=CARTESIAN_POINT('',(2.89999999999999,35.0,0.0));
#1154=AXIS2_PLACEMENT_3D('',#1412,#1413,#1414);
#1155=CARTESIAN_POINT('',(2.89999999999999,35.0,-6.0));
#1156=VECTOR('',#1415,1.0);
#1157=COLOUR_RGB('',0.0,0.0,0.0);
#1158=CARTESIAN_POINT('',(30.0,36.5,-6.0));
#1159=CARTESIAN_POINT('',(30.0,40.0,-6.0));
#1160=CARTESIAN_POINT('',(30.0,36.5,-6.0));
#1161=VECTOR('',#1416,1.0);
#1162=CARTESIAN_POINT('',(140.0,36.5,-6.0));
#1163=CARTESIAN_POINT('',(140.0,36.5,-6.0));
#1164=VECTOR('',#1417,1.0);
#1165=CARTESIAN_POINT('',(140.0,3.49999999999998,-6.0));
#1166=CARTESIAN_POINT('',(140.0,36.5,-6.0));
#1167=VECTOR('',#1418,1.0);
#1168=CARTESIAN_POINT('',(30.0,3.49999999999998,-6.0));
#1169=CARTESIAN_POINT('',(30.0,3.49999999999998,-6.0));
#1170=VECTOR('',#1419,1.0);
#1171=CARTESIAN_POINT('',(30.0,-1.06581410364015E-14,-6.0));
#1172=CARTESIAN_POINT('',(30.0,-2.1316282072803E-14,-6.0));
#1173=VECTOR('',#1420,1.0);
#1174=CARTESIAN_POINT('',(-1.4210854715202E-14,0.0,-6.0));
#1175=CARTESIAN_POINT('',(30.0,-2.1316282072803E-14,-6.0));
#1176=VECTOR('',#1421,1.0);
#1177=CARTESIAN_POINT('',(-1.4210854715202E-14,40.0,-6.0));
#1178=CARTESIAN_POINT('',(-1.4210854715202E-14,0.0,-6.0));
#1179=VECTOR('',#1422,1.0);
#1180=CARTESIAN_POINT('',(-1.4210854715202E-14,40.0,-6.0));
#1181=VECTOR('',#1423,1.0);
#1182=CARTESIAN_POINT('',(7.1,35.0,-6.0));
#1183=CARTESIAN_POINT('',(7.1,25.0,-6.0));
#1184=CARTESIAN_POINT('',(7.1,35.0,-6.0));
#1185=VECTOR('',#1424,1.0);
#1186=AXIS2_PLACEMENT_3D('',#1425,#1426,#1427);
#1187=CARTESIAN_POINT('',(2.89999999999999,25.0,-6.0));
#1188=VECTOR('',#1428,1.0);
#1189=AXIS2_PLACEMENT_3D('',#1429,#1430,#1431);
#1190=CARTESIAN_POINT('',(7.1,15.0,-6.0));
#1191=CARTESIAN_POINT('',(7.1,4.99999999999999,-6.0));
#1192=CARTESIAN_POINT('',(7.1,15.0,-6.0));
#1193=VECTOR('',#1432,1.0);
#1194=AXIS2_PLACEMENT_3D('',#1433,#1434,#1435);
#1195=CARTESIAN_POINT('',(2.89999999999999,4.99999999999999,-6.0));
#1196=VECTOR('',#1436,1.0);
#1197=AXIS2_PLACEMENT_3D('',#1437,#1438,#1439);
#1198=CARTESIAN_POINT('',(27.1,25.0,-6.0));
#1199=CARTESIAN_POINT('',(27.1,15.0,-6.0));
#1200=CARTESIAN_POINT('',(27.1,25.0,-6.0));
#1201=VECTOR('',#1440,1.0);
#1202=AXIS2_PLACEMENT_3D('',#1441,#1442,#1443);
#1203=CARTESIAN_POINT('',(22.9,15.0,-6.0));
#1204=VECTOR('',#1444,1.0);
#1205=AXIS2_PLACEMENT_3D('',#1445,#1446,#1447);
#1206=CARTESIAN_POINT('',(70.5,17.9,-6.0));
#1207=CARTESIAN_POINT('',(60.5,17.9,-6.0));
#1208=CARTESIAN_POINT('',(70.5,17.9,-6.0));
#1209=VECTOR('',#1448,1.0);
#1210=CARTESIAN_POINT('',(70.5,22.1,-6.0));
#1211=AXIS2_PLACEMENT_3D('',#1449,#1450,#1451);
#1212=CARTESIAN_POINT('',(60.5,22.1,-6.0));
#1213=CARTESIAN_POINT('',(60.5,22.1,-6.0));
#1214=VECTOR('',#1452,1.0);
#1215=AXIS2_PLACEMENT_3D('',#1453,#1454,#1455);
#1216=CARTESIAN_POINT('',(132.5,17.9,-6.0));
#1217=CARTESIAN_POINT('',(122.5,17.9,-6.0));
#1218=CARTESIAN_POINT('',(132.5,17.9,-6.0));
#1219=VECTOR('',#1456,1.0);
#1220=CARTESIAN_POINT('',(132.5,22.1,-6.0));
#1221=AXIS2_PLACEMENT_3D('',#1457,#1458,#1459);
#1222=CARTESIAN_POINT('',(122.5,22.1,-6.0));
#1223=CARTESIAN_POINT('',(122.5,22.1,-6.0));
#1224=VECTOR('',#1460,1.0);
#1225=AXIS2_PLACEMENT_3D('',#1461,#1462,#1463);
#1226=COLOUR_RGB('',0.0,0.0,0.0);
#1227=CARTESIAN_POINT('',(70.5,22.1,0.0));
#1228=CARTESIAN_POINT('',(70.5,17.9,0.0));
#1229=AXIS2_PLACEMENT_3D('',#1464,#1465,#1466);
#1230=CARTESIAN_POINT('',(60.5,17.9,0.0));
#1231=CARTESIAN_POINT('',(70.5,17.9,0.0));
#1232=VECTOR('',#1467,1.0);
#1233=CARTESIAN_POINT('',(60.5,22.1,0.0));
#1234=AXIS2_PLACEMENT_3D('',#1468,#1469,#1470);
#1235=CARTESIAN_POINT('',(60.5,22.1,0.0));
#1236=VECTOR('',#1471,1.0);
#1237=CARTESIAN_POINT('',(7.1,15.0,0.0));
#1238=AXIS2_PLACEMENT_3D('',#1472,#1473,#1474);
#1239=CARTESIAN_POINT('',(7.1,4.99999999999999,0.0));
#1240=CARTESIAN_POINT('',(7.1,15.0,0.0));
#1241=VECTOR('',#1475,1.0);
#1242=AXIS2_PLACEMENT_3D('',#1476,#1477,#1478);
#1243=CARTESIAN_POINT('',(2.89999999999999,4.99999999999999,0.0));
#1244=VECTOR('',#1479,1.0);
#1245=CARTESIAN_POINT('',(140.0,36.5,0.0));
#1246=CARTESIAN_POINT('',(30.0,36.5,0.0));
#1247=CARTESIAN_POINT('',(140.0,36.5,0.0));
#1248=VECTOR('',#1480,1.0);
#1249=CARTESIAN_POINT('',(30.0,40.0,0.0));
#1250=CARTESIAN_POINT('',(30.0,36.5,0.0));
#1251=VECTOR('',#1481,1.0);
#1252=CARTESIAN_POINT('',(-1.4210854715202E-14,40.0,0.0));
#1253=CARTESIAN_POINT('',(-1.4210854715202E-14,40.0,0.0));
#1254=VECTOR('',#1482,1.0);
#1255=CARTESIAN_POINT('',(-1.4210854715202E-14,0.0,0.0));
#1256=CARTESIAN_POINT('',(-1.4210854715202E-14,0.0,0.0));
#1257=VECTOR('',#1483,1.0);
#1258=CARTESIAN_POINT('',(30.0,-1.06581410364015E-14,0.0));
#1259=CARTESIAN_POINT('',(30.0,-2.1316282072803E-14,0.0));
#1260=VECTOR('',#1484,1.0);
#1261=CARTESIAN_POINT('',(30.0,3.49999999999998,0.0));
#1262=CARTESIAN_POINT('',(30.0,-2.1316282072803E-14,0.0));
#1263=VECTOR('',#1485,1.0);
#1264=CARTESIAN_POINT('',(140.0,3.49999999999998,0.0));
#1265=CARTESIAN_POINT('',(30.0,3.49999999999998,0.0));
#1266=VECTOR('',#1486,1.0);
#1267=CARTESIAN_POINT('',(140.0,36.5,0.0));
#1268=VECTOR('',#1487,1.0);
#1269=CARTESIAN_POINT('',(7.1,35.0,0.0));
#1270=AXIS2_PLACEMENT_3D('',#1488,#1489,#1490);
#1271=CARTESIAN_POINT('',(7.1,25.0,0.0));
#1272=CARTESIAN_POINT('',(7.1,35.0,0.0));
#1273=VECTOR('',#1491,1.0);
#1274=AXIS2_PLACEMENT_3D('',#1492,#1493,#1494);
#1275=CARTESIAN_POINT('',(2.89999999999999,25.0,0.0));
#1276=VECTOR('',#1495,1.0);
#1277=CARTESIAN_POINT('',(27.1,25.0,0.0));
#1278=AXIS2_PLACEMENT_3D('',#1496,#1497,#1498);
#1279=CARTESIAN_POINT('',(27.1,15.0,0.0));
#1280=CARTESIAN_POINT('',(27.1,25.0,0.0));
#1281=VECTOR('',#1499,1.0);
#1282=AXIS2_PLACEMENT_3D('',#1500,#1501,#1502);
#1283=CARTESIAN_POINT('',(22.9,15.0,0.0));
#1284=VECTOR('',#1503,1.0);
#1285=CARTESIAN_POINT('',(132.5,22.1,0.0));
#1286=CARTESIAN_POINT('',(132.5,17.9,0.0));
#1287=AXIS2_PLACEMENT_3D('',#1504,#1505,#1506);
#1288=CARTESIAN_POINT('',(122.5,17.9,0.0));
#1289=CARTESIAN_POINT('',(132.5,17.9,0.0));
#1290=VECTOR('',#1507,1.0);
#1291=CARTESIAN_POINT('',(122.5,22.1,0.0));
#1292=AXIS2_PLACEMENT_3D('',#1508,#1509,#1510);
#1293=CARTESIAN_POINT('',(122.5,22.1,0.0));
#1294=VECTOR('',#1511,1.0);
#1295=COLOUR_RGB('',0.0,0.0,0.0);
#1296=CARTESIAN_POINT('',(30.0,-2.1316282072803E-14,0.0));
#1297=VECTOR('',#1512,1.0);
#1298=CARTESIAN_POINT('',(-1.4210854715202E-14,0.0,-6.0));
#1299=VECTOR('',#1513,1.0);
#1300=COLOUR_RGB('',0.0,0.0,0.0);
#1301=CARTESIAN_POINT('',(-1.4210854715202E-14,40.0,-6.0));
#1302=VECTOR('',#1514,1.0);
#1303=COLOUR_RGB('',0.0,0.0,0.0);
#1304=CARTESIAN_POINT('',(30.0,40.0,0.0));
#1305=VECTOR('',#1515,1.0);
#1306=COLOUR_RGB('',0.0,0.0,0.0);
#1307=CARTESIAN_POINT('',(140.0,36.5,-6.0));
#1308=VECTOR('',#1516,1.0);
#1309=CARTESIAN_POINT('',(140.0,3.49999999999998,0.0));
#1310=VECTOR('',#1517,1.0);
#1311=COLOUR_RGB('',0.0,0.0,0.0);
#1312=CARTESIAN_POINT('',(7.1,35.0,-6.0));
#1313=VECTOR('',#1518,1.0);
#1314=COLOUR_RGB('',0.0,0.0,0.0);
#1315=CARTESIAN_POINT('',(7.1,25.0,-6.0));
#1316=VECTOR('',#1519,1.0);
#1317=COLOUR_RGB('',0.0,0.0,0.0);
#1318=COLOUR_RGB('',0.0,0.0,0.0);
#1319=COLOUR_RGB('',0.0,0.0,0.0);
#1320=CARTESIAN_POINT('',(7.1,15.0,-6.0));
#1321=VECTOR('',#1520,1.0);
#1322=COLOUR_RGB('',0.0,0.0,0.0);
#1323=CARTESIAN_POINT('',(7.1,4.99999999999999,-6.0));
#1324=VECTOR('',#1521,1.0);
#1325=COLOUR_RGB('',0.0,0.0,0.0);
#1326=COLOUR_RGB('',0.0,0.0,0.0);
#1327=COLOUR_RGB('',0.0,0.0,0.0);
#1328=CARTESIAN_POINT('',(27.1,25.0,-6.0));
#1329=VECTOR('',#1522,1.0);
#1330=COLOUR_RGB('',0.0,0.0,0.0);
#1331=CARTESIAN_POINT('',(27.1,15.0,-6.0));
#1332=VECTOR('',#1523,1.0);
#1333=COLOUR_RGB('',0.0,0.0,0.0);
#1334=COLOUR_RGB('',0.0,0.0,0.0);
#1335=COLOUR_RGB('',0.0,0.0,0.0);
#1336=CARTESIAN_POINT('',(70.5,22.1,-6.0));
#1337=VECTOR('',#1524,1.0);
#1338=CARTESIAN_POINT('',(70.5,17.9,-6.0));
#1339=VECTOR('',#1525,1.0);
#1340=COLOUR_RGB('',0.0,0.0,0.0);
#1341=CARTESIAN_POINT('',(60.5,17.9,-6.0));
#1342=VECTOR('',#1526,1.0);
#1343=COLOUR_RGB('',0.0,0.0,0.0);
#1344=CARTESIAN_POINT('',(60.5,22.1,-6.0));
#1345=VECTOR('',#1527,1.0);
#1346=COLOUR_RGB('',0.0,0.0,0.0);
#1347=COLOUR_RGB('',0.0,0.0,0.0);
#1348=CARTESIAN_POINT('',(132.5,22.1,-6.0));
#1349=VECTOR('',#1528,1.0);
#1350=CARTESIAN_POINT('',(132.5,17.9,-6.0));
#1351=VECTOR('',#1529,1.0);
#1352=COLOUR_RGB('',0.0,0.0,0.0);
#1353=CARTESIAN_POINT('',(122.5,17.9,-6.0));
#1354=VECTOR('',#1530,1.0);
#1355=COLOUR_RGB('',0.0,0.0,0.0);
#1356=CARTESIAN_POINT('',(122.5,22.1,-6.0));
#1357=VECTOR('',#1531,1.0);
#1358=COLOUR_RGB('',0.0,0.0,0.0);
#1359=COLOUR_RGB('',0.0,0.0,0.0);
#1360=CARTESIAN_POINT('',(30.0,3.49999999999998,0.0));
#1361=VECTOR('',#1532,1.0);
#1362=COLOUR_RGB('',0.0,0.0,0.0);
#1363=COLOUR_RGB('',0.0,0.0,0.0);
#1364=CARTESIAN_POINT('',(30.0,36.5,0.0));
#1365=VECTOR('',#1533,1.0);
#1366=COLOUR_RGB('',0.0,0.0,0.0);
#1367=COLOUR_RGB('',1.0,1.0,1.0);
#1368=DIRECTION('',(-0.0,-0.0,1.0));
#1369=CARTESIAN_POINT('',(25.0,15.0,-6.0));
#1370=DIRECTION('',(0.0,0.0,-1.0));
#1371=DIRECTION('',(0.0,-1.0,0.0));
#1372=DIRECTION('',(0.0,0.0,1.0));
#1373=CARTESIAN_POINT('',(25.0,15.0,0.0));
#1374=DIRECTION('',(0.0,0.0,-1.0));
#1375=DIRECTION('',(0.0,-1.0,0.0));
#1376=DIRECTION('',(-0.0,-0.0,1.0));
#1377=CARTESIAN_POINT('',(5.0,4.99999999999999,-6.0));
#1378=DIRECTION('',(0.0,0.0,-1.0));
#1379=DIRECTION('',(0.0,-1.0,0.0));
#1380=DIRECTION('',(0.0,0.0,1.0));
#1381=CARTESIAN_POINT('',(5.0,4.99999999999999,0.0));
#1382=DIRECTION('',(0.0,0.0,-1.0));
#1383=DIRECTION('',(0.0,-1.0,0.0));
#1384=DIRECTION('',(-0.0,-0.0,1.0));
#1385=CARTESIAN_POINT('',(5.0,25.0,-6.0));
#1386=DIRECTION('',(0.0,0.0,-1.0));
#1387=DIRECTION('',(0.0,-1.0,0.0));
#1388=DIRECTION('',(0.0,0.0,1.0));
#1389=CARTESIAN_POINT('',(5.0,25.0,0.0));
#1390=DIRECTION('',(0.0,0.0,-1.0));
#1391=DIRECTION('',(0.0,-1.0,0.0));
#1392=CARTESIAN_POINT('',(25.0,25.0,-6.0));
#1393=DIRECTION('',(0.0,0.0,-1.0));
#1394=DIRECTION('',(0.0,-1.0,0.0));
#1395=DIRECTION('',(0.0,0.0,1.0));
#1396=CARTESIAN_POINT('',(25.0,25.0,0.0));
#1397=DIRECTION('',(0.0,0.0,-1.0));
#1398=DIRECTION('',(0.0,-1.0,0.0));
#1399=DIRECTION('',(0.0,0.0,1.0));
#1400=CARTESIAN_POINT('',(5.0,15.0,-6.0));
#1401=DIRECTION('',(0.0,0.0,-1.0));
#1402=DIRECTION('',(0.0,-1.0,0.0));
#1403=DIRECTION('',(0.0,0.0,1.0));
#1404=CARTESIAN_POINT('',(5.0,15.0,0.0));
#1405=DIRECTION('',(0.0,0.0,-1.0));
#1406=DIRECTION('',(0.0,-1.0,0.0));
#1407=DIRECTION('',(0.0,0.0,1.0));
#1408=CARTESIAN_POINT('',(5.0,35.0,-6.0));
#1409=DIRECTION('',(0.0,0.0,-1.0));
#1410=DIRECTION('',(0.0,-1.0,0.0));
#1411=DIRECTION('',(0.0,0.0,1.0));
#1412=CARTESIAN_POINT('',(5.0,35.0,0.0));
#1413=DIRECTION('',(0.0,0.0,-1.0));
#1414=DIRECTION('',(0.0,-1.0,0.0));
#1415=DIRECTION('',(0.0,0.0,1.0));
#1416=DIRECTION('',(0.0,1.0,0.0));
#1417=DIRECTION('',(-1.0,0.0,-0.0));
#1418=DIRECTION('',(0.0,-1.0,0.0));
#1419=DIRECTION('',(1.0,-3.22973970800046E-17,0.0));
#1420=DIRECTION('',(0.0,1.0,0.0));
#1421=DIRECTION('',(-1.0,7.105427357601E-16,0.0));
#1422=DIRECTION('',(0.0,1.0,0.0));
#1423=DIRECTION('',(1.0,-5.9211894646675E-16,0.0));
#1424=DIRECTION('',(0.0,-1.0,0.0));
#1425=CARTESIAN_POINT('',(5.0,35.0,-6.0));
#1426=DIRECTION('',(0.0,0.0,-1.0));
#1427=DIRECTION('',(0.0,-1.0,0.0));
#1428=DIRECTION('',(0.0,1.0,0.0));
#1429=CARTESIAN_POINT('',(5.0,25.0,-6.0));
#1430=DIRECTION('',(0.0,0.0,-1.0));
#1431=DIRECTION('',(0.0,-1.0,0.0));
#1432=DIRECTION('',(0.0,-1.0,0.0));
#1433=CARTESIAN_POINT('',(5.0,15.0,-6.0));
#1434=DIRECTION('',(0.0,0.0,-1.0));
#1435=DIRECTION('',(0.0,-1.0,0.0));
#1436=DIRECTION('',(0.0,1.0,0.0));
#1437=CARTESIAN_POINT('',(5.0,4.99999999999999,-6.0));
#1438=DIRECTION('',(0.0,0.0,-1.0));
#1439=DIRECTION('',(0.0,-1.0,0.0));
#1440=DIRECTION('',(0.0,-1.0,0.0));
#1441=CARTESIAN_POINT('',(25.0,25.0,-6.0));
#1442=DIRECTION('',(0.0,0.0,-1.0));
#1443=DIRECTION('',(0.0,-1.0,0.0));
#1444=DIRECTION('',(0.0,1.0,0.0));
#1445=CARTESIAN_POINT('',(25.0,15.0,-6.0));
#1446=DIRECTION('',(0.0,0.0,-1.0));
#1447=DIRECTION('',(0.0,-1.0,0.0));
#1448=DIRECTION('',(-1.0,1.77635683940025E-16,0.0));
#1449=CARTESIAN_POINT('',(70.5,20.0,-6.0));
#1450=DIRECTION('',(0.0,0.0,-1.0));
#1451=DIRECTION('',(0.0,-1.0,0.0));
#1452=DIRECTION('',(1.0,-1.77635683940025E-16,0.0));
#1453=CARTESIAN_POINT('',(60.5,20.0,-6.0));
#1454=DIRECTION('',(0.0,0.0,-1.0));
#1455=DIRECTION('',(0.0,-1.0,0.0));
#1456=DIRECTION('',(-1.0,1.77635683940025E-16,0.0));
#1457=CARTESIAN_POINT('',(132.5,20.0,-6.0));
#1458=DIRECTION('',(0.0,0.0,-1.0));
#1459=DIRECTION('',(0.0,-1.0,0.0));
#1460=DIRECTION('',(1.0,-1.77635683940025E-16,0.0));
#1461=CARTESIAN_POINT('',(122.5,20.0,-6.0));
#1462=DIRECTION('',(0.0,0.0,-1.0));
#1463=DIRECTION('',(0.0,-1.0,0.0));
#1464=CARTESIAN_POINT('',(70.5,20.0,0.0));
#1465=DIRECTION('',(0.0,0.0,-1.0));
#1466=DIRECTION('',(0.0,-1.0,0.0));
#1467=DIRECTION('',(-1.0,1.77635683940025E-16,0.0));
#1468=CARTESIAN_POINT('',(60.5,20.0,0.0));
#1469=DIRECTION('',(0.0,0.0,-1.0));
#1470=DIRECTION('',(0.0,-1.0,0.0));
#1471=DIRECTION('',(1.0,-1.77635683940025E-16,0.0));
#1472=CARTESIAN_POINT('',(5.0,15.0,0.0));
#1473=DIRECTION('',(0.0,0.0,-1.0));
#1474=DIRECTION('',(0.0,-1.0,0.0));
#1475=DIRECTION('',(0.0,-1.0,0.0));
#1476=CARTESIAN_POINT('',(5.0,4.99999999999999,0.0));
#1477=DIRECTION('',(0.0,0.0,-1.0));
#1478=DIRECTION('',(0.0,-1.0,0.0));
#1479=DIRECTION('',(0.0,1.0,0.0));
#1480=DIRECTION('',(-1.0,0.0,-0.0));
#1481=DIRECTION('',(0.0,1.0,0.0));
#1482=DIRECTION('',(1.0,-5.9211894646675E-16,0.0));
#1483=DIRECTION('',(0.0,1.0,0.0));
#1484=DIRECTION('',(-1.0,7.105427357601E-16,0.0));
#1485=DIRECTION('',(0.0,1.0,0.0));
#1486=DIRECTION('',(1.0,0.0,0.0));
#1487=DIRECTION('',(0.0,-1.0,0.0));
#1488=CARTESIAN_POINT('',(5.0,35.0,0.0));
#1489=DIRECTION('',(0.0,0.0,-1.0));
#1490=DIRECTION('',(0.0,-1.0,0.0));
#1491=DIRECTION('',(0.0,-1.0,0.0));
#1492=CARTESIAN_POINT('',(5.0,25.0,0.0));
#1493=DIRECTION('',(0.0,0.0,-1.0));
#1494=DIRECTION('',(0.0,-1.0,0.0));
#1495=DIRECTION('',(0.0,1.0,0.0));
#1496=CARTESIAN_POINT('',(25.0,25.0,0.0));
#1497=DIRECTION('',(0.0,0.0,-1.0));
#1498=DIRECTION('',(0.0,-1.0,0.0));
#1499=DIRECTION('',(0.0,-1.0,0.0));
#1500=CARTESIAN_POINT('',(25.0,15.0,0.0));
#1501=DIRECTION('',(0.0,0.0,-1.0));
#1502=DIRECTION('',(0.0,-1.0,0.0));
#1503=DIRECTION('',(0.0,1.0,0.0));
#1504=CARTESIAN_POINT('',(132.5,20.0,0.0));
#1505=DIRECTION('',(0.0,0.0,-1.0));
#1506=DIRECTION('',(0.0,-1.0,0.0));
#1507=DIRECTION('',(-1.0,1.77635683940025E-16,0.0));
#1508=CARTESIAN_POINT('',(122.5,20.0,0.0));
#1509=DIRECTION('',(0.0,0.0,-1.0));
#1510=DIRECTION('',(0.0,-1.0,0.0));
#1511=DIRECTION('',(1.0,-1.77635683940025E-16,0.0));
#1512=DIRECTION('',(0.0,0.0,-1.0));
#1513=DIRECTION('',(0.0,0.0,1.0));
#1514=DIRECTION('',(0.0,0.0,1.0));
#1515=DIRECTION('',(0.0,0.0,-1.0));
#1516=DIRECTION('',(0.0,0.0,1.0));
#1517=DIRECTION('',(0.0,-5.9211894646675E-16,-1.0));
#1518=DIRECTION('',(0.0,0.0,1.0));
#1519=DIRECTION('',(0.0,0.0,1.0));
#1520=DIRECTION('',(0.0,0.0,1.0));
#1521=DIRECTION('',(0.0,0.0,1.0));
#1522=DIRECTION('',(0.0,0.0,1.0));
#1523=DIRECTION('',(0.0,0.0,1.0));
#1524=DIRECTION('',(0.0,0.0,1.0));
#1525=DIRECTION('',(0.0,0.0,1.0));
#1526=DIRECTION('',(0.0,0.0,1.0));
#1527=DIRECTION('',(0.0,0.0,1.0));
#1528=DIRECTION('',(0.0,0.0,1.0));
#1529=DIRECTION('',(0.0,0.0,1.0));
#1530=DIRECTION('',(0.0,0.0,1.0));
#1531=DIRECTION('',(0.0,0.0,1.0));
#1532=DIRECTION('',(0.0,0.0,-1.0));
#1533=DIRECTION('',(0.0,0.0,-1.0));
ENDSEC;
END-ISO-10303-21;
