ISO-10303-21;
HEADER;
FILE_DESCRIPTION(('STEP AP214'),'1');
FILE_NAME('result.step','2024-11-26T08:07:43',(' '),(' '),'Spatial InterOp 3D',' ',' ');
FILE_SCHEMA(('automotive_design'));
ENDSEC;
DATA;
#1=MECHANICAL_DESIGN_GEOMETRIC_PRESENTATION_REPRESENTATION(' ',(#10,#11,#12,#13,#14,#15,#16,#17),#6);
#2=PRODUCT_DEFINITION_CONTEXT('',#18,'design');
#3=APPLICATION_PROTOCOL_DEFINITION('INTERNATIONAL STANDARD','automotive_design',1994,#18);
#4=PRODUCT_CATEGORY_RELATIONSHIP('NONE','NONE',#19,#20);
#5=SHAPE_DEFINITION_REPRESENTATION(#21,#22);
#6= (GEOMETRIC_REPRESENTATION_CONTEXT(3)GLOBAL_UNCERTAINTY_ASSIGNED_CONTEXT((#25))GLOBAL_UNIT_ASSIGNED_CONTEXT((#27,#28,#29))REPRESENTATION_CONTEXT('NONE','WORKSPACE'));
#10=STYLED_ITEM('',(#31),#32);
#11=STYLED_ITEM('',(#33),#34);
#12=STYLED_ITEM('',(#35),#36);
#13=STYLED_ITEM('',(#37),#38);
#14=STYLED_ITEM('',(#39),#40);
#15=STYLED_ITEM('',(#41),#42);
#16=STYLED_ITEM('',(#43),#44);
#17=STYLED_ITEM('',(#45),#46);
#18=APPLICATION_CONTEXT(' ');
#19=PRODUCT_CATEGORY('part','NONE');
#20=PRODUCT_RELATED_PRODUCT_CATEGORY('detail',' ',(#47));
#21=PRODUCT_DEFINITION_SHAPE('NONE','NONE',#48);
#22=ADVANCED_BREP_SHAPE_REPRESENTATION('001',(#49,#50),#6);
#25=UNCERTAINTY_MEASURE_WITH_UNIT(LENGTH_MEASURE(1.0E-06),#27,'','');
#27= (CONVERSION_BASED_UNIT('MILLIMETRE',#53)LENGTH_UNIT()NAMED_UNIT(#56));
#28= (NAMED_UNIT(#58)PLANE_ANGLE_UNIT()SI_UNIT($,.RADIAN.));
#29= (NAMED_UNIT(#58)SOLID_ANGLE_UNIT()SI_UNIT($,.STERADIAN.));
#31=PRESENTATION_STYLE_ASSIGNMENT((#64));
#32=ADVANCED_FACE('',(#65),#66,.F.);
#33=PRESENTATION_STYLE_ASSIGNMENT((#67));
#34=ADVANCED_FACE('',(#68,#69),#70,.T.);
#35=PRESENTATION_STYLE_ASSIGNMENT((#71));
#36=ADVANCED_FACE('',(#72,#73),#74,.F.);
#37=PRESENTATION_STYLE_ASSIGNMENT((#75));
#38=ADVANCED_FACE('',(#76),#77,.F.);
#39=PRESENTATION_STYLE_ASSIGNMENT((#78));
#40=ADVANCED_FACE('',(#79),#80,.F.);
#41=PRESENTATION_STYLE_ASSIGNMENT((#81));
#42=ADVANCED_FACE('',(#82),#83,.F.);
#43=PRESENTATION_STYLE_ASSIGNMENT((#84));
#44=ADVANCED_FACE('',(#85),#86,.F.);
#45=PRESENTATION_STYLE_ASSIGNMENT((#87));
#46=ADVANCED_FACE('',(#88),#89,.F.);
#47=PRODUCT('001','001','PART-001-DESC',(#90));
#48=PRODUCT_DEFINITION('NONE','NONE',#91,#2);
#49=MANIFOLD_SOLID_BREP('001',#92);
#50=AXIS2_PLACEMENT_3D('',#93,#94,#95);
#53=LENGTH_MEASURE_WITH_UNIT(LENGTH_MEASURE(1.0),#96);
#56=DIMENSIONAL_EXPONENTS(1.0,0.0,0.0,0.0,0.0,0.0,0.0);
#58=DIMENSIONAL_EXPONENTS(0.0,0.0,0.0,0.0,0.0,0.0,0.0);
#64=SURFACE_STYLE_USAGE(.BOTH.,#97);
#65=FACE_OUTER_BOUND('',#98,.T.);
#66=CYLINDRICAL_SURFACE('',#99,8.5);
#67=SURFACE_STYLE_USAGE(.BOTH.,#100);
#68=FACE_OUTER_BOUND('',#101,.T.);
#69=FACE_BOUND('',#102,.T.);
#70=PLANE('',#103);
#71=SURFACE_STYLE_USAGE(.BOTH.,#104);
#72=FACE_OUTER_BOUND('',#105,.T.);
#73=FACE_BOUND('',#106,.T.);
#74=PLANE('',#107);
#75=SURFACE_STYLE_USAGE(.BOTH.,#108);
#76=FACE_OUTER_BOUND('',#109,.T.);
#77=PLANE('',#110);
#78=SURFACE_STYLE_USAGE(.BOTH.,#111);
#79=FACE_OUTER_BOUND('',#112,.T.);
#80=PLANE('',#113);
#81=SURFACE_STYLE_USAGE(.BOTH.,#114);
#82=FACE_OUTER_BOUND('',#115,.T.);
#83=PLANE('',#116);
#84=SURFACE_STYLE_USAGE(.BOTH.,#117);
#85=FACE_OUTER_BOUND('',#118,.T.);
#86=PLANE('',#119);
#87=SURFACE_STYLE_USAGE(.BOTH.,#120);
#88=FACE_OUTER_BOUND('',#121,.T.);
#89=CYLINDRICAL_SURFACE('',#122,8.5);
#90=PRODUCT_CONTEXT('',#18,'mechanical');
#91=PRODUCT_DEFINITION_FORMATION_WITH_SPECIFIED_SOURCE(' ','NONE',#47,.NOT_KNOWN.);
#92=CLOSED_SHELL('',(#32,#34,#36,#38,#40,#42,#44,#46));
#93=CARTESIAN_POINT('',(0.0,0.0,0.0));
#94=DIRECTION('',(0.0,0.0,1.0));
#95=DIRECTION('',(1.0,0.0,0.0));
#96= (NAMED_UNIT(#56)LENGTH_UNIT()SI_UNIT(.MILLI.,.METRE.));
#97=SURFACE_SIDE_STYLE('',(#124));
#98=EDGE_LOOP('',(#125,#126,#127,#128));
#99=AXIS2_PLACEMENT_3D('',#129,#130,#131);
#100=SURFACE_SIDE_STYLE('',(#132));
#101=EDGE_LOOP('',(#133,#134,#135,#136));
#102=EDGE_LOOP('',(#137,#138));
#103=AXIS2_PLACEMENT_3D('',#139,#140,#141);
#104=SURFACE_SIDE_STYLE('',(#142));
#105=EDGE_LOOP('',(#143,#144,#145,#146));
#106=EDGE_LOOP('',(#147,#148));
#107=AXIS2_PLACEMENT_3D('',#149,#150,#151);
#108=SURFACE_SIDE_STYLE('',(#152));
#109=EDGE_LOOP('',(#153,#154,#155,#156));
#110=AXIS2_PLACEMENT_3D('',#157,#158,#159);
#111=SURFACE_SIDE_STYLE('',(#160));
#112=EDGE_LOOP('',(#161,#162,#163,#164));
#113=AXIS2_PLACEMENT_3D('',#165,#166,#167);
#114=SURFACE_SIDE_STYLE('',(#168));
#115=EDGE_LOOP('',(#169,#170,#171,#172));
#116=AXIS2_PLACEMENT_3D('',#173,#174,#175);
#117=SURFACE_SIDE_STYLE('',(#176));
#118=EDGE_LOOP('',(#177,#178,#179,#180));
#119=AXIS2_PLACEMENT_3D('',#181,#182,#183);
#120=SURFACE_SIDE_STYLE('',(#184));
#121=EDGE_LOOP('',(#185,#186,#187,#188));
#122=AXIS2_PLACEMENT_3D('',#189,#190,#191);
#124=SURFACE_STYLE_FILL_AREA(#192);
#125=ORIENTED_EDGE('',*,*,#193,.F.);
#126=ORIENTED_EDGE('',*,*,#194,.T.);
#127=ORIENTED_EDGE('',*,*,#195,.F.);
#128=ORIENTED_EDGE('',*,*,#196,.F.);
#129=CARTESIAN_POINT('',(20.0,15.0,0.0));
#130=DIRECTION('',(0.0,0.0,-1.0));
#131=DIRECTION('',(1.0,0.0,0.0));
#132=SURFACE_STYLE_FILL_AREA(#197);
#133=ORIENTED_EDGE('',*,*,#198,.T.);
#134=ORIENTED_EDGE('',*,*,#199,.T.);
#135=ORIENTED_EDGE('',*,*,#200,.T.);
#136=ORIENTED_EDGE('',*,*,#201,.T.);
#137=ORIENTED_EDGE('',*,*,#202,.F.);
#138=ORIENTED_EDGE('',*,*,#194,.F.);
#139=CARTESIAN_POINT('',(20.0,15.0,0.0));
#140=DIRECTION('',(0.0,0.0,1.0));
#141=DIRECTION('',(-1.0,0.0,0.0));
#142=SURFACE_STYLE_FILL_AREA(#203);
#143=ORIENTED_EDGE('',*,*,#204,.F.);
#144=ORIENTED_EDGE('',*,*,#205,.F.);
#145=ORIENTED_EDGE('',*,*,#206,.F.);
#146=ORIENTED_EDGE('',*,*,#207,.F.);
#147=ORIENTED_EDGE('',*,*,#196,.T.);
#148=ORIENTED_EDGE('',*,*,#208,.T.);
#149=CARTESIAN_POINT('',(20.0,15.0,-6.0));
#150=DIRECTION('',(0.0,0.0,1.0));
#151=DIRECTION('',(-1.0,0.0,0.0));
#152=SURFACE_STYLE_FILL_AREA(#209);
#153=ORIENTED_EDGE('',*,*,#204,.T.);
#154=ORIENTED_EDGE('',*,*,#210,.F.);
#155=ORIENTED_EDGE('',*,*,#198,.F.);
#156=ORIENTED_EDGE('',*,*,#211,.T.);
#157=CARTESIAN_POINT('',(40.0,30.0,0.0));
#158=DIRECTION('',(-1.0,0.0,0.0));
#159=DIRECTION('',(0.0,0.0,-1.0));
#160=SURFACE_STYLE_FILL_AREA(#212);
#161=ORIENTED_EDGE('',*,*,#207,.T.);
#162=ORIENTED_EDGE('',*,*,#213,.F.);
#163=ORIENTED_EDGE('',*,*,#199,.F.);
#164=ORIENTED_EDGE('',*,*,#210,.T.);
#165=CARTESIAN_POINT('',(0.0,30.0,0.0));
#166=DIRECTION('',(1.73472347597681E-16,-1.0,0.0));
#167=DIRECTION('',(1.0,1.73472347597681E-16,0.0));
#168=SURFACE_STYLE_FILL_AREA(#214);
#169=ORIENTED_EDGE('',*,*,#206,.T.);
#170=ORIENTED_EDGE('',*,*,#215,.F.);
#171=ORIENTED_EDGE('',*,*,#200,.F.);
#172=ORIENTED_EDGE('',*,*,#213,.T.);
#173=CARTESIAN_POINT('',(0.0,30.0,0.0));
#174=DIRECTION('',(1.0,0.0,-0.0));
#175=DIRECTION('',(0.0,0.0,1.0));
#176=SURFACE_STYLE_FILL_AREA(#216);
#177=ORIENTED_EDGE('',*,*,#205,.T.);
#178=ORIENTED_EDGE('',*,*,#211,.F.);
#179=ORIENTED_EDGE('',*,*,#201,.F.);
#180=ORIENTED_EDGE('',*,*,#215,.T.);
#181=CARTESIAN_POINT('',(0.0,0.0,0.0));
#182=DIRECTION('',(-8.67361737988403E-17,1.0,0.0));
#183=DIRECTION('',(-1.0,-8.67361737988403E-17,0.0));
#184=SURFACE_STYLE_FILL_AREA(#217);
#185=ORIENTED_EDGE('',*,*,#193,.T.);
#186=ORIENTED_EDGE('',*,*,#208,.F.);
#187=ORIENTED_EDGE('',*,*,#195,.T.);
#188=ORIENTED_EDGE('',*,*,#202,.T.);
#189=CARTESIAN_POINT('',(20.0,15.0,0.0));
#190=DIRECTION('',(0.0,0.0,-1.0));
#191=DIRECTION('',(1.0,0.0,0.0));
#192=FILL_AREA_STYLE('',(#218));
#193=EDGE_CURVE('',#219,#220,#221,.T.);
#194=EDGE_CURVE('',#219,#222,#223,.T.);
#195=EDGE_CURVE('',#224,#222,#225,.T.);
#196=EDGE_CURVE('',#220,#224,#226,.T.);
#197=FILL_AREA_STYLE('',(#227));
#198=EDGE_CURVE('',#228,#229,#230,.T.);
#199=EDGE_CURVE('',#229,#231,#232,.T.);
#200=EDGE_CURVE('',#231,#233,#234,.T.);
#201=EDGE_CURVE('',#233,#228,#235,.T.);
#202=EDGE_CURVE('',#222,#219,#236,.T.);
#203=FILL_AREA_STYLE('',(#237));
#204=EDGE_CURVE('',#238,#239,#240,.T.);
#205=EDGE_CURVE('',#241,#238,#242,.T.);
#206=EDGE_CURVE('',#243,#241,#244,.T.);
#207=EDGE_CURVE('',#239,#243,#245,.T.);
#208=EDGE_CURVE('',#224,#220,#246,.T.);
#209=FILL_AREA_STYLE('',(#247));
#210=EDGE_CURVE('',#229,#239,#248,.T.);
#211=EDGE_CURVE('',#228,#238,#249,.T.);
#212=FILL_AREA_STYLE('',(#250));
#213=EDGE_CURVE('',#231,#243,#251,.T.);
#214=FILL_AREA_STYLE('',(#252));
#215=EDGE_CURVE('',#233,#241,#253,.T.);
#216=FILL_AREA_STYLE('',(#254));
#217=FILL_AREA_STYLE('',(#255));
#218=FILL_AREA_STYLE_COLOUR('',#256);
#219=VERTEX_POINT('',#257);
#220=VERTEX_POINT('',#258);
#221=LINE('',#259,#260);
#222=VERTEX_POINT('',#261);
#223=CIRCLE('',#262,8.5);
#224=VERTEX_POINT('',#263);
#225=LINE('',#264,#265);
#226=CIRCLE('',#266,8.5);
#227=FILL_AREA_STYLE_COLOUR('',#267);
#228=VERTEX_POINT('',#268);
#229=VERTEX_POINT('',#269);
#230=LINE('',#270,#271);
#231=VERTEX_POINT('',#272);
#232=LINE('',#273,#274);
#233=VERTEX_POINT('',#275);
#234=LINE('',#276,#277);
#235=LINE('',#278,#279);
#236=CIRCLE('',#280,8.5);
#237=FILL_AREA_STYLE_COLOUR('',#281);
#238=VERTEX_POINT('',#282);
#239=VERTEX_POINT('',#283);
#240=LINE('',#284,#285);
#241=VERTEX_POINT('',#286);
#242=LINE('',#287,#288);
#243=VERTEX_POINT('',#289);
#244=LINE('',#290,#291);
#245=LINE('',#292,#293);
#246=CIRCLE('',#294,8.5);
#247=FILL_AREA_STYLE_COLOUR('',#295);
#248=LINE('',#296,#297);
#249=LINE('',#298,#299);
#250=FILL_AREA_STYLE_COLOUR('',#300);
#251=LINE('',#301,#302);
#252=FILL_AREA_STYLE_COLOUR('',#303);
#253=LINE('',#304,#305);
#254=FILL_AREA_STYLE_COLOUR('',#306);
#255=FILL_AREA_STYLE_COLOUR('',#307);
#256=COLOUR_RGB('',0.0,0.0,0.0);
#257=CARTESIAN_POINT('',(11.5,15.0,0.0));
#258=CARTESIAN_POINT('',(11.5,15.0,-6.0));
#259=CARTESIAN_POINT('',(11.5,15.0,0.0));
#260=VECTOR('',#308,1.0);
#261=CARTESIAN_POINT('',(28.5,15.000000014666,0.0));
#262=AXIS2_PLACEMENT_3D('',#309,#310,#311);
#263=CARTESIAN_POINT('',(28.5,15.000000014666,-6.0));
#264=CARTESIAN_POINT('',(28.5,15.0,-6.0));
#265=VECTOR('',#312,1.0);
#266=AXIS2_PLACEMENT_3D('',#313,#314,#315);
#267=COLOUR_RGB('',0.0,0.0,0.0);
#268=CARTESIAN_POINT('',(40.0,3.5527136788005E-15,0.0));
#269=CARTESIAN_POINT('',(40.0,30.0,0.0));
#270=CARTESIAN_POINT('',(40.0,30.0,0.0));
#271=VECTOR('',#316,1.0);
#272=CARTESIAN_POINT('',(0.0,30.0,0.0));
#273=CARTESIAN_POINT('',(0.0,30.0,0.0));
#274=VECTOR('',#317,1.0);
#275=CARTESIAN_POINT('',(0.0,0.0,0.0));
#276=CARTESIAN_POINT('',(0.0,30.0,0.0));
#277=VECTOR('',#318,1.0);
#278=CARTESIAN_POINT('',(0.0,0.0,0.0));
#279=VECTOR('',#319,1.0);
#280=AXIS2_PLACEMENT_3D('',#320,#321,#322);
#281=COLOUR_RGB('',0.0,0.0,0.0);
#282=CARTESIAN_POINT('',(40.0,3.5527136788005E-15,-6.0));
#283=CARTESIAN_POINT('',(40.0,30.0,-6.0));
#284=CARTESIAN_POINT('',(40.0,30.0,-6.0));
#285=VECTOR('',#323,1.0);
#286=CARTESIAN_POINT('',(0.0,0.0,-6.0));
#287=CARTESIAN_POINT('',(0.0,0.0,-6.0));
#288=VECTOR('',#324,1.0);
#289=CARTESIAN_POINT('',(0.0,30.0,-6.0));
#290=CARTESIAN_POINT('',(0.0,30.0,-6.0));
#291=VECTOR('',#325,1.0);
#292=CARTESIAN_POINT('',(0.0,30.0,-6.0));
#293=VECTOR('',#326,1.0);
#294=AXIS2_PLACEMENT_3D('',#327,#328,#329);
#295=COLOUR_RGB('',0.0,0.0,0.0);
#296=CARTESIAN_POINT('',(40.0,30.0,0.0));
#297=VECTOR('',#330,1.0);
#298=CARTESIAN_POINT('',(40.0,3.5527136788005E-15,0.0));
#299=VECTOR('',#331,1.0);
#300=COLOUR_RGB('',0.0,0.0,0.0);
#301=CARTESIAN_POINT('',(0.0,30.0,0.0));
#302=VECTOR('',#332,1.0);
#303=COLOUR_RGB('',0.0,0.0,0.0);
#304=CARTESIAN_POINT('',(0.0,0.0,0.0));
#305=VECTOR('',#333,1.0);
#306=COLOUR_RGB('',0.0,0.0,0.0);
#307=COLOUR_RGB('',0.0,0.0,0.0);
#308=DIRECTION('',(-0.0,-0.0,-1.0));
#309=CARTESIAN_POINT('',(20.0,15.0,0.0));
#310=DIRECTION('',(0.0,0.0,1.0));
#311=DIRECTION('',(-1.0,0.0,0.0));
#312=DIRECTION('',(0.0,0.0,1.0));
#313=CARTESIAN_POINT('',(20.0,15.0,-6.0));
#314=DIRECTION('',(0.0,0.0,1.0));
#315=DIRECTION('',(-1.0,0.0,0.0));
#316=DIRECTION('',(0.0,1.0,0.0));
#317=DIRECTION('',(-1.0,-1.73472347597681E-16,0.0));
#318=DIRECTION('',(0.0,-1.0,0.0));
#319=DIRECTION('',(1.0,8.67361737988404E-17,0.0));
#320=CARTESIAN_POINT('',(20.0,15.0,0.0));
#321=DIRECTION('',(0.0,0.0,1.0));
#322=DIRECTION('',(-1.0,0.0,0.0));
#323=DIRECTION('',(0.0,1.0,0.0));
#324=DIRECTION('',(1.0,8.67361737988404E-17,0.0));
#325=DIRECTION('',(0.0,-1.0,0.0));
#326=DIRECTION('',(-1.0,-1.73472347597681E-16,0.0));
#327=CARTESIAN_POINT('',(20.0,15.0,-6.0));
#328=DIRECTION('',(0.0,0.0,1.0));
#329=DIRECTION('',(-1.0,0.0,0.0));
#330=DIRECTION('',(0.0,0.0,-1.0));
#331=DIRECTION('',(0.0,0.0,-1.0));
#332=DIRECTION('',(0.0,0.0,-1.0));
#333=DIRECTION('',(0.0,0.0,-1.0));
ENDSEC;
END-ISO-10303-21;
