  0
SECTION
  2
HEADER
  9
$ACADVER
  1
AC1009
  9
$INSBASE
 10
0.0
 20
0.0
 30
0.0
  9
$EXTMIN
 10
1.000000E+20
 20
1.000000E+20
 30
1.000000E+20
  9
$EXTMAX
 10
-1.000000E+20
 20
-1.000000E+20
 30
-1.000000E+20
  9
$LIMMIN
 10
0.0
 20
0.0
  9
$LIMMAX
 10
0.0
 20
0.0
  9
$ORTHOMODE
 70
     0
  9
$REGENMODE
 70
     1
  9
$FILLMODE
 70
     1
  9
$QTEXTMODE
 70
     0
  9
$MIRRTEXT
 70
     1
  9
$DRAGMODE
 70
     2
  9
$LTSCALE
 40
1.0
  9
$OSMODE
 70
     0
  9
$ATTMODE
 70
     1
  9
$TEXTSIZE
 40
0.2
  9
$TRACEWID
 40
0.05
  9
$TEXTSTYLE
  7
STANDARD
  9
$CLAYER
  8
Layer_1
  9
$CELTYPE
  6
BYLAYER
  9
$CECOLOR
 62
   256
  9
$DIMSCALE
 40
1.0
  9
$DIMASZ
 40
0.18
  9
$DIMEXO
 40
0.0625
  9
$DIMDLI
 40
0.38
  9
$DIMRND
 40
0.0
  9
$DIMDLE
 40
0.0
  9
$DIMEXE
 40
0.18
  9
$DIMTP
 40
0.0
  9
$DIMTM
 40
0.0
  9
$DIMTXT
 40
0.18
  9
$DIMCEN
 40
0.09
  9
$DIMTSZ
 40
0.0
  9
$DIMTOL
 70
     0
  9
$DIMLIM
 70
     0
  9
$DIMTIH
 70
     1
  9
$DIMTOH
 70
     1
  9
$DIMSE1
 70
     0
  9
$DIMSE2
 70
     0
  9
$DIMTAD
 70
     0
  9
$DIMZIN
 70
     0
  9
$DIMBLK
  1

  9
$DIMASO
 70
     1
  9
$DIMSHO
 70
     1
  9
$DIMPOST
  1

  9
$DIMAPOST
  1

  9
$DIMALT
 70
     0
  9
$DIMALTD
 70
     2
  9
$DIMALTF
 40
25.4
  9
$DIMLFAC
 40
1.0
  9
$DIMTOFL
 70
     0
  9
$DIMTVP
 40
0.0
  9
$DIMTIX
 70
     0
  9
$DIMSOXD
 70
     0
  9
$DIMSAH
 70
     0
  9
$DIMBLK1
  1

  9
$DIMBLK2
  1

  9
$DIMSTYLE
  2
STANDARD
  9
$DIMCLRD
 70
     0
  9
$DIMCLRE
 70
     0
  9
$DIMCLRT
 70
     0
  9
$DIMTFAC
 40
1.0
  9
$DIMGAP
 40
0.09
  9
$LUNITS
 70
     2
  9
$LUPREC
 70
     4
  9
$AXISMODE
 70
     0
  9
$AXISUNIT
 10
0.0
 20
0.0
  9
$SKETCHINC
 40
0.1
  9
$FILLETRAD
 40
0.0
  9
$AUNITS
 70
     0
  9
$AUPREC
 70
     0
  9
$MENU
  1
acad
  9
$ELEVATION
 40
0.0
  9
$PELEVATION
 40
0.0
  9
$THICKNESS
 40
0.0
  9
$LIMCHECK
 70
     0
  9
$BLIPMODE
 70
     1
  9
$CHAMFERA
 40
0.0
  9
$CHAMFERB
 40
0.0
  9
$SKPOLY
 70
     0
  9
$TDCREATE
 40
0.000000000
  9
$TDUPDATE
 40
0.000000000
  9
$TDINDWG
 40
0.0000000000
  9
$TDUSRTIMER
 40
0.0000000000
  9
$USRTIMER
 70
     1
  9
$ANGBASE
 50
0.0
  9
$ANGDIR
 70
     0
  9
$PDMODE
 70
     0
  9
$PDSIZE
 40
0.0
  9
$PLINEWID
 40
0.0
  9
$COORDS
 70
     0
  9
$SPLFRAME
 70
     0
  9
$SPLINETYPE
 70
     6
  9
$SPLINESEGS
 70
     8
  9
$ATTDIA
 70
     0
  9
$ATTREQ
 70
     1
  9
$HANDLING
 70
     0
  9
$HANDSEED
  5
               0
  9
$SURFTAB1
 70
     6
  9
$SURFTAB2
 70
     6
  9
$SURFTYPE
 70
     6
  9
$SURFU
 70
     6
  9
$SURFV
 70
     6
  9
$UCSNAME
  2
UCS1
  9
$UCSORG
 10
0.0
 20
0.0
 30
0.0
  9
$UCSXDIR
 10
1.0
 20
0.0
 30
0.0
  9
$UCSYDIR
 10
0.0
 20
1.0
 30
0.0
  9
$PUCSNAME
  2

  9
$PUCSORG
 10
0.0
 20
0.0
 30
0.0
  9
$PUCSXDIR
 10
1.0
 20
0.0
 30
0.0
  9
$PUCSYDIR
 10
0.0
 20
1.0
 30
0.0
  9
$USERI1
 70
     0
  9
$USERI2
 70
     0
  9
$USERI3
 70
     0
  9
$USERI4
 70
     0
  9
$USERI5
 70
     0
  9
$USERR1
 40
0.0
  9
$USERR2
 40
0.0
  9
$USERR3
 40
0.0
  9
$USERR4
 40
0.0
  9
$USERR5
 40
0.0
  9
$WORLDVIEW
 70
     1
  9
$SHADEDGE
 70
     3
  9
$SHADEDIF
 70
    70
  9
$TILEMODE
 70
     1
  9
$MAXACTVP
 70
    16
  9
$PINSBASE
 10
0.0
 20
0.0
 30
0.0
  9
$PLIMCHECK
 70
     0
  9
$PEXTMIN
 10
1.000000E+20
 20
1.000000E+20
 30
1.000000E+20
  9
$PEXTMAX
 10
-1.000000E+20
 20
-1.000000E+20
 30
-1.000000E+20
  9
$PLIMMIN
 10
0.0
 20
0.0
  9
$PLIMMAX
 10
12.0
 20
9.0
  9
$UNITMODE
 70
     0
  9
$VISRETAIN
 70
     0
  0
ENDSEC
  0
SECTION
  2
TABLES
  0
TABLE
  2
LTYPE
 70
     1
  0
LTYPE
  2
CONTINUOUS
 70
     0
  3
Solid line
 72
    65
 73
     0
 40
0.0
  0
ENDTAB
  0
TABLE
  2
LAYER
 70
     1
  0
LAYER
  2
Layer_1
 70
     0
 62
     7
  6
CONTINUOUS
  0
ENDTAB
  0
TABLE
  2
UCS
 70
     2
  0
UCS
  2
WORLD
 70
     0
 10
0.0
 20
0.0
 30
0.0
 11
1.0
 21
0.0
 31
0.0
 12
0.0
 22
1.0
 32
0.0
  0
UCS
  2
UCS1
 70
     0
 10
0.0
 20
0.0
 30
0.0
 11
1.0
 21
0.0
 31
0.0
 12
0.0
 22
1.0
 32
0.0
  0
ENDTAB
  0
ENDSEC
  0
SECTION
  2
ENTITIES
  0
LINE
  8
Layer_1
 10
2.390686
 20
1.78769
 30
0.0
 11
1.452686
 21
-0.21231
 31
0.0
  0
ARC
  8
Layer_1
 10
0.529672
 20
0.767327
 30
0.0
 40
0.25
 50
205.126577
 51
301.505948
210
0.0
220
0.0
230
1.0
  0
ARC
  8
Layer_1
 10
1.443376
 20
0.78321
 30
0.0
 40
0.25
 50
240.485733
 51
333.511959
210
0.0
220
0.0
230
1.0
  0
ARC
  8
Layer_1
 10
1.755161
 20
1.408881
 30
0.0
 40
0.25
 50
-26.488041
 51
72.812675
210
0.0
220
0.0
230
1.0
  0
ARC
  8
Layer_1
 10
1.327384
 20
2.1
 30
0.0
 40
0.25
 50
-9.300716
 51
90.0
210
0.0
220
0.0
230
1.0
  0
ARC
  8
Layer_1
 10
0.672616
 20
2.1
 30
0.0
 40
0.25
 50
90.0
 51
189.300716
210
0.0
220
0.0
230
1.0
  0
ARC
  8
Layer_1
 10
0.230742
 20
1.404704
 30
0.0
 40
0.25
 50
105.825861
 51
205.126577
210
0.0
220
0.0
230
1.0
  0
ARC
  8
Layer_1
 10
1.0
 20
0.0
 30
0.0
 40
0.65
 50
60.485733
 51
121.505948
210
0.0
220
0.0
230
1.0
  0
LINE
  8
Layer_1
 10
1.667133
 20
0.671707
 30
0.0
 11
1.978918
 21
1.297378
 31
0.0
  0
ARC
  8
Layer_1
 10
1.938
 20
2.0
 30
0.0
 40
0.36875
 50
170.699284
 51
252.812675
210
0.0
220
0.0
230
1.0
  0
LINE
  8
Layer_1
 10
0.672616
 20
2.35
 30
0.0
 11
1.327384
 21
2.35
 31
0.0
  0
ARC
  8
Layer_1
 10
0.062
 20
2.0
 30
0.0
 40
0.36875
 50
-74.174139
 51
9.300716
210
0.0
220
0.0
230
1.0
  0
LINE
  8
Layer_1
 10
0.004399
 20
1.298549
 30
0.0
 11
0.303329
 21
0.661172
 31
0.0
  0
LINE
  8
Layer_1
 10
0.062
 20
2.5
 30
0.0
 11
1.938
 21
2.5
 31
0.0
  0
LINE
  8
Layer_1
 10
-0.390686
 20
1.78769
 30
0.0
 11
0.547314
 21
-0.21231
 31
0.0
  0
CIRCLE
  8
Layer_1
 10
1.0
 20
0.0
 30
0.0
 40
0.2813
210
0.0
220
0.0
230
1.0
  0
CIRCLE
  8
Layer_1
 10
0.0
 20
0.0
 30
0.0
 40
0.21875
210
0.0
220
0.0
230
1.0
  0
CIRCLE
  8
Layer_1
 10
2.0
 20
0.0
 30
0.0
 40
0.21875
210
0.0
220
0.0
230
1.0
  0
CIRCLE
  8
Layer_1
 10
1.938
 20
2.0
 30
0.0
 40
0.21875
210
0.0
220
0.0
230
1.0
  0
CIRCLE
  8
Layer_1
 10
0.062
 20
2.0
 30
0.0
 40
0.21875
210
0.0
220
0.0
230
1.0
  0
ARC
  8
Layer_1
 10
2.0
 20
0.0
 30
0.0
 40
0.5
 50
-90.0
 51
1.775601
210
0.0
220
0.0
230
1.0
  0
LINE
  8
Layer_1
 10
0.0
 20
-0.5
 30
0.0
 11
2.0
 21
-0.5
 31
0.0
  0
LINE
  8
Layer_1
 10
0.062
 20
2.5
 30
0.0
 11
1.938
 21
2.5
 31
0.0
  0
CIRCLE
  8
Layer_1
 10
1.0
 20
0.0
 30
0.0
 40
0.5
210
0.0
220
0.0
230
1.0
  0
LINE
  8
Layer_1
 10
2.43776
 20
2.015493
 30
0.0
 11
2.49976
 21
0.015493
 31
0.0
  0
LINE
  8
Layer_1
 10
-0.43776
 20
2.015493
 30
0.0
 11
-0.49976
 21
0.015493
 31
0.0
  0
ARC
  8
Layer_1
 10
1.938
 20
2.0
 30
0.0
 40
0.5
 50
-25.126577
 51
90.0
210
0.0
220
0.0
230
1.0
  0
ARC
  8
Layer_1
 10
0.062
 20
2.0
 30
0.0
 40
0.5
 50
90.0
 51
205.126577
210
0.0
220
0.0
230
1.0
  0
ARC
  8
Layer_1
 10
0.0
 20
0.0
 30
0.0
 40
0.5
 50
178.224399
 51
270.0
210
0.0
220
0.0
230
1.0
  0
ENDSEC
  0
EOF
