Autodesk Manufacturing Data Exchange Utility8.6.1009                    S      1
1H,,1H;,44HAutodesk Manufacturing Data Exchange Utility,54HC:\Users\AdmiG      1
nistrator\Desktop\FeatureCAM\mymodel.iges,65HAutodesk Manufacturing DataG      2
 Exchange Utility 8.6.1009 by Autodesk,16HVersion 8.6.1009,32,38,6,308, G      3
15,44HAutodesk Manufacturing Data Exchange Utility,1.,2,2HMM,1,0.,15H202G      4
00403.104826,0.001,100000.,13HAdministrator,4HUSER,11,0,15H20200403.1048G      5
26;                                                                     G      6
     126       1       0       1       0       0       0       000000001D      1
     126       0      -3       3       0                       3       0D      2
     314       4       0       1       0       0       0       000010201D      3
     314       0       1       1       0                       3       0D      4
     314       5       0       1       0       0       0       000000200D      5
     314       0       7       1       0                               0D      6
     143       6       0       1       0       0       0       000000001D      7
     143       0      -5       1       0                       2       0D      8
     128       7       0       1       0       0       0       001010001D      9
     128       0      -5      17       0                       2       0D     10
     141      24       0       1       0       0       0       000010001D     11
     141       0      -5       1       0                       2       0D     12
     106      25       0       1       0       0       0       000010501D     13
     106       0      -5       1      11                       2       0D     14
     126      26       0       1       0       0       0       000010001D     15
     126       0      -5       2       0                       2       0D     16
     106      28       0       1       0       0       0       000010501D     17
     106       0      -5       1      11                       2       0D     18
     126      29       0       1       0       0       0       000010001D     19
     126       0      -5       2       0                       2       0D     20
     106      31       0       1       0       0       0       000010501D     21
     106       0      -5       1      11                       2       0D     22
     126      32       0       1       0       0       0       000010001D     23
     126       0      -5       2       0                       2       0D     24
     106      34       0       1       0       0       0       000010501D     25
     106       0      -5       1      11                       2       0D     26
     126      35       0       1       0       0       0       000010001D     27
     126       0      -5       2       0                       2       0D     28
     143      37       0       1       0       0       0       000000001D     29
     143       0      -5       1       0                       1       0D     30
     128      38       0       1       0       0       0       001010001D     31
     128       0      -5      68       0                       1       0D     32
     141     106       0       1       0       0       0       000010001D     33
     141       0      -5       1       0                       1       0D     34
     106     107       0       1       0       0       0       000010501D     35
     106       0      -5      81      11                       1       0D     36
     126     188       0       1       0       0       0       000010001D     37
     126       0      -5      79       0                       1       0D     38
126,7,1,1,1,1,0,0.,0.,1.,1.,2.,2.,3.,3.,4.,4.,1.,1.,1.,1.,1.,1.,       1P      1
1.,1.,124.,-35.,0.,242.,-35.,0.,242.,-35.,0.,242.,22.,0.,242.,         1P      2
22.,0.,124.,22.,0.,124.,22.,0.,124.,-35.,0.,0.,4.,0.,0.,1.;            1P      3
314,0.,40.,10.,12Hrgb_colour_1;                                        3P      4
314,0.,50.,100.,12Hrgb_colour_2;                                       5P      5
143,1,9,1,11;                                                          7P      6
128,6,6,6,6,0,0,1,0,0,1.,1.,1.,1.,1.,1.,1.,2.,2.,2.,2.,2.,2.,2.,       9P      7
1.,1.,1.,1.,1.,1.,1.,2.,2.,2.,2.,2.,2.,2.,1.,1.,1.,1.,1.,1.,1.,        9P      8
1.,1.,1.,1.,1.,1.,1.,1.,1.,1.,1.,1.,1.,1.,1.,1.,1.,1.,1.,1.,1.,        9P      9
1.,1.,1.,1.,1.,1.,1.,1.,1.,1.,1.,1.,1.,1.,1.,1.,1.,1.,1.,1.,1.,        9P     10
242.,-35.,0.,242.,-25.5,0.,242.,-16.,0.,242.,-6.5,0.,242.,3.,0.,       9P     11
242.,12.5,0.,242.,22.,0.,222.3333,-35.,0.,222.3333,-25.5,0.,           9P     12
222.3333,-16.,0.,222.3333,-6.5,0.,222.3333,3.,0.,222.3333,12.5,        9P     13
0.,222.3333,22.,0.,202.6667,-35.,0.,202.6667,-25.5,0.,202.6667,        9P     14
-16.,0.,202.6667,-6.5,0.,202.6667,3.,0.,202.6667,12.5,0.,              9P     15
202.6667,22.,0.,183.,-35.,0.,183.,-25.5,0.,183.,-16.,0.,183.,          9P     16
-6.5,0.,183.,3.,0.,183.,12.5,0.,183.,22.,0.,163.3333,-35.,0.,          9P     17
163.3333,-25.5,0.,163.3333,-16.,0.,163.3333,-6.5,0.,163.3333,3.,       9P     18
0.,163.3333,12.5,0.,163.3333,22.,0.,143.6667,-35.,0.,143.6667,         9P     19
-25.5,0.,143.6667,-16.,0.,143.6667,-6.5,0.,143.6667,3.,0.,             9P     20
143.6667,12.5,0.,143.6667,22.,0.,124.,-35.,0.,124.,-25.5,0.,           9P     21
124.,-16.,0.,124.,-6.5,0.,124.,3.,0.,124.,12.5,0.,124.,22.,0.,         9P     22
1.,2.,1.,2.;                                                           9P     23
141,1,2,9,4,15,1,1,13,19,1,1,17,23,1,1,21,27,1,1,25;                  11P     24
106,1,2,0.,1.,1.,2.,1.;                                               13P     25
126,1,1,1,0,1,0,0.,0.,1.,1.,1.,1.,242.,-35.,0.,242.,22.,0.,0.,        15P     26
1.,0.,0.,1.;                                                          15P     27
106,1,2,0.,2.,1.,2.,2.;                                               17P     28
126,1,1,1,0,1,0,0.,0.,1.,1.,1.,1.,242.,22.,0.,124.,22.,0.,0.,1.,      19P     29
0.,-1.,0.;                                                            19P     30
106,1,2,0.,2.,2.,1.,2.;                                               21P     31
126,1,1,1,0,1,0,0.,0.,1.,1.,1.,1.,124.,22.,0.,124.,-35.,0.,0.,        23P     32
1.,0.,0.,-1.;                                                         23P     33
106,1,2,0.,1.,2.,1.,1.;                                               25P     34
126,1,1,1,0,1,0,0.,0.,1.,1.,1.,1.,124.,-35.,0.,242.,-35.,0.,0.,       27P     35
1.,0.,1.,0.;                                                          27P     36
143,1,31,1,33;                                                        29P     37
128,6,24,6,6,0,0,1,0,0,1.,1.,1.,1.,1.,1.,1.,2.,2.,2.,2.,2.,2.,        31P     38
2.,1.,1.,1.,1.,1.,1.,1.,2.,2.,2.,2.,2.,2.,3.,3.,3.,3.,3.,3.,4.,       31P     39
4.,4.,4.,4.,4.,5.,5.,5.,5.,5.,5.,5.,1.,1.,1.,1.,1.,1.,1.,1.,1.,       31P     40
1.,1.,1.,1.,1.,1.,1.,1.,1.,1.,1.,1.,1.,1.,1.,1.,1.,1.,1.,1.,1.,       31P     41
1.,1.,1.,1.,1.,1.,1.,1.,1.,1.,1.,1.,1.,1.,1.,1.,1.,1.,1.,1.,1.,       31P     42
1.,1.,1.,1.,1.,1.,1.,1.,1.,1.,1.,1.,1.,1.,1.,1.,1.,1.,1.,1.,1.,       31P     43
1.,1.,1.,1.,1.,1.,1.,1.,1.,1.,1.,1.,1.,1.,1.,1.,1.,1.,1.,1.,1.,       31P     44
1.,1.,1.,1.,1.,1.,1.,1.,1.,1.,1.,1.,1.,1.,1.,1.,1.,1.,1.,1.,1.,       31P     45
1.,1.,1.,1.,1.,1.,1.,1.,1.,1.,1.,1.,1.,1.,1.,1.,1.,1.,1.,1.,1.,       31P     46
1.,1.,1.,1.,1.,1.,1.,1.,1.,1.,1.,1.,1.,1.,1.,1.,1.,1.,1.,1.,1.,       31P     47
1.,1.,1.,1.,1.,1.,1.,1.,1.,1.,1.,1.,1.,1.,1.,1.,1.,1.,1.,-60.,        31P     48
22.,0.,-60.,10.,0.,-60.,-2.,0.,-60.,-14.,0.,-60.,-26.,0.,-60.,        31P     49
-38.,0.,-60.,-50.,0.,-55.96383,25.68837,0.,-55.96383,13.68837,        31P     50
0.,-55.96383,1.688374,0.,-55.96383,-10.31163,0.,-55.96383,            31P     51
-22.31163,0.,-55.96383,-34.31163,0.,-55.96383,-46.31163,0.,           31P     52
-51.52489,28.88704,0.,-51.52489,16.88704,0.,-51.52489,4.887045,       31P     53
0.,-51.52489,-7.112955,0.,-51.52489,-19.11296,0.,-51.52489,           31P     54
-31.11296,0.,-51.52489,-43.11296,0.,-46.7461,31.50678,0.,             31P     55
-46.7461,19.50678,0.,-46.7461,7.506778,0.,-46.7461,-4.493222,0.,      31P     56
-46.7461,-16.49322,0.,-46.7461,-28.49322,0.,-46.7461,-40.49322,       31P     57
0.,-41.6904,33.45834,0.,-41.6904,21.45834,0.,-41.6904,9.458338,       31P     58
0.,-41.6904,-2.541662,0.,-41.6904,-14.54166,0.,-41.6904,              31P     59
-26.54166,0.,-41.6904,-38.54166,0.,-36.42073,34.65249,0.,             31P     60
-36.42073,22.65249,0.,-36.42073,10.65249,0.,-36.42073,-1.34751,       31P     61
0.,-36.42073,-13.34751,0.,-36.42073,-25.34751,0.,-36.42073,           31P     62
-37.34751,0.,-31.,35.,0.,-31.,23.,0.,-31.,11.,0.,-31.,-1.,0.,         31P     63
-31.,-13.,0.,-31.,-25.,0.,-31.,-37.,0.,-22.46314,35.54728,0.,         31P     64
-22.46314,23.54728,0.,-22.46314,11.54728,0.,-22.46314,                31P     65
-0.4527226,0.,-22.46314,-12.45272,0.,-22.46314,-24.45272,0.,          31P     66
-22.46314,-36.45272,0.,-14.21824,33.65917,0.,-14.21824,21.65917,      31P     67
0.,-14.21824,9.659171,0.,-14.21824,-2.340829,0.,-14.21824,            31P     68
-14.34083,0.,-14.21824,-26.34083,0.,-14.21824,-38.34083,0.,           31P     69
-6.107392,30.44804,0.,-6.107392,18.44804,0.,-6.107392,6.448035,       31P     70
0.,-6.107392,-5.551965,0.,-6.107392,-17.55196,0.,-6.107392,           31P     71
-29.55196,0.,-6.107392,-41.55196,0.,2.027323,27.02623,0.,             31P     72
2.027323,15.02623,0.,2.027323,3.026225,0.,2.027323,-8.973775,0.,      31P     73
2.027323,-20.97377,0.,2.027323,-32.97377,0.,2.027323,-44.97377,       31P     74
0.,10.34382,24.5061,0.,10.34382,12.5061,0.,10.34382,0.5060951,        31P     75
0.,10.34382,-11.4939,0.,10.34382,-23.4939,0.,10.34382,-35.4939,       31P     76
0.,10.34382,-47.4939,0.,19.,24.,0.,19.,12.,0.,19.,8.881784D-016,      31P     77
0.,19.,-12.,0.,19.,-24.,0.,19.,-36.,0.,19.,-48.,0.,27.80216,          31P     78
23.48537,0.,27.80216,11.48537,0.,27.80216,-0.5146299,0.,              31P     79
27.80216,-12.51463,0.,27.80216,-24.51463,0.,27.80216,-36.51463,       31P     80
0.,27.80216,-48.51463,0.,36.50172,24.8844,0.,36.50172,12.8844,        31P     81
0.,36.50172,0.884405,0.,36.50172,-11.1156,0.,36.50172,-23.1156,       31P     82
0.,36.50172,-35.1156,0.,36.50172,-47.1156,0.,45.13498,27.16625,       31P     83
0.,45.13498,15.16625,0.,45.13498,3.166245,0.,45.13498,-8.833755,      31P     84
0.,45.13498,-20.83375,0.,45.13498,-32.83375,0.,45.13498,              31P     85
-44.83375,0.,53.73824,29.30003,0.,53.73824,17.30003,0.,53.73824,      31P     86
5.300031,0.,53.73824,-6.699969,0.,53.73824,-18.69997,0.,              31P     87
53.73824,-30.69997,0.,53.73824,-42.69997,0.,62.34781,30.2549,0.,      31P     88
62.34781,18.2549,0.,62.34781,6.254902,0.,62.34781,-5.745098,0.,       31P     89
62.34781,-17.7451,0.,62.34781,-29.7451,0.,62.34781,-41.7451,0.,       31P     90
71.,29.,0.,71.,17.,0.,71.,5.,0.,71.,-7.,0.,71.,-19.,0.,71.,-31.,      31P     91
0.,71.,-43.,0.,78.50634,27.91129,0.,78.50634,15.91129,0.,             31P     92
78.50634,3.91129,0.,78.50634,-8.08871,0.,78.50634,-20.08871,0.,       31P     93
78.50634,-32.08871,0.,78.50634,-44.08871,0.,85.82196,25.97763,        31P     94
0.,85.82196,13.97763,0.,85.82196,1.977627,0.,85.82196,-10.02237,      31P     95
0.,85.82196,-22.02237,0.,85.82196,-34.02237,0.,85.82196,              31P     96
-46.02237,0.,92.888,23.25934,0.,92.888,11.25934,0.,92.888,            31P     97
-0.7406598,0.,92.888,-12.74066,0.,92.888,-24.74066,0.,92.888,         31P     98
-36.74066,0.,92.888,-48.74066,0.,99.64559,19.81676,0.,99.64559,       31P     99
7.816755,0.,99.64559,-4.183245,0.,99.64559,-16.18324,0.,              31P    100
99.64559,-28.18324,0.,99.64559,-40.18324,0.,99.64559,-52.18324,       31P    101
0.,106.0359,15.7102,0.,106.0359,3.7102,0.,106.0359,-8.2898,0.,        31P    102
106.0359,-20.2898,0.,106.0359,-32.2898,0.,106.0359,-44.2898,0.,       31P    103
106.0359,-56.2898,0.,112.,11.,0.,112.,-1.,0.,112.,-13.,0.,112.,       31P    104
-25.,0.,112.,-37.,0.,112.,-49.,0.,112.,-61.,0.,1.,2.,1.,5.;           31P    105
141,1,2,31,1,37,1,1,35;                                               33P    106
106,1,205,0.,1.179496488,1.969186603,1.337829812,1.969186538,         35P    107
1.496163145,1.969186538,1.654496478,1.969186538,1.812829812,          35P    108
1.969186538,1.971163145,1.969186538,1.972222222,2.,1.972998551,       35P    109
2.022651952,1.973275752,2.045303904,1.973075373,2.067955856,          35P    110
1.972418962,2.090607808,1.971328068,2.11325976,1.969824239,           35P    111
2.135911712,1.967929022,2.158563665,1.965663967,2.181215617,          35P    112
1.96305062,2.203867569,1.96011053,2.226519521,1.956865245,            35P    113
2.249171473,1.953336313,2.271823425,1.949545283,2.294475377,          35P    114
1.945513702,2.317127329,1.941263119,2.339779281,1.936815081,          35P    115
2.362431233,1.932191137,2.385083185,1.927412835,2.407735137,          35P    116
1.922501722,2.430387089,1.917479348,2.453039042,1.91239328,           35P    117
2.475576535,1.907239626,2.498114028,1.902039608,2.520651521,          35P    118
1.89681445,2.543189015,1.891585375,2.565726508,1.886373606,           35P    119
2.588264001,1.881200366,2.610801494,1.876086878,2.633338987,          35P    120
1.871054365,2.655876481,1.866124051,2.678413974,1.861317158,          35P    121
2.700951467,1.85665491,2.72348896,1.852158529,2.746026454,            35P    122
1.84784924,2.768563947,1.843748264,2.79110144,1.839876825,            35P    123
2.813638933,1.836256146,2.836176427,1.83290745,2.85871392,            35P    124
1.82985196,2.881251413,1.8271109,2.903788906,1.824705493,             35P    125
2.9263264,1.823003751,2.9447448,1.82155194,2.9631632,                 35P    126
1.820361643,2.9815816,1.819444444,3.,1.818649498,3.023645914,         35P    127
1.818277663,3.047291828,1.818306226,3.070937741,1.818712471,          35P    128
3.094583655,1.819473682,3.118229569,1.820567145,3.141875483,          35P    129
1.821970144,3.165521397,1.823659964,3.189167311,1.82561389,           35P    130
3.212813224,1.827809206,3.236459138,1.830223198,3.260105052,          35P    131
1.832833151,3.283750966,1.835616348,3.30739688,1.838550075,           35P    132
3.331042794,1.841611617,3.354688707,1.844778258,3.378334621,          35P    133
1.848074465,3.40232035,1.851431732,3.426306078,1.854826351,           35P    134
3.450291807,1.858234613,3.474277535,1.86163281,3.498263263,           35P    135
1.864997232,3.522248992,1.868304172,3.54623472,1.87152992,            35P    136
3.570220449,1.874650768,3.594206177,1.877643007,3.618191906,          35P    137
1.880482929,3.642177634,1.883146824,3.666163362,1.885610985,          35P    138
3.690149091,1.887851703,3.714134819,1.889845268,3.738120548,          35P    139
1.891567973,3.762106276,1.892996108,3.786092004,1.894105965,          35P    140
3.810077733,1.894873835,3.834063461,1.895273511,3.857768681,          35P    141
1.895293109,3.881473901,1.894909741,3.905179121,1.894100522,          35P    142
3.928884341,1.892842564,3.95258956,1.891112982,3.97629478,            35P    143
1.888888889,4.,1.885193808,4.03794451,1.880997324,4.07588902,         35P    144
1.876304931,4.11383353,1.871122121,4.151778041,1.865454386,           35P    145
4.189722551,1.859307222,4.227667061,1.852686119,4.265611571,          35P    146
1.845596571,4.303556081,1.838044071,4.341500591,1.679710738,          35P    147
4.341500591,1.521377405,4.341500591,1.363044071,4.341500591,          35P    148
1.204710738,4.341500591,1.046377405,4.341500591,1.053929904,          35P    149
4.303556081,1.061019452,4.265611571,1.067640555,4.227667061,          35P    150
1.07378772,4.189722551,1.079455454,4.151778041,1.084638264,           35P    151
4.11383353,1.089330658,4.07588902,1.093527141,4.03794451,             35P    152
1.097222222,4.,1.099446315,3.97629478,1.101175898,3.95258956,         35P    153
1.102433855,3.928884341,1.103243074,3.905179121,1.103626442,          35P    154
3.881473901,1.103606845,3.857768681,1.103207169,3.834063461,          35P    155
1.102439298,3.810077733,1.101329441,3.786092004,1.099901306,          35P    156
3.762106276,1.098178601,3.738120548,1.096185036,3.714134819,          35P    157
1.093944319,3.690149091,1.091480158,3.666163362,1.088816262,          35P    158
3.642177634,1.08597634,3.618191906,1.082984101,3.594206177,           35P    159
1.079863253,3.570220449,1.076637505,3.54623472,1.073330565,           35P    160
3.522248992,1.069966143,3.498263263,1.066567946,3.474277535,          35P    161
1.063159684,3.450291807,1.059765065,3.426306078,1.056407798,          35P    162
3.40232035,1.053111592,3.378334621,1.04994495,3.354688707,            35P    163
1.046883409,3.331042794,1.043949681,3.30739688,1.041166484,           35P    164
3.283750966,1.038556532,3.260105052,1.03614254,3.236459138,           35P    165
1.033947223,3.212813224,1.031993297,3.189167311,1.030303477,          35P    166
3.165521397,1.028900478,3.141875483,1.027807015,3.118229569,          35P    167
1.027045804,3.094583655,1.026639559,3.070937741,1.026610997,          35P    168
3.047291828,1.026982831,3.023645914,1.027777778,3.,1.028694977,       35P    169
2.9815816,1.029885273,2.9631632,1.031337084,2.9447448,                35P    170
1.033038826,2.9263264,1.035444233,2.903788906,1.038185294,            35P    171
2.881251413,1.041240783,2.85871392,1.044589479,2.836176427,           35P    172
1.048210158,2.813638933,1.052081597,2.79110144,1.056182573,           35P    173
2.768563947,1.060491863,2.746026454,1.064988243,2.72348896,           35P    174
1.069650492,2.700951467,1.074457384,2.678413974,1.079387699,          35P    175
2.655876481,1.084420211,2.633338987,1.089533699,2.610801494,          35P    176
1.094706939,2.588264001,1.099918708,2.565726508,1.105147784,          35P    177
2.543189015,1.110372941,2.520651521,1.115572959,2.498114028,          35P    178
1.120726613,2.475576535,1.125812681,2.453039042,1.130835056,          35P    179
2.430387089,1.135746168,2.407735137,1.14052447,2.385083185,           35P    180
1.145148414,2.362431233,1.149596452,2.339779281,1.153847036,          35P    181
2.317127329,1.157878616,2.294475377,1.161669647,2.271823425,          35P    182
1.165198578,2.249171473,1.168443863,2.226519521,1.171383953,          35P    183
2.203867569,1.1739973,2.181215617,1.176262356,2.158563665,            35P    184
1.178157572,2.135911712,1.179661402,2.11325976,1.180752296,           35P    185
2.090607808,1.181408706,2.067955856,1.181609085,2.045303904,          35P    186
1.181331884,2.022651952,1.180555556,2.,1.179496488,1.969186603;       35P    187
126,204,1,1,1,1,0,0.,0.,1.,2.,3.,4.,5.,6.,7.,8.,9.,10.,11.,12.,       37P    188
13.,14.,15.,16.,17.,18.,19.,20.,21.,22.,23.,24.,25.,26.,27.,28.,      37P    189
29.,30.,31.,32.,33.,34.,35.,36.,37.,38.,39.,40.,41.,42.,43.,44.,      37P    190
45.,46.,47.,48.,49.,50.,51.,52.,53.,54.,55.,56.,57.,58.,59.,60.,      37P    191
61.,62.,63.,64.,65.,66.,67.,68.,69.,70.,71.,72.,73.,74.,75.,76.,      37P    192
77.,78.,79.,80.,81.,82.,83.,84.,85.,86.,87.,88.,89.,90.,91.,92.,      37P    193
93.,94.,95.,96.,97.,98.,99.,100.,101.,102.,103.,104.,105.,106.,       37P    194
107.,108.,109.,110.,111.,112.,113.,114.,115.,116.,117.,118.,          37P    195
119.,120.,121.,122.,123.,124.,125.,126.,127.,128.,129.,130.,          37P    196
131.,132.,133.,134.,135.,136.,137.,138.,139.,140.,141.,142.,          37P    197
143.,144.,145.,146.,147.,148.,149.,150.,151.,152.,153.,154.,          37P    198
155.,156.,157.,158.,159.,160.,161.,162.,163.,164.,165.,166.,          37P    199
167.,168.,169.,170.,171.,172.,173.,174.,175.,176.,177.,178.,          37P    200
179.,180.,181.,182.,183.,184.,185.,186.,187.,188.,189.,190.,          37P    201
191.,192.,193.,194.,195.,196.,197.,198.,199.,200.,201.,202.,          37P    202
203.,204.,204.,1.,1.,1.,1.,1.,1.,1.,1.,1.,1.,1.,1.,1.,1.,1.,1.,       37P    203
1.,1.,1.,1.,1.,1.,1.,1.,1.,1.,1.,1.,1.,1.,1.,1.,1.,1.,1.,1.,1.,       37P    204
1.,1.,1.,1.,1.,1.,1.,1.,1.,1.,1.,1.,1.,1.,1.,1.,1.,1.,1.,1.,1.,       37P    205
1.,1.,1.,1.,1.,1.,1.,1.,1.,1.,1.,1.,1.,1.,1.,1.,1.,1.,1.,1.,1.,       37P    206
1.,1.,1.,1.,1.,1.,1.,1.,1.,1.,1.,1.,1.,1.,1.,1.,1.,1.,1.,1.,1.,       37P    207
1.,1.,1.,1.,1.,1.,1.,1.,1.,1.,1.,1.,1.,1.,1.,1.,1.,1.,1.,1.,1.,       37P    208
1.,1.,1.,1.,1.,1.,1.,1.,1.,1.,1.,1.,1.,1.,1.,1.,1.,1.,1.,1.,1.,       37P    209
1.,1.,1.,1.,1.,1.,1.,1.,1.,1.,1.,1.,1.,1.,1.,1.,1.,1.,1.,1.,1.,       37P    210
1.,1.,1.,1.,1.,1.,1.,1.,1.,1.,1.,1.,1.,1.,1.,1.,1.,1.,1.,1.,1.,       37P    211
1.,1.,1.,1.,1.,1.,1.,1.,1.,1.,1.,1.,1.,1.,1.,1.,1.,1.,1.,1.,1.,       37P    212
-32.,22.,0.,-32.,10.6,0.,-32.,-0.8,0.,-32.,-12.2,0.,-32.,-23.6,       37P    213
0.,-32.,-35.,0.,-31.,-35.,0.,-29.84195,-35.,0.,-28.68818,-35.,        37P    214
0.,-27.53846,-35.,0.,-26.39257,-35.,0.,-25.25029,-35.,0.,             37P    215
-24.11141,-35.,0.,-22.9757,-35.,0.,-21.84295,-35.,0.,-20.71292,       37P    216
-35.,0.,-19.58541,-35.,0.,-18.46019,-35.,0.,-17.33704,-35.,0.,        37P    217
-16.21575,-35.,0.,-15.09608,-35.,0.,-13.97782,-35.,0.,-12.86076,      37P    218
-35.,0.,-11.74467,-35.,0.,-10.62932,-35.,0.,-9.514505,-35.,0.,        37P    219
-8.4,-35.,0.,-7.291215,-35.,0.,-6.182302,-35.,0.,-5.073043,-35.,      37P    220
0.,-3.963221,-35.,0.,-2.85262,-35.,0.,-1.741023,-35.,0.,              37P    221
-0.6282128,-35.,0.,0.4860277,-35.,0.,1.601915,-35.,0.,2.719667,       37P    222
-35.,0.,3.839499,-35.,0.,4.96163,-35.,0.,6.086275,-35.,0.,            37P    223
7.213652,-35.,0.,8.343977,-35.,0.,9.477468,-35.,0.,10.61434,          37P    224
-35.,0.,11.75481,-35.,0.,12.8991,-35.,0.,14.04743,-35.,0.,15.2,       37P    225
-35.,0.,16.14523,-35.,0.,17.09356,-35.,0.,18.04511,-35.,0.,19.,       37P    226
-35.,0.,20.24796,-35.,0.,21.49426,-35.,0.,22.73895,-35.,0.,           37P    227
23.98209,-35.,0.,25.22374,-35.,0.,26.46396,-35.,0.,27.7028,-35.,      37P    228
0.,28.94033,-35.,0.,30.17659,-35.,0.,31.41166,-35.,0.,32.64557,       37P    229
-35.,0.,33.8784,-35.,0.,35.1102,-35.,0.,36.34103,-35.,0.,             37P    230
37.57094,-35.,0.,38.8,-35.,0.,40.0459,-35.,0.,41.29104,-35.,0.,       37P    231
42.53548,-35.,0.,43.77927,-35.,0.,45.02249,-35.,0.,46.26518,          37P    232
-35.,0.,47.50741,-35.,0.,48.74923,-35.,0.,49.99072,-35.,0.,           37P    233
51.23192,-35.,0.,52.4729,-35.,0.,53.71372,-35.,0.,54.95444,-35.,      37P    234
0.,56.19512,-35.,0.,57.43582,-35.,0.,58.67659,-35.,0.,59.91751,       37P    235
-35.,0.,61.15863,-35.,0.,62.4,-35.,0.,63.62717,-35.,0.,64.85471,      37P    236
-35.,0.,66.08268,-35.,0.,67.31114,-35.,0.,68.54014,-35.,0.,           37P    237
69.76974,-35.,0.,71.,-35.,0.,72.70476,-35.,0.,74.4009,-35.,0.,        37P    238
76.08803,-35.,0.,77.76577,-35.,0.,79.43372,-35.,0.,81.09151,          37P    239
-35.,0.,82.73874,-35.,0.,84.37503,-35.,0.,86.,-35.,0.,86.,-23.6,      37P    240
0.,86.,-12.2,0.,86.,-0.8,0.,86.,10.6,0.,86.,22.,0.,84.37503,22.,      37P    241
0.,82.73874,22.,0.,81.09151,22.,0.,79.43372,22.,0.,77.76577,22.,      37P    242
0.,76.08803,22.,0.,74.4009,22.,0.,72.70476,22.,0.,71.,22.,0.,         37P    243
69.76974,22.,0.,68.54014,22.,0.,67.31114,22.,0.,66.08268,22.,0.,      37P    244
64.85471,22.,0.,63.62717,22.,0.,62.4,22.,0.,61.15863,22.,0.,          37P    245
59.91751,22.,0.,58.67659,22.,0.,57.43582,22.,0.,56.19512,22.,0.,      37P    246
54.95444,22.,0.,53.71372,22.,0.,52.4729,22.,0.,51.23192,22.,0.,       37P    247
49.99072,22.,0.,48.74923,22.,0.,47.50741,22.,0.,46.26518,22.,0.,      37P    248
45.02249,22.,0.,43.77927,22.,0.,42.53548,22.,0.,41.29104,22.,0.,      37P    249
40.0459,22.,0.,38.8,22.,0.,37.57094,22.,0.,36.34103,22.,0.,           37P    250
35.1102,22.,0.,33.8784,22.,0.,32.64557,22.,0.,31.41166,22.,0.,        37P    251
30.17659,22.,0.,28.94033,22.,0.,27.7028,22.,0.,26.46396,22.,0.,       37P    252
25.22374,22.,0.,23.98209,22.,0.,22.73895,22.,0.,21.49426,22.,0.,      37P    253
20.24796,22.,0.,19.,22.,0.,18.04511,22.,0.,17.09356,22.,0.,           37P    254
16.14523,22.,0.,15.2,22.,0.,14.04743,22.,0.,12.8991,22.,0.,           37P    255
11.75481,22.,0.,10.61434,22.,0.,9.477468,22.,0.,8.343977,22.,0.,      37P    256
7.213652,22.,0.,6.086275,22.,0.,4.96163,22.,0.,3.839499,22.,0.,       37P    257
2.719667,22.,0.,1.601915,22.,0.,0.4860277,22.,0.,-0.6282128,22.,      37P    258
0.,-1.741023,22.,0.,-2.85262,22.,0.,-3.963221,22.,0.,-5.073043,       37P    259
22.,0.,-6.182302,22.,0.,-7.291215,22.,0.,-8.4,22.,0.,-9.514505,       37P    260
22.,0.,-10.62932,22.,0.,-11.74467,22.,0.,-12.86076,22.,0.,            37P    261
-13.97782,22.,0.,-15.09608,22.,0.,-16.21575,22.,0.,-17.33704,         37P    262
22.,0.,-18.46019,22.,0.,-19.58541,22.,0.,-20.71292,22.,0.,            37P    263
-21.84295,22.,0.,-22.9757,22.,0.,-24.11141,22.,0.,-25.25029,22.,      37P    264
0.,-26.39257,22.,0.,-27.53846,22.,0.,-28.68818,22.,0.,-29.84195,      37P    265
22.,0.,-31.,22.,0.,-32.,22.,0.,0.,204.,0.,0.,1.;                      37P    266
S      1G      6D     38P    266                                        T      1
