ISO-10303-21;
HEADER;
FILE_DESCRIPTION(('STEP AP214'),'1');
FILE_NAME('result.step','2024-10-16T03:10:36',(' '),(' '),'Spatial InterOp 3D',' ',' ');
FILE_SCHEMA(('automotive_design'));
ENDSEC;
DATA;
#1=MECHANICAL_DESIGN_GEOMETRIC_PRESENTATION_REPRESENTATION(' ',(#10,#11,#12,#13,#14,#15,#16,#17,#18,#19,#20,#21,#22,#23,#24,#25,#26,#27,#28,#29,#30,#31,#32,#33,#34,#35,#36,#37,#38,#39,#40,#41,#42,#43,#44,#45,#46,#47),#6);
#2=PRODUCT_DEFINITION_CONTEXT('',#48,'design');
#3=APPLICATION_PROTOCOL_DEFINITION('INTERNATIONAL STANDARD','automotive_design',1994,#48);
#4=PRODUCT_CATEGORY_RELATIONSHIP('NONE','NONE',#49,#50);
#5=SHAPE_DEFINITION_REPRESENTATION(#51,#52);
#6= (GEOMETRIC_REPRESENTATION_CONTEXT(3)GLOBAL_UNCERTAINTY_ASSIGNED_CONTEXT((#55))GLOBAL_UNIT_ASSIGNED_CONTEXT((#57,#58,#59))REPRESENTATION_CONTEXT('NONE','WORKSPACE'));
#10=STYLED_ITEM('',(#61),#62);
#11=STYLED_ITEM('',(#63),#64);
#12=STYLED_ITEM('',(#65),#66);
#13=STYLED_ITEM('',(#67),#68);
#14=STYLED_ITEM('',(#69),#70);
#15=STYLED_ITEM('',(#71),#72);
#16=STYLED_ITEM('',(#73),#74);
#17=STYLED_ITEM('',(#75),#76);
#18=STYLED_ITEM('',(#77),#78);
#19=STYLED_ITEM('',(#79),#80);
#20=STYLED_ITEM('',(#81),#82);
#21=STYLED_ITEM('',(#83),#84);
#22=STYLED_ITEM('',(#85),#86);
#23=STYLED_ITEM('',(#87),#88);
#24=STYLED_ITEM('',(#89),#90);
#25=STYLED_ITEM('',(#91),#92);
#26=STYLED_ITEM('',(#93),#94);
#27=STYLED_ITEM('',(#95),#96);
#28=STYLED_ITEM('',(#97),#98);
#29=STYLED_ITEM('',(#99),#100);
#30=STYLED_ITEM('',(#101),#102);
#31=STYLED_ITEM('',(#103),#104);
#32=STYLED_ITEM('',(#105),#106);
#33=STYLED_ITEM('',(#107),#108);
#34=STYLED_ITEM('',(#109),#110);
#35=STYLED_ITEM('',(#111),#112);
#36=STYLED_ITEM('',(#113),#114);
#37=STYLED_ITEM('',(#115),#116);
#38=STYLED_ITEM('',(#117),#118);
#39=STYLED_ITEM('',(#119),#120);
#40=STYLED_ITEM('',(#121),#122);
#41=STYLED_ITEM('',(#123),#124);
#42=STYLED_ITEM('',(#125),#126);
#43=STYLED_ITEM('',(#127),#128);
#44=STYLED_ITEM('',(#129),#130);
#45=STYLED_ITEM('',(#131),#132);
#46=STYLED_ITEM('',(#133),#134);
#47=STYLED_ITEM('',(#135),#136);
#48=APPLICATION_CONTEXT(' ');
#49=PRODUCT_CATEGORY('part','NONE');
#50=PRODUCT_RELATED_PRODUCT_CATEGORY('detail',' ',(#137));
#51=PRODUCT_DEFINITION_SHAPE('NONE','NONE',#138);
#52=ADVANCED_BREP_SHAPE_REPRESENTATION('001',(#139,#140),#6);
#55=UNCERTAINTY_MEASURE_WITH_UNIT(LENGTH_MEASURE(1.0E-06),#57,'','');
#57= (CONVERSION_BASED_UNIT('MILLIMETRE',#143)LENGTH_UNIT()NAMED_UNIT(#146));
#58= (NAMED_UNIT(#148)PLANE_ANGLE_UNIT()SI_UNIT($,.RADIAN.));
#59= (NAMED_UNIT(#148)SOLID_ANGLE_UNIT()SI_UNIT($,.STERADIAN.));
#61=PRESENTATION_STYLE_ASSIGNMENT((#154));
#62=ADVANCED_FACE('',(#155),#156,.F.);
#63=PRESENTATION_STYLE_ASSIGNMENT((#157));
#64=ADVANCED_FACE('',(#158),#159,.F.);
#65=PRESENTATION_STYLE_ASSIGNMENT((#160));
#66=ADVANCED_FACE('',(#161),#162,.F.);
#67=PRESENTATION_STYLE_ASSIGNMENT((#163));
#68=ADVANCED_FACE('',(#164),#165,.F.);
#69=PRESENTATION_STYLE_ASSIGNMENT((#166));
#70=ADVANCED_FACE('',(#167),#168,.F.);
#71=PRESENTATION_STYLE_ASSIGNMENT((#169));
#72=ADVANCED_FACE('',(#170),#171,.F.);
#73=PRESENTATION_STYLE_ASSIGNMENT((#172));
#74=ADVANCED_FACE('',(#173),#174,.F.);
#75=PRESENTATION_STYLE_ASSIGNMENT((#175));
#76=ADVANCED_FACE('',(#176),#177,.F.);
#77=PRESENTATION_STYLE_ASSIGNMENT((#178));
#78=ADVANCED_FACE('',(#179),#180,.F.);
#79=PRESENTATION_STYLE_ASSIGNMENT((#181));
#80=ADVANCED_FACE('',(#182),#183,.F.);
#81=PRESENTATION_STYLE_ASSIGNMENT((#184));
#82=ADVANCED_FACE('',(#185),#186,.F.);
#83=PRESENTATION_STYLE_ASSIGNMENT((#187));
#84=ADVANCED_FACE('',(#188),#189,.F.);
#85=PRESENTATION_STYLE_ASSIGNMENT((#190));
#86=ADVANCED_FACE('',(#191,#192,#193),#194,.F.);
#87=PRESENTATION_STYLE_ASSIGNMENT((#195));
#88=ADVANCED_FACE('HE attribute',(#196),#197,.F.);
#89=PRESENTATION_STYLE_ASSIGNMENT((#198));
#90=ADVANCED_FACE('HE attribute',(#199),#200,.F.);
#91=PRESENTATION_STYLE_ASSIGNMENT((#201));
#92=ADVANCED_FACE('HE attribute',(#202),#203,.F.);
#93=PRESENTATION_STYLE_ASSIGNMENT((#204));
#94=ADVANCED_FACE('HE attribute',(#205),#206,.F.);
#95=PRESENTATION_STYLE_ASSIGNMENT((#207));
#96=ADVANCED_FACE('',(#208),#209,.F.);
#97=PRESENTATION_STYLE_ASSIGNMENT((#210));
#98=ADVANCED_FACE('',(#211),#212,.F.);
#99=PRESENTATION_STYLE_ASSIGNMENT((#213));
#100=ADVANCED_FACE('',(#214),#215,.F.);
#101=PRESENTATION_STYLE_ASSIGNMENT((#216));
#102=ADVANCED_FACE('',(#217),#218,.F.);
#103=PRESENTATION_STYLE_ASSIGNMENT((#219));
#104=ADVANCED_FACE('',(#220,#221,#222,#223,#224,#225,#226,#227,#228),#229,.T.);
#105=PRESENTATION_STYLE_ASSIGNMENT((#230));
#106=ADVANCED_FACE('',(#231,#232,#233),#234,.F.);
#107=PRESENTATION_STYLE_ASSIGNMENT((#235));
#108=ADVANCED_FACE('HE attribute',(#236,#237),#238,.F.);
#109=PRESENTATION_STYLE_ASSIGNMENT((#239));
#110=ADVANCED_FACE('HE attribute',(#240),#241,.F.);
#111=PRESENTATION_STYLE_ASSIGNMENT((#242));
#112=ADVANCED_FACE('HE attribute',(#243,#244),#245,.F.);
#113=PRESENTATION_STYLE_ASSIGNMENT((#246));
#114=ADVANCED_FACE('HE attribute',(#247),#248,.F.);
#115=PRESENTATION_STYLE_ASSIGNMENT((#249));
#116=ADVANCED_FACE('HE attribute',(#250,#251),#252,.F.);
#117=PRESENTATION_STYLE_ASSIGNMENT((#253));
#118=ADVANCED_FACE('HE attribute',(#254),#255,.F.);
#119=PRESENTATION_STYLE_ASSIGNMENT((#256));
#120=ADVANCED_FACE('HE attribute',(#257,#258),#259,.F.);
#121=PRESENTATION_STYLE_ASSIGNMENT((#260));
#122=ADVANCED_FACE('HE attribute',(#261),#262,.F.);
#123=PRESENTATION_STYLE_ASSIGNMENT((#263));
#124=ADVANCED_FACE('HE attribute',(#264),#265,.F.);
#125=PRESENTATION_STYLE_ASSIGNMENT((#266));
#126=ADVANCED_FACE('HE attribute',(#267),#268,.F.);
#127=PRESENTATION_STYLE_ASSIGNMENT((#269));
#128=ADVANCED_FACE('HE attribute',(#270),#271,.F.);
#129=PRESENTATION_STYLE_ASSIGNMENT((#272));
#130=ADVANCED_FACE('HE attribute',(#273),#274,.F.);
#131=PRESENTATION_STYLE_ASSIGNMENT((#275));
#132=ADVANCED_FACE('',(#276,#277,#278,#279,#280),#281,.T.);
#133=PRESENTATION_STYLE_ASSIGNMENT((#282));
#134=ADVANCED_FACE('',(#283),#284,.F.);
#135=PRESENTATION_STYLE_ASSIGNMENT((#285));
#136=ADVANCED_FACE('',(#286),#287,.F.);
#137=PRODUCT('001','001','PART-001-DESC',(#288));
#138=PRODUCT_DEFINITION('NONE','NONE',#289,#2);
#139=MANIFOLD_SOLID_BREP('001',#290);
#140=AXIS2_PLACEMENT_3D('',#291,#292,#293);
#143=LENGTH_MEASURE_WITH_UNIT(LENGTH_MEASURE(1.0),#294);
#146=DIMENSIONAL_EXPONENTS(1.0,0.0,0.0,0.0,0.0,0.0,0.0);
#148=DIMENSIONAL_EXPONENTS(0.0,0.0,0.0,0.0,0.0,0.0,0.0);
#154=SURFACE_STYLE_USAGE(.BOTH.,#295);
#155=FACE_OUTER_BOUND('',#296,.T.);
#156=CYLINDRICAL_SURFACE('',#297,2.49999999999999);
#157=SURFACE_STYLE_USAGE(.BOTH.,#298);
#158=FACE_OUTER_BOUND('',#299,.T.);
#159=CYLINDRICAL_SURFACE('',#300,2.49999999999999);
#160=SURFACE_STYLE_USAGE(.BOTH.,#301);
#161=FACE_OUTER_BOUND('',#302,.T.);
#162=CYLINDRICAL_SURFACE('',#303,2.5);
#163=SURFACE_STYLE_USAGE(.BOTH.,#304);
#164=FACE_OUTER_BOUND('',#305,.T.);
#165=CYLINDRICAL_SURFACE('',#306,2.5);
#166=SURFACE_STYLE_USAGE(.BOTH.,#307);
#167=FACE_OUTER_BOUND('',#308,.T.);
#168=CYLINDRICAL_SURFACE('',#309,5.0);
#169=SURFACE_STYLE_USAGE(.BOTH.,#310);
#170=FACE_OUTER_BOUND('',#311,.T.);
#171=CYLINDRICAL_SURFACE('',#312,5.0);
#172=SURFACE_STYLE_USAGE(.BOTH.,#313);
#173=FACE_OUTER_BOUND('',#314,.T.);
#174=CYLINDRICAL_SURFACE('',#315,5.0);
#175=SURFACE_STYLE_USAGE(.BOTH.,#316);
#176=FACE_OUTER_BOUND('',#317,.T.);
#177=CYLINDRICAL_SURFACE('',#318,5.0);
#178=SURFACE_STYLE_USAGE(.BOTH.,#319);
#179=FACE_OUTER_BOUND('',#320,.T.);
#180=CYLINDRICAL_SURFACE('',#321,2.75);
#181=SURFACE_STYLE_USAGE(.BOTH.,#322);
#182=FACE_OUTER_BOUND('',#323,.T.);
#183=CYLINDRICAL_SURFACE('',#324,2.75);
#184=SURFACE_STYLE_USAGE(.BOTH.,#325);
#185=FACE_OUTER_BOUND('',#326,.T.);
#186=CYLINDRICAL_SURFACE('',#327,2.75);
#187=SURFACE_STYLE_USAGE(.BOTH.,#328);
#188=FACE_OUTER_BOUND('',#329,.T.);
#189=CYLINDRICAL_SURFACE('',#330,2.75);
#190=SURFACE_STYLE_USAGE(.BOTH.,#331);
#191=FACE_BOUND('',#332,.T.);
#192=FACE_BOUND('',#333,.T.);
#193=FACE_OUTER_BOUND('',#334,.T.);
#194=PLANE('',#335);
#195=SURFACE_STYLE_USAGE(.BOTH.,#336);
#196=FACE_OUTER_BOUND('',#337,.T.);
#197=CYLINDRICAL_SURFACE('',#338,2.75);
#198=SURFACE_STYLE_USAGE(.BOTH.,#339);
#199=FACE_OUTER_BOUND('',#340,.T.);
#200=CYLINDRICAL_SURFACE('',#341,2.75);
#201=SURFACE_STYLE_USAGE(.BOTH.,#342);
#202=FACE_OUTER_BOUND('',#343,.T.);
#203=CYLINDRICAL_SURFACE('',#344,2.75);
#204=SURFACE_STYLE_USAGE(.BOTH.,#345);
#205=FACE_OUTER_BOUND('',#346,.T.);
#206=CYLINDRICAL_SURFACE('',#347,2.75);
#207=SURFACE_STYLE_USAGE(.BOTH.,#348);
#208=FACE_OUTER_BOUND('',#349,.T.);
#209=PLANE('',#350);
#210=SURFACE_STYLE_USAGE(.BOTH.,#351);
#211=FACE_OUTER_BOUND('',#352,.T.);
#212=PLANE('',#353);
#213=SURFACE_STYLE_USAGE(.BOTH.,#354);
#214=FACE_OUTER_BOUND('',#355,.T.);
#215=PLANE('',#356);
#216=SURFACE_STYLE_USAGE(.BOTH.,#357);
#217=FACE_OUTER_BOUND('',#358,.T.);
#218=PLANE('',#359);
#219=SURFACE_STYLE_USAGE(.BOTH.,#360);
#220=FACE_BOUND('',#361,.T.);
#221=FACE_BOUND('',#362,.T.);
#222=FACE_BOUND('',#363,.T.);
#223=FACE_BOUND('',#364,.T.);
#224=FACE_BOUND('',#365,.T.);
#225=FACE_BOUND('',#366,.T.);
#226=FACE_BOUND('',#367,.T.);
#227=FACE_BOUND('',#368,.T.);
#228=FACE_OUTER_BOUND('',#369,.T.);
#229=PLANE('',#370);
#230=SURFACE_STYLE_USAGE(.BOTH.,#371);
#231=FACE_BOUND('',#372,.T.);
#232=FACE_BOUND('',#373,.T.);
#233=FACE_OUTER_BOUND('',#374,.T.);
#234=PLANE('',#375);
#235=SURFACE_STYLE_USAGE(.BOTH.,#376);
#236=FACE_BOUND('',#377,.T.);
#237=FACE_OUTER_BOUND('',#378,.T.);
#238=PLANE('',#379);
#239=SURFACE_STYLE_USAGE(.BOTH.,#380);
#240=FACE_OUTER_BOUND('',#381,.T.);
#241=CYLINDRICAL_SURFACE('',#382,5.0);
#242=SURFACE_STYLE_USAGE(.BOTH.,#383);
#243=FACE_BOUND('',#384,.T.);
#244=FACE_OUTER_BOUND('',#385,.T.);
#245=PLANE('',#386);
#246=SURFACE_STYLE_USAGE(.BOTH.,#387);
#247=FACE_OUTER_BOUND('',#388,.T.);
#248=CYLINDRICAL_SURFACE('',#389,5.0);
#249=SURFACE_STYLE_USAGE(.BOTH.,#390);
#250=FACE_BOUND('',#391,.T.);
#251=FACE_OUTER_BOUND('',#392,.T.);
#252=PLANE('',#393);
#253=SURFACE_STYLE_USAGE(.BOTH.,#394);
#254=FACE_OUTER_BOUND('',#395,.T.);
#255=CYLINDRICAL_SURFACE('',#396,5.0);
#256=SURFACE_STYLE_USAGE(.BOTH.,#397);
#257=FACE_BOUND('',#398,.T.);
#258=FACE_OUTER_BOUND('',#399,.T.);
#259=PLANE('',#400);
#260=SURFACE_STYLE_USAGE(.BOTH.,#401);
#261=FACE_OUTER_BOUND('',#402,.T.);
#262=CYLINDRICAL_SURFACE('',#403,5.0);
#263=SURFACE_STYLE_USAGE(.BOTH.,#404);
#264=FACE_OUTER_BOUND('',#405,.T.);
#265=CYLINDRICAL_SURFACE('',#406,2.5);
#266=SURFACE_STYLE_USAGE(.BOTH.,#407);
#267=FACE_OUTER_BOUND('',#408,.T.);
#268=CYLINDRICAL_SURFACE('',#409,2.5);
#269=SURFACE_STYLE_USAGE(.BOTH.,#410);
#270=FACE_OUTER_BOUND('',#411,.T.);
#271=CYLINDRICAL_SURFACE('',#412,2.49999999999999);
#272=SURFACE_STYLE_USAGE(.BOTH.,#413);
#273=FACE_OUTER_BOUND('',#414,.T.);
#274=CYLINDRICAL_SURFACE('',#415,2.49999999999999);
#275=SURFACE_STYLE_USAGE(.BOTH.,#416);
#276=FACE_OUTER_BOUND('',#417,.T.);
#277=FACE_BOUND('',#418,.T.);
#278=FACE_BOUND('',#419,.T.);
#279=FACE_BOUND('',#420,.T.);
#280=FACE_BOUND('',#421,.T.);
#281=PLANE('',#422);
#282=SURFACE_STYLE_USAGE(.BOTH.,#423);
#283=FACE_OUTER_BOUND('',#424,.T.);
#284=PLANE('',#425);
#285=SURFACE_STYLE_USAGE(.BOTH.,#426);
#286=FACE_OUTER_BOUND('',#427,.T.);
#287=PLANE('',#428);
#288=PRODUCT_CONTEXT('',#48,'mechanical');
#289=PRODUCT_DEFINITION_FORMATION_WITH_SPECIFIED_SOURCE(' ','NONE',#137,.NOT_KNOWN.);
#290=CLOSED_SHELL('',(#62,#64,#66,#68,#70,#72,#74,#76,#78,#80,#82,#84,#86,#88,#90,#92,#94,#96,#98,#100,#102,#104,#106,#108,#110,#112,#114,#116,#118,#120,#122,#124,#126,#128,#130,#132,#134,#136));
#291=CARTESIAN_POINT('',(0.0,0.0,0.0));
#292=DIRECTION('',(0.0,0.0,1.0));
#293=DIRECTION('',(1.0,0.0,0.0));
#294= (NAMED_UNIT(#146)LENGTH_UNIT()SI_UNIT(.MILLI.,.METRE.));
#295=SURFACE_SIDE_STYLE('',(#430));
#296=EDGE_LOOP('',(#431,#432,#433,#434));
#297=AXIS2_PLACEMENT_3D('',#435,#436,#437);
#298=SURFACE_SIDE_STYLE('',(#438));
#299=EDGE_LOOP('',(#439,#440,#441,#442));
#300=AXIS2_PLACEMENT_3D('',#443,#444,#445);
#301=SURFACE_SIDE_STYLE('',(#446));
#302=EDGE_LOOP('',(#447,#448,#449,#450));
#303=AXIS2_PLACEMENT_3D('',#451,#452,#453);
#304=SURFACE_SIDE_STYLE('',(#454));
#305=EDGE_LOOP('',(#455,#456,#457,#458));
#306=AXIS2_PLACEMENT_3D('',#459,#460,#461);
#307=SURFACE_SIDE_STYLE('',(#462));
#308=EDGE_LOOP('',(#463,#464,#465,#466));
#309=AXIS2_PLACEMENT_3D('',#467,#468,#469);
#310=SURFACE_SIDE_STYLE('',(#470));
#311=EDGE_LOOP('',(#471,#472,#473,#474));
#312=AXIS2_PLACEMENT_3D('',#475,#476,#477);
#313=SURFACE_SIDE_STYLE('',(#478));
#314=EDGE_LOOP('',(#479,#480,#481,#482));
#315=AXIS2_PLACEMENT_3D('',#483,#484,#485);
#316=SURFACE_SIDE_STYLE('',(#486));
#317=EDGE_LOOP('',(#487,#488,#489,#490));
#318=AXIS2_PLACEMENT_3D('',#491,#492,#493);
#319=SURFACE_SIDE_STYLE('',(#494));
#320=EDGE_LOOP('',(#495,#496,#497,#498));
#321=AXIS2_PLACEMENT_3D('',#499,#500,#501);
#322=SURFACE_SIDE_STYLE('',(#502));
#323=EDGE_LOOP('',(#503,#504,#505,#506));
#324=AXIS2_PLACEMENT_3D('',#507,#508,#509);
#325=SURFACE_SIDE_STYLE('',(#510));
#326=EDGE_LOOP('',(#511,#512,#513,#514));
#327=AXIS2_PLACEMENT_3D('',#515,#516,#517);
#328=SURFACE_SIDE_STYLE('',(#518));
#329=EDGE_LOOP('',(#519,#520,#521,#522));
#330=AXIS2_PLACEMENT_3D('',#523,#524,#525);
#331=SURFACE_SIDE_STYLE('',(#526));
#332=EDGE_LOOP('',(#527,#528));
#333=EDGE_LOOP('',(#529,#530));
#334=EDGE_LOOP('',(#531,#532,#533,#534));
#335=AXIS2_PLACEMENT_3D('',#535,#536,#537);
#336=SURFACE_SIDE_STYLE('',(#538));
#337=EDGE_LOOP('',(#539,#540,#541,#542));
#338=AXIS2_PLACEMENT_3D('',#543,#544,#545);
#339=SURFACE_SIDE_STYLE('',(#546));
#340=EDGE_LOOP('',(#547,#548,#549,#550));
#341=AXIS2_PLACEMENT_3D('',#551,#552,#553);
#342=SURFACE_SIDE_STYLE('',(#554));
#343=EDGE_LOOP('',(#555,#556,#557,#558));
#344=AXIS2_PLACEMENT_3D('',#559,#560,#561);
#345=SURFACE_SIDE_STYLE('',(#562));
#346=EDGE_LOOP('',(#563,#564,#565,#566));
#347=AXIS2_PLACEMENT_3D('',#567,#568,#569);
#348=SURFACE_SIDE_STYLE('',(#570));
#349=EDGE_LOOP('',(#571,#572,#573,#574,#575,#576,#577,#578));
#350=AXIS2_PLACEMENT_3D('',#579,#580,#581);
#351=SURFACE_SIDE_STYLE('',(#582));
#352=EDGE_LOOP('',(#583,#584,#585,#586));
#353=AXIS2_PLACEMENT_3D('',#587,#588,#589);
#354=SURFACE_SIDE_STYLE('',(#590));
#355=EDGE_LOOP('',(#591,#592,#593,#594,#595,#596,#597,#598));
#356=AXIS2_PLACEMENT_3D('',#599,#600,#601);
#357=SURFACE_SIDE_STYLE('',(#602));
#358=EDGE_LOOP('',(#603,#604,#605,#606));
#359=AXIS2_PLACEMENT_3D('',#607,#608,#609);
#360=SURFACE_SIDE_STYLE('',(#610));
#361=EDGE_LOOP('',(#611,#612));
#362=EDGE_LOOP('',(#613,#614));
#363=EDGE_LOOP('',(#615,#616));
#364=EDGE_LOOP('',(#617,#618));
#365=EDGE_LOOP('',(#619,#620));
#366=EDGE_LOOP('',(#621,#622));
#367=EDGE_LOOP('',(#623,#624));
#368=EDGE_LOOP('',(#625,#626));
#369=EDGE_LOOP('',(#627,#628,#629,#630));
#370=AXIS2_PLACEMENT_3D('',#631,#632,#633);
#371=SURFACE_SIDE_STYLE('',(#634));
#372=EDGE_LOOP('',(#635,#636));
#373=EDGE_LOOP('',(#637,#638));
#374=EDGE_LOOP('',(#639,#640,#641,#642));
#375=AXIS2_PLACEMENT_3D('',#643,#644,#645);
#376=SURFACE_SIDE_STYLE('',(#646));
#377=EDGE_LOOP('',(#647,#648));
#378=EDGE_LOOP('',(#649,#650));
#379=AXIS2_PLACEMENT_3D('',#651,#652,#653);
#380=SURFACE_SIDE_STYLE('',(#654));
#381=EDGE_LOOP('',(#655,#656,#657,#658));
#382=AXIS2_PLACEMENT_3D('',#659,#660,#661);
#383=SURFACE_SIDE_STYLE('',(#662));
#384=EDGE_LOOP('',(#663,#664));
#385=EDGE_LOOP('',(#665,#666));
#386=AXIS2_PLACEMENT_3D('',#667,#668,#669);
#387=SURFACE_SIDE_STYLE('',(#670));
#388=EDGE_LOOP('',(#671,#672,#673,#674));
#389=AXIS2_PLACEMENT_3D('',#675,#676,#677);
#390=SURFACE_SIDE_STYLE('',(#678));
#391=EDGE_LOOP('',(#679,#680));
#392=EDGE_LOOP('',(#681,#682));
#393=AXIS2_PLACEMENT_3D('',#683,#684,#685);
#394=SURFACE_SIDE_STYLE('',(#686));
#395=EDGE_LOOP('',(#687,#688,#689,#690));
#396=AXIS2_PLACEMENT_3D('',#691,#692,#693);
#397=SURFACE_SIDE_STYLE('',(#694));
#398=EDGE_LOOP('',(#695,#696));
#399=EDGE_LOOP('',(#697,#698));
#400=AXIS2_PLACEMENT_3D('',#699,#700,#701);
#401=SURFACE_SIDE_STYLE('',(#702));
#402=EDGE_LOOP('',(#703,#704,#705,#706));
#403=AXIS2_PLACEMENT_3D('',#707,#708,#709);
#404=SURFACE_SIDE_STYLE('',(#710));
#405=EDGE_LOOP('',(#711,#712,#713,#714));
#406=AXIS2_PLACEMENT_3D('',#715,#716,#717);
#407=SURFACE_SIDE_STYLE('',(#718));
#408=EDGE_LOOP('',(#719,#720,#721,#722));
#409=AXIS2_PLACEMENT_3D('',#723,#724,#725);
#410=SURFACE_SIDE_STYLE('',(#726));
#411=EDGE_LOOP('',(#727,#728,#729,#730));
#412=AXIS2_PLACEMENT_3D('',#731,#732,#733);
#413=SURFACE_SIDE_STYLE('',(#734));
#414=EDGE_LOOP('',(#735,#736,#737,#738));
#415=AXIS2_PLACEMENT_3D('',#739,#740,#741);
#416=SURFACE_SIDE_STYLE('',(#742));
#417=EDGE_LOOP('',(#743,#744,#745,#746));
#418=EDGE_LOOP('',(#747,#748));
#419=EDGE_LOOP('',(#749,#750));
#420=EDGE_LOOP('',(#751,#752));
#421=EDGE_LOOP('',(#753,#754));
#422=AXIS2_PLACEMENT_3D('',#755,#756,#757);
#423=SURFACE_SIDE_STYLE('',(#758));
#424=EDGE_LOOP('',(#759,#760,#761,#762));
#425=AXIS2_PLACEMENT_3D('',#763,#764,#765);
#426=SURFACE_SIDE_STYLE('',(#766));
#427=EDGE_LOOP('',(#767,#768,#769,#770));
#428=AXIS2_PLACEMENT_3D('',#771,#772,#773);
#430=SURFACE_STYLE_FILL_AREA(#774);
#431=ORIENTED_EDGE('',*,*,#775,.F.);
#432=ORIENTED_EDGE('',*,*,#776,.F.);
#433=ORIENTED_EDGE('',*,*,#777,.F.);
#434=ORIENTED_EDGE('',*,*,#778,.T.);
#435=CARTESIAN_POINT('',(10.0,80.0,-12.0));
#436=DIRECTION('',(0.0,0.0,-1.0));
#437=DIRECTION('',(0.0,-1.0,0.0));
#438=SURFACE_STYLE_FILL_AREA(#779);
#439=ORIENTED_EDGE('',*,*,#780,.F.);
#440=ORIENTED_EDGE('',*,*,#781,.F.);
#441=ORIENTED_EDGE('',*,*,#782,.F.);
#442=ORIENTED_EDGE('',*,*,#783,.T.);
#443=CARTESIAN_POINT('',(170.0,80.0,-12.0));
#444=DIRECTION('',(0.0,0.0,-1.0));
#445=DIRECTION('',(0.0,-1.0,0.0));
#446=SURFACE_STYLE_FILL_AREA(#784);
#447=ORIENTED_EDGE('',*,*,#785,.F.);
#448=ORIENTED_EDGE('',*,*,#786,.F.);
#449=ORIENTED_EDGE('',*,*,#787,.F.);
#450=ORIENTED_EDGE('',*,*,#788,.T.);
#451=CARTESIAN_POINT('',(170.0,20.0,-12.0));
#452=DIRECTION('',(0.0,0.0,-1.0));
#453=DIRECTION('',(0.0,-1.0,0.0));
#454=SURFACE_STYLE_FILL_AREA(#789);
#455=ORIENTED_EDGE('',*,*,#790,.F.);
#456=ORIENTED_EDGE('',*,*,#791,.F.);
#457=ORIENTED_EDGE('',*,*,#792,.F.);
#458=ORIENTED_EDGE('',*,*,#793,.T.);
#459=CARTESIAN_POINT('',(9.99999999999999,20.0,-12.0));
#460=DIRECTION('',(0.0,0.0,-1.0));
#461=DIRECTION('',(0.0,-1.0,0.0));
#462=SURFACE_STYLE_FILL_AREA(#794);
#463=ORIENTED_EDGE('',*,*,#795,.F.);
#464=ORIENTED_EDGE('',*,*,#796,.F.);
#465=ORIENTED_EDGE('',*,*,#797,.F.);
#466=ORIENTED_EDGE('',*,*,#798,.T.);
#467=CARTESIAN_POINT('',(115.0,80.0,-12.0));
#468=DIRECTION('',(0.0,0.0,-1.0));
#469=DIRECTION('',(0.0,-1.0,0.0));
#470=SURFACE_STYLE_FILL_AREA(#799);
#471=ORIENTED_EDGE('',*,*,#800,.F.);
#472=ORIENTED_EDGE('',*,*,#801,.F.);
#473=ORIENTED_EDGE('',*,*,#802,.F.);
#474=ORIENTED_EDGE('',*,*,#803,.T.);
#475=CARTESIAN_POINT('',(115.0,20.0,-12.0));
#476=DIRECTION('',(0.0,0.0,-1.0));
#477=DIRECTION('',(0.0,-1.0,0.0));
#478=SURFACE_STYLE_FILL_AREA(#804);
#479=ORIENTED_EDGE('',*,*,#805,.F.);
#480=ORIENTED_EDGE('',*,*,#806,.F.);
#481=ORIENTED_EDGE('',*,*,#807,.F.);
#482=ORIENTED_EDGE('',*,*,#808,.T.);
#483=CARTESIAN_POINT('',(65.0,80.0,-12.0));
#484=DIRECTION('',(0.0,0.0,-1.0));
#485=DIRECTION('',(0.0,-1.0,0.0));
#486=SURFACE_STYLE_FILL_AREA(#809);
#487=ORIENTED_EDGE('',*,*,#810,.F.);
#488=ORIENTED_EDGE('',*,*,#811,.F.);
#489=ORIENTED_EDGE('',*,*,#812,.F.);
#490=ORIENTED_EDGE('',*,*,#813,.T.);
#491=CARTESIAN_POINT('',(65.0,20.0,-12.0));
#492=DIRECTION('',(0.0,0.0,-1.0));
#493=DIRECTION('',(0.0,-1.0,0.0));
#494=SURFACE_STYLE_FILL_AREA(#814);
#495=ORIENTED_EDGE('',*,*,#815,.F.);
#496=ORIENTED_EDGE('',*,*,#816,.F.);
#497=ORIENTED_EDGE('',*,*,#817,.F.);
#498=ORIENTED_EDGE('',*,*,#818,.T.);
#499=CARTESIAN_POINT('',(115.0,80.0,-12.0));
#500=DIRECTION('',(0.0,0.0,-1.0));
#501=DIRECTION('',(0.0,-1.0,0.0));
#502=SURFACE_STYLE_FILL_AREA(#819);
#503=ORIENTED_EDGE('',*,*,#820,.F.);
#504=ORIENTED_EDGE('',*,*,#821,.F.);
#505=ORIENTED_EDGE('',*,*,#822,.F.);
#506=ORIENTED_EDGE('',*,*,#823,.T.);
#507=CARTESIAN_POINT('',(115.0,20.0,-12.0));
#508=DIRECTION('',(0.0,0.0,-1.0));
#509=DIRECTION('',(0.0,-1.0,0.0));
#510=SURFACE_STYLE_FILL_AREA(#824);
#511=ORIENTED_EDGE('',*,*,#825,.F.);
#512=ORIENTED_EDGE('',*,*,#826,.F.);
#513=ORIENTED_EDGE('',*,*,#827,.F.);
#514=ORIENTED_EDGE('',*,*,#828,.T.);
#515=CARTESIAN_POINT('',(65.0,80.0,-12.0));
#516=DIRECTION('',(0.0,0.0,-1.0));
#517=DIRECTION('',(0.0,-1.0,0.0));
#518=SURFACE_STYLE_FILL_AREA(#829);
#519=ORIENTED_EDGE('',*,*,#830,.F.);
#520=ORIENTED_EDGE('',*,*,#831,.F.);
#521=ORIENTED_EDGE('',*,*,#832,.F.);
#522=ORIENTED_EDGE('',*,*,#833,.T.);
#523=CARTESIAN_POINT('',(65.0,20.0,-12.0));
#524=DIRECTION('',(0.0,0.0,-1.0));
#525=DIRECTION('',(0.0,-1.0,0.0));
#526=SURFACE_STYLE_FILL_AREA(#834);
#527=ORIENTED_EDGE('',*,*,#791,.T.);
#528=ORIENTED_EDGE('',*,*,#835,.T.);
#529=ORIENTED_EDGE('',*,*,#776,.T.);
#530=ORIENTED_EDGE('',*,*,#836,.T.);
#531=ORIENTED_EDGE('',*,*,#837,.F.);
#532=ORIENTED_EDGE('',*,*,#838,.F.);
#533=ORIENTED_EDGE('',*,*,#839,.F.);
#534=ORIENTED_EDGE('',*,*,#840,.F.);
#535=CARTESIAN_POINT('',(132.384510869565,127.948369565217,0.0));
#536=DIRECTION('',(0.0,0.0,-1.0));
#537=DIRECTION('',(0.0,-1.0,0.0));
#538=SURFACE_STYLE_FILL_AREA(#841);
#539=ORIENTED_EDGE('',*,*,#830,.T.);
#540=ORIENTED_EDGE('',*,*,#842,.T.);
#541=ORIENTED_EDGE('',*,*,#832,.T.);
#542=ORIENTED_EDGE('',*,*,#843,.F.);
#543=CARTESIAN_POINT('',(65.0,20.0,-12.0));
#544=DIRECTION('',(0.0,0.0,-1.0));
#545=DIRECTION('',(0.0,-1.0,0.0));
#546=SURFACE_STYLE_FILL_AREA(#844);
#547=ORIENTED_EDGE('',*,*,#825,.T.);
#548=ORIENTED_EDGE('',*,*,#845,.T.);
#549=ORIENTED_EDGE('',*,*,#827,.T.);
#550=ORIENTED_EDGE('',*,*,#846,.F.);
#551=CARTESIAN_POINT('',(65.0,80.0,-12.0));
#552=DIRECTION('',(0.0,0.0,-1.0));
#553=DIRECTION('',(0.0,-1.0,0.0));
#554=SURFACE_STYLE_FILL_AREA(#847);
#555=ORIENTED_EDGE('',*,*,#820,.T.);
#556=ORIENTED_EDGE('',*,*,#848,.T.);
#557=ORIENTED_EDGE('',*,*,#822,.T.);
#558=ORIENTED_EDGE('',*,*,#849,.F.);
#559=CARTESIAN_POINT('',(115.0,20.0,-12.0));
#560=DIRECTION('',(0.0,0.0,-1.0));
#561=DIRECTION('',(0.0,-1.0,0.0));
#562=SURFACE_STYLE_FILL_AREA(#850);
#563=ORIENTED_EDGE('',*,*,#815,.T.);
#564=ORIENTED_EDGE('',*,*,#851,.T.);
#565=ORIENTED_EDGE('',*,*,#817,.T.);
#566=ORIENTED_EDGE('',*,*,#852,.F.);
#567=CARTESIAN_POINT('',(115.0,80.0,-12.0));
#568=DIRECTION('',(0.0,0.0,-1.0));
#569=DIRECTION('',(0.0,-1.0,0.0));
#570=SURFACE_STYLE_FILL_AREA(#853);
#571=ORIENTED_EDGE('',*,*,#839,.T.);
#572=ORIENTED_EDGE('',*,*,#854,.F.);
#573=ORIENTED_EDGE('',*,*,#855,.F.);
#574=ORIENTED_EDGE('',*,*,#856,.T.);
#575=ORIENTED_EDGE('',*,*,#857,.T.);
#576=ORIENTED_EDGE('',*,*,#858,.F.);
#577=ORIENTED_EDGE('',*,*,#859,.F.);
#578=ORIENTED_EDGE('',*,*,#860,.T.);
#579=CARTESIAN_POINT('',(0.0,100.0,-12.0));
#580=DIRECTION('',(-1.15648231731787E-16,-1.0,-0.0));
#581=DIRECTION('',(-1.0,1.15648231731787E-16,0.0));
#582=SURFACE_STYLE_FILL_AREA(#861);
#583=ORIENTED_EDGE('',*,*,#862,.T.);
#584=ORIENTED_EDGE('',*,*,#863,.F.);
#585=ORIENTED_EDGE('',*,*,#864,.F.);
#586=ORIENTED_EDGE('',*,*,#858,.T.);
#587=CARTESIAN_POINT('',(180.0,100.0,-12.0));
#588=DIRECTION('',(-1.0,0.0,-0.0));
#589=DIRECTION('',(0.0,0.0,-1.0));
#590=SURFACE_STYLE_FILL_AREA(#865);
#591=ORIENTED_EDGE('',*,*,#866,.F.);
#592=ORIENTED_EDGE('',*,*,#867,.T.);
#593=ORIENTED_EDGE('',*,*,#837,.T.);
#594=ORIENTED_EDGE('',*,*,#868,.F.);
#595=ORIENTED_EDGE('',*,*,#869,.F.);
#596=ORIENTED_EDGE('',*,*,#863,.T.);
#597=ORIENTED_EDGE('',*,*,#870,.T.);
#598=ORIENTED_EDGE('',*,*,#871,.F.);
#599=CARTESIAN_POINT('',(0.0,0.0,-12.0));
#600=DIRECTION('',(0.0,1.0,0.0));
#601=DIRECTION('',(0.0,0.0,-1.0));
#602=SURFACE_STYLE_FILL_AREA(#872);
#603=ORIENTED_EDGE('',*,*,#840,.T.);
#604=ORIENTED_EDGE('',*,*,#860,.F.);
#605=ORIENTED_EDGE('',*,*,#873,.F.);
#606=ORIENTED_EDGE('',*,*,#868,.T.);
#607=CARTESIAN_POINT('',(0.0,100.0,-12.0));
#608=DIRECTION('',(1.0,0.0,-0.0));
#609=DIRECTION('',(0.0,0.0,1.0));
#610=SURFACE_STYLE_FILL_AREA(#874);
#611=ORIENTED_EDGE('',*,*,#778,.F.);
#612=ORIENTED_EDGE('',*,*,#875,.F.);
#613=ORIENTED_EDGE('',*,*,#783,.F.);
#614=ORIENTED_EDGE('',*,*,#876,.F.);
#615=ORIENTED_EDGE('',*,*,#788,.F.);
#616=ORIENTED_EDGE('',*,*,#877,.F.);
#617=ORIENTED_EDGE('',*,*,#793,.F.);
#618=ORIENTED_EDGE('',*,*,#878,.F.);
#619=ORIENTED_EDGE('',*,*,#798,.F.);
#620=ORIENTED_EDGE('',*,*,#879,.F.);
#621=ORIENTED_EDGE('',*,*,#803,.F.);
#622=ORIENTED_EDGE('',*,*,#880,.F.);
#623=ORIENTED_EDGE('',*,*,#808,.F.);
#624=ORIENTED_EDGE('',*,*,#881,.F.);
#625=ORIENTED_EDGE('',*,*,#813,.F.);
#626=ORIENTED_EDGE('',*,*,#882,.F.);
#627=ORIENTED_EDGE('',*,*,#859,.T.);
#628=ORIENTED_EDGE('',*,*,#864,.T.);
#629=ORIENTED_EDGE('',*,*,#869,.T.);
#630=ORIENTED_EDGE('',*,*,#873,.T.);
#631=CARTESIAN_POINT('',(132.384510869565,127.948369565217,-12.0));
#632=DIRECTION('',(0.0,0.0,-1.0));
#633=DIRECTION('',(0.0,-1.0,0.0));
#634=SURFACE_STYLE_FILL_AREA(#883);
#635=ORIENTED_EDGE('',*,*,#781,.T.);
#636=ORIENTED_EDGE('',*,*,#884,.T.);
#637=ORIENTED_EDGE('',*,*,#786,.T.);
#638=ORIENTED_EDGE('',*,*,#885,.T.);
#639=ORIENTED_EDGE('',*,*,#857,.F.);
#640=ORIENTED_EDGE('',*,*,#886,.F.);
#641=ORIENTED_EDGE('',*,*,#870,.F.);
#642=ORIENTED_EDGE('',*,*,#862,.F.);
#643=CARTESIAN_POINT('',(132.384510869565,127.948369565217,0.0));
#644=DIRECTION('',(0.0,0.0,-1.0));
#645=DIRECTION('',(0.0,-1.0,0.0));
#646=SURFACE_STYLE_FILL_AREA(#887);
#647=ORIENTED_EDGE('',*,*,#833,.F.);
#648=ORIENTED_EDGE('',*,*,#842,.F.);
#649=ORIENTED_EDGE('',*,*,#811,.T.);
#650=ORIENTED_EDGE('',*,*,#888,.T.);
#651=CARTESIAN_POINT('',(65.0,17.25,-6.3));
#652=DIRECTION('',(0.0,-0.0,1.0));
#653=DIRECTION('',(0.0,1.0,0.0));
#654=SURFACE_STYLE_FILL_AREA(#889);
#655=ORIENTED_EDGE('',*,*,#810,.T.);
#656=ORIENTED_EDGE('',*,*,#882,.T.);
#657=ORIENTED_EDGE('',*,*,#812,.T.);
#658=ORIENTED_EDGE('',*,*,#888,.F.);
#659=CARTESIAN_POINT('',(65.0,20.0,-12.0));
#660=DIRECTION('',(0.0,0.0,-1.0));
#661=DIRECTION('',(0.0,-1.0,0.0));
#662=SURFACE_STYLE_FILL_AREA(#890);
#663=ORIENTED_EDGE('',*,*,#828,.F.);
#664=ORIENTED_EDGE('',*,*,#845,.F.);
#665=ORIENTED_EDGE('',*,*,#806,.T.);
#666=ORIENTED_EDGE('',*,*,#891,.T.);
#667=CARTESIAN_POINT('',(65.0,77.25,-6.3));
#668=DIRECTION('',(0.0,-0.0,1.0));
#669=DIRECTION('',(0.0,1.0,0.0));
#670=SURFACE_STYLE_FILL_AREA(#892);
#671=ORIENTED_EDGE('',*,*,#805,.T.);
#672=ORIENTED_EDGE('',*,*,#881,.T.);
#673=ORIENTED_EDGE('',*,*,#807,.T.);
#674=ORIENTED_EDGE('',*,*,#891,.F.);
#675=CARTESIAN_POINT('',(65.0,80.0,-12.0));
#676=DIRECTION('',(0.0,0.0,-1.0));
#677=DIRECTION('',(0.0,-1.0,0.0));
#678=SURFACE_STYLE_FILL_AREA(#893);
#679=ORIENTED_EDGE('',*,*,#823,.F.);
#680=ORIENTED_EDGE('',*,*,#848,.F.);
#681=ORIENTED_EDGE('',*,*,#801,.T.);
#682=ORIENTED_EDGE('',*,*,#894,.T.);
#683=CARTESIAN_POINT('',(115.0,17.25,-6.3));
#684=DIRECTION('',(0.0,-0.0,1.0));
#685=DIRECTION('',(0.0,1.0,0.0));
#686=SURFACE_STYLE_FILL_AREA(#895);
#687=ORIENTED_EDGE('',*,*,#800,.T.);
#688=ORIENTED_EDGE('',*,*,#880,.T.);
#689=ORIENTED_EDGE('',*,*,#802,.T.);
#690=ORIENTED_EDGE('',*,*,#894,.F.);
#691=CARTESIAN_POINT('',(115.0,20.0,-12.0));
#692=DIRECTION('',(0.0,0.0,-1.0));
#693=DIRECTION('',(0.0,-1.0,0.0));
#694=SURFACE_STYLE_FILL_AREA(#896);
#695=ORIENTED_EDGE('',*,*,#818,.F.);
#696=ORIENTED_EDGE('',*,*,#851,.F.);
#697=ORIENTED_EDGE('',*,*,#796,.T.);
#698=ORIENTED_EDGE('',*,*,#897,.T.);
#699=CARTESIAN_POINT('',(115.0,77.25,-6.3));
#700=DIRECTION('',(0.0,-0.0,1.0));
#701=DIRECTION('',(0.0,1.0,0.0));
#702=SURFACE_STYLE_FILL_AREA(#898);
#703=ORIENTED_EDGE('',*,*,#795,.T.);
#704=ORIENTED_EDGE('',*,*,#879,.T.);
#705=ORIENTED_EDGE('',*,*,#797,.T.);
#706=ORIENTED_EDGE('',*,*,#897,.F.);
#707=CARTESIAN_POINT('',(115.0,80.0,-12.0));
#708=DIRECTION('',(0.0,0.0,-1.0));
#709=DIRECTION('',(0.0,-1.0,0.0));
#710=SURFACE_STYLE_FILL_AREA(#899);
#711=ORIENTED_EDGE('',*,*,#790,.T.);
#712=ORIENTED_EDGE('',*,*,#878,.T.);
#713=ORIENTED_EDGE('',*,*,#792,.T.);
#714=ORIENTED_EDGE('',*,*,#835,.F.);
#715=CARTESIAN_POINT('',(9.99999999999999,20.0,-12.0));
#716=DIRECTION('',(0.0,0.0,-1.0));
#717=DIRECTION('',(0.0,-1.0,0.0));
#718=SURFACE_STYLE_FILL_AREA(#900);
#719=ORIENTED_EDGE('',*,*,#785,.T.);
#720=ORIENTED_EDGE('',*,*,#877,.T.);
#721=ORIENTED_EDGE('',*,*,#787,.T.);
#722=ORIENTED_EDGE('',*,*,#885,.F.);
#723=CARTESIAN_POINT('',(170.0,20.0,-12.0));
#724=DIRECTION('',(0.0,0.0,-1.0));
#725=DIRECTION('',(0.0,-1.0,0.0));
#726=SURFACE_STYLE_FILL_AREA(#901);
#727=ORIENTED_EDGE('',*,*,#780,.T.);
#728=ORIENTED_EDGE('',*,*,#876,.T.);
#729=ORIENTED_EDGE('',*,*,#782,.T.);
#730=ORIENTED_EDGE('',*,*,#884,.F.);
#731=CARTESIAN_POINT('',(170.0,80.0,-12.0));
#732=DIRECTION('',(0.0,0.0,-1.0));
#733=DIRECTION('',(0.0,-1.0,0.0));
#734=SURFACE_STYLE_FILL_AREA(#902);
#735=ORIENTED_EDGE('',*,*,#775,.T.);
#736=ORIENTED_EDGE('',*,*,#875,.T.);
#737=ORIENTED_EDGE('',*,*,#777,.T.);
#738=ORIENTED_EDGE('',*,*,#836,.F.);
#739=CARTESIAN_POINT('',(10.0,80.0,-12.0));
#740=DIRECTION('',(0.0,0.0,-1.0));
#741=DIRECTION('',(0.0,-1.0,0.0));
#742=SURFACE_STYLE_FILL_AREA(#903);
#743=ORIENTED_EDGE('',*,*,#866,.T.);
#744=ORIENTED_EDGE('',*,*,#904,.T.);
#745=ORIENTED_EDGE('',*,*,#855,.T.);
#746=ORIENTED_EDGE('',*,*,#905,.T.);
#747=ORIENTED_EDGE('',*,*,#852,.T.);
#748=ORIENTED_EDGE('',*,*,#816,.T.);
#749=ORIENTED_EDGE('',*,*,#849,.T.);
#750=ORIENTED_EDGE('',*,*,#821,.T.);
#751=ORIENTED_EDGE('',*,*,#846,.T.);
#752=ORIENTED_EDGE('',*,*,#826,.T.);
#753=ORIENTED_EDGE('',*,*,#843,.T.);
#754=ORIENTED_EDGE('',*,*,#831,.T.);
#755=CARTESIAN_POINT('',(132.384510869565,127.948369565217,-3.0));
#756=DIRECTION('',(0.0,-0.0,1.0));
#757=DIRECTION('',(0.0,1.0,0.0));
#758=SURFACE_STYLE_FILL_AREA(#906);
#759=ORIENTED_EDGE('',*,*,#838,.T.);
#760=ORIENTED_EDGE('',*,*,#867,.F.);
#761=ORIENTED_EDGE('',*,*,#905,.F.);
#762=ORIENTED_EDGE('',*,*,#854,.T.);
#763=CARTESIAN_POINT('',(48.0,100.0,-3.0));
#764=DIRECTION('',(-1.0,-1.38777878078145E-16,-0.0));
#765=DIRECTION('',(-1.38777878078145E-16,1.0,0.0));
#766=SURFACE_STYLE_FILL_AREA(#907);
#767=ORIENTED_EDGE('',*,*,#886,.T.);
#768=ORIENTED_EDGE('',*,*,#856,.F.);
#769=ORIENTED_EDGE('',*,*,#904,.F.);
#770=ORIENTED_EDGE('',*,*,#871,.T.);
#771=CARTESIAN_POINT('',(132.0,100.0,-3.0));
#772=DIRECTION('',(1.0,5.20417042793042E-17,0.0));
#773=DIRECTION('',(5.20417042793042E-17,-1.0,0.0));
#774=FILL_AREA_STYLE('',(#908));
#775=EDGE_CURVE('',#909,#910,#911,.T.);
#776=EDGE_CURVE('',#912,#909,#913,.T.);
#777=EDGE_CURVE('',#914,#912,#915,.T.);
#778=EDGE_CURVE('',#914,#910,#916,.T.);
#779=FILL_AREA_STYLE('',(#917));
#780=EDGE_CURVE('',#918,#919,#920,.T.);
#781=EDGE_CURVE('',#921,#918,#922,.T.);
#782=EDGE_CURVE('',#923,#921,#924,.T.);
#783=EDGE_CURVE('',#923,#919,#925,.T.);
#784=FILL_AREA_STYLE('',(#926));
#785=EDGE_CURVE('',#927,#928,#929,.T.);
#786=EDGE_CURVE('',#930,#927,#931,.T.);
#787=EDGE_CURVE('',#932,#930,#933,.T.);
#788=EDGE_CURVE('',#932,#928,#934,.T.);
#789=FILL_AREA_STYLE('',(#935));
#790=EDGE_CURVE('',#936,#937,#938,.T.);
#791=EDGE_CURVE('',#939,#936,#940,.T.);
#792=EDGE_CURVE('',#941,#939,#942,.T.);
#793=EDGE_CURVE('',#941,#937,#943,.T.);
#794=FILL_AREA_STYLE('',(#944));
#795=EDGE_CURVE('',#945,#946,#947,.T.);
#796=EDGE_CURVE('',#948,#945,#949,.T.);
#797=EDGE_CURVE('',#950,#948,#951,.T.);
#798=EDGE_CURVE('',#950,#946,#952,.T.);
#799=FILL_AREA_STYLE('',(#953));
#800=EDGE_CURVE('',#954,#955,#956,.T.);
#801=EDGE_CURVE('',#957,#954,#958,.T.);
#802=EDGE_CURVE('',#959,#957,#960,.T.);
#803=EDGE_CURVE('',#959,#955,#961,.T.);
#804=FILL_AREA_STYLE('',(#962));
#805=EDGE_CURVE('',#963,#964,#965,.T.);
#806=EDGE_CURVE('',#966,#963,#967,.T.);
#807=EDGE_CURVE('',#968,#966,#969,.T.);
#808=EDGE_CURVE('',#968,#964,#970,.T.);
#809=FILL_AREA_STYLE('',(#971));
#810=EDGE_CURVE('',#972,#973,#974,.T.);
#811=EDGE_CURVE('',#975,#972,#976,.T.);
#812=EDGE_CURVE('',#977,#975,#978,.T.);
#813=EDGE_CURVE('',#977,#973,#979,.T.);
#814=FILL_AREA_STYLE('',(#980));
#815=EDGE_CURVE('',#981,#982,#983,.T.);
#816=EDGE_CURVE('',#984,#981,#985,.T.);
#817=EDGE_CURVE('',#986,#984,#987,.T.);
#818=EDGE_CURVE('',#986,#982,#988,.T.);
#819=FILL_AREA_STYLE('',(#989));
#820=EDGE_CURVE('',#990,#991,#992,.T.);
#821=EDGE_CURVE('',#993,#990,#994,.T.);
#822=EDGE_CURVE('',#995,#993,#996,.T.);
#823=EDGE_CURVE('',#995,#991,#997,.T.);
#824=FILL_AREA_STYLE('',(#998));
#825=EDGE_CURVE('',#999,#1000,#1001,.T.);
#826=EDGE_CURVE('',#1002,#999,#1003,.T.);
#827=EDGE_CURVE('',#1004,#1002,#1005,.T.);
#828=EDGE_CURVE('',#1004,#1000,#1006,.T.);
#829=FILL_AREA_STYLE('',(#1007));
#830=EDGE_CURVE('',#1008,#1009,#1010,.T.);
#831=EDGE_CURVE('',#1011,#1008,#1012,.T.);
#832=EDGE_CURVE('',#1013,#1011,#1014,.T.);
#833=EDGE_CURVE('',#1013,#1009,#1015,.T.);
#834=FILL_AREA_STYLE('',(#1016));
#835=EDGE_CURVE('',#936,#939,#1017,.T.);
#836=EDGE_CURVE('',#909,#912,#1018,.T.);
#837=EDGE_CURVE('',#1019,#1020,#1021,.T.);
#838=EDGE_CURVE('',#1022,#1019,#1023,.T.);
#839=EDGE_CURVE('',#1024,#1022,#1025,.T.);
#840=EDGE_CURVE('',#1020,#1024,#1026,.T.);
#841=FILL_AREA_STYLE('',(#1027));
#842=EDGE_CURVE('',#1009,#1013,#1028,.T.);
#843=EDGE_CURVE('',#1008,#1011,#1029,.T.);
#844=FILL_AREA_STYLE('',(#1030));
#845=EDGE_CURVE('',#1000,#1004,#1031,.T.);
#846=EDGE_CURVE('',#999,#1002,#1032,.T.);
#847=FILL_AREA_STYLE('',(#1033));
#848=EDGE_CURVE('',#991,#995,#1034,.T.);
#849=EDGE_CURVE('',#990,#993,#1035,.T.);
#850=FILL_AREA_STYLE('',(#1036));
#851=EDGE_CURVE('',#982,#986,#1037,.T.);
#852=EDGE_CURVE('',#981,#984,#1038,.T.);
#853=FILL_AREA_STYLE('',(#1039));
#854=EDGE_CURVE('',#1040,#1022,#1041,.T.);
#855=EDGE_CURVE('',#1042,#1040,#1043,.T.);
#856=EDGE_CURVE('',#1042,#1044,#1045,.T.);
#857=EDGE_CURVE('',#1044,#1046,#1047,.T.);
#858=EDGE_CURVE('',#1048,#1046,#1049,.T.);
#859=EDGE_CURVE('',#1050,#1048,#1051,.T.);
#860=EDGE_CURVE('',#1050,#1024,#1052,.T.);
#861=FILL_AREA_STYLE('',(#1053));
#862=EDGE_CURVE('',#1046,#1054,#1055,.T.);
#863=EDGE_CURVE('',#1056,#1054,#1057,.T.);
#864=EDGE_CURVE('',#1048,#1056,#1058,.T.);
#865=FILL_AREA_STYLE('',(#1059));
#866=EDGE_CURVE('',#1060,#1061,#1062,.T.);
#867=EDGE_CURVE('',#1060,#1019,#1063,.T.);
#868=EDGE_CURVE('',#1064,#1020,#1065,.T.);
#869=EDGE_CURVE('',#1056,#1064,#1066,.T.);
#870=EDGE_CURVE('',#1054,#1067,#1068,.T.);
#871=EDGE_CURVE('',#1061,#1067,#1069,.T.);
#872=FILL_AREA_STYLE('',(#1070));
#873=EDGE_CURVE('',#1064,#1050,#1071,.T.);
#874=FILL_AREA_STYLE('',(#1072));
#875=EDGE_CURVE('',#910,#914,#1073,.T.);
#876=EDGE_CURVE('',#919,#923,#1074,.T.);
#877=EDGE_CURVE('',#928,#932,#1075,.T.);
#878=EDGE_CURVE('',#937,#941,#1076,.T.);
#879=EDGE_CURVE('',#946,#950,#1077,.T.);
#880=EDGE_CURVE('',#955,#959,#1078,.T.);
#881=EDGE_CURVE('',#964,#968,#1079,.T.);
#882=EDGE_CURVE('',#973,#977,#1080,.T.);
#883=FILL_AREA_STYLE('',(#1081));
#884=EDGE_CURVE('',#918,#921,#1082,.T.);
#885=EDGE_CURVE('',#927,#930,#1083,.T.);
#886=EDGE_CURVE('',#1067,#1044,#1084,.T.);
#887=FILL_AREA_STYLE('',(#1085));
#888=EDGE_CURVE('',#972,#975,#1086,.T.);
#889=FILL_AREA_STYLE('',(#1087));
#890=FILL_AREA_STYLE('',(#1088));
#891=EDGE_CURVE('',#963,#966,#1089,.T.);
#892=FILL_AREA_STYLE('',(#1090));
#893=FILL_AREA_STYLE('',(#1091));
#894=EDGE_CURVE('',#954,#957,#1092,.T.);
#895=FILL_AREA_STYLE('',(#1093));
#896=FILL_AREA_STYLE('',(#1094));
#897=EDGE_CURVE('',#945,#948,#1095,.T.);
#898=FILL_AREA_STYLE('',(#1096));
#899=FILL_AREA_STYLE('',(#1097));
#900=FILL_AREA_STYLE('',(#1098));
#901=FILL_AREA_STYLE('',(#1099));
#902=FILL_AREA_STYLE('',(#1100));
#903=FILL_AREA_STYLE('',(#1101));
#904=EDGE_CURVE('',#1061,#1042,#1102,.T.);
#905=EDGE_CURVE('',#1040,#1060,#1103,.T.);
#906=FILL_AREA_STYLE('',(#1104));
#907=FILL_AREA_STYLE('',(#1105));
#908=FILL_AREA_STYLE_COLOUR('',#1106);
#909=VERTEX_POINT('',#1107);
#910=VERTEX_POINT('',#1108);
#911=LINE('',#1109,#1110);
#912=VERTEX_POINT('',#1111);
#913=CIRCLE('',#1112,2.5);
#914=VERTEX_POINT('',#1113);
#915=LINE('',#1114,#1115);
#916=CIRCLE('',#1116,2.49999999999999);
#917=FILL_AREA_STYLE_COLOUR('',#1117);
#918=VERTEX_POINT('',#1118);
#919=VERTEX_POINT('',#1119);
#920=LINE('',#1120,#1121);
#921=VERTEX_POINT('',#1122);
#922=CIRCLE('',#1123,2.5);
#923=VERTEX_POINT('',#1124);
#924=LINE('',#1125,#1126);
#925=CIRCLE('',#1127,2.49999999999999);
#926=FILL_AREA_STYLE_COLOUR('',#1128);
#927=VERTEX_POINT('',#1129);
#928=VERTEX_POINT('',#1130);
#929=LINE('',#1131,#1132);
#930=VERTEX_POINT('',#1133);
#931=CIRCLE('',#1134,2.5);
#932=VERTEX_POINT('',#1135);
#933=LINE('',#1136,#1137);
#934=CIRCLE('',#1138,2.49999999999999);
#935=FILL_AREA_STYLE_COLOUR('',#1139);
#936=VERTEX_POINT('',#1140);
#937=VERTEX_POINT('',#1141);
#938=LINE('',#1142,#1143);
#939=VERTEX_POINT('',#1144);
#940=CIRCLE('',#1145,2.5);
#941=VERTEX_POINT('',#1146);
#942=LINE('',#1147,#1148);
#943=CIRCLE('',#1149,2.49999999999999);
#944=FILL_AREA_STYLE_COLOUR('',#1150);
#945=VERTEX_POINT('',#1151);
#946=VERTEX_POINT('',#1152);
#947=LINE('',#1153,#1154);
#948=VERTEX_POINT('',#1155);
#949=CIRCLE('',#1156,5.0);
#950=VERTEX_POINT('',#1157);
#951=LINE('',#1158,#1159);
#952=CIRCLE('',#1160,5.0);
#953=FILL_AREA_STYLE_COLOUR('',#1161);
#954=VERTEX_POINT('',#1162);
#955=VERTEX_POINT('',#1163);
#956=LINE('',#1164,#1165);
#957=VERTEX_POINT('',#1166);
#958=CIRCLE('',#1167,5.0);
#959=VERTEX_POINT('',#1168);
#960=LINE('',#1169,#1170);
#961=CIRCLE('',#1171,5.0);
#962=FILL_AREA_STYLE_COLOUR('',#1172);
#963=VERTEX_POINT('',#1173);
#964=VERTEX_POINT('',#1174);
#965=LINE('',#1175,#1176);
#966=VERTEX_POINT('',#1177);
#967=CIRCLE('',#1178,5.0);
#968=VERTEX_POINT('',#1179);
#969=LINE('',#1180,#1181);
#970=CIRCLE('',#1182,5.0);
#971=FILL_AREA_STYLE_COLOUR('',#1183);
#972=VERTEX_POINT('',#1184);
#973=VERTEX_POINT('',#1185);
#974=LINE('',#1186,#1187);
#975=VERTEX_POINT('',#1188);
#976=CIRCLE('',#1189,5.0);
#977=VERTEX_POINT('',#1190);
#978=LINE('',#1191,#1192);
#979=CIRCLE('',#1193,5.0);
#980=FILL_AREA_STYLE_COLOUR('',#1194);
#981=VERTEX_POINT('',#1195);
#982=VERTEX_POINT('',#1196);
#983=LINE('',#1197,#1198);
#984=VERTEX_POINT('',#1199);
#985=CIRCLE('',#1200,2.75);
#986=VERTEX_POINT('',#1201);
#987=LINE('',#1202,#1203);
#988=CIRCLE('',#1204,2.75);
#989=FILL_AREA_STYLE_COLOUR('',#1205);
#990=VERTEX_POINT('',#1206);
#991=VERTEX_POINT('',#1207);
#992=LINE('',#1208,#1209);
#993=VERTEX_POINT('',#1210);
#994=CIRCLE('',#1211,2.75);
#995=VERTEX_POINT('',#1212);
#996=LINE('',#1213,#1214);
#997=CIRCLE('',#1215,2.75);
#998=FILL_AREA_STYLE_COLOUR('',#1216);
#999=VERTEX_POINT('',#1217);
#1000=VERTEX_POINT('',#1218);
#1001=LINE('',#1219,#1220);
#1002=VERTEX_POINT('',#1221);
#1003=CIRCLE('',#1222,2.75);
#1004=VERTEX_POINT('',#1223);
#1005=LINE('',#1224,#1225);
#1006=CIRCLE('',#1226,2.75);
#1007=FILL_AREA_STYLE_COLOUR('',#1227);
#1008=VERTEX_POINT('',#1228);
#1009=VERTEX_POINT('',#1229);
#1010=LINE('',#1230,#1231);
#1011=VERTEX_POINT('',#1232);
#1012=CIRCLE('',#1233,2.75);
#1013=VERTEX_POINT('',#1234);
#1014=LINE('',#1235,#1236);
#1015=CIRCLE('',#1237,2.75);
#1016=FILL_AREA_STYLE_COLOUR('',#1238);
#1017=CIRCLE('',#1239,2.5);
#1018=CIRCLE('',#1240,2.5);
#1019=VERTEX_POINT('',#1241);
#1020=VERTEX_POINT('',#1242);
#1021=LINE('',#1243,#1244);
#1022=VERTEX_POINT('',#1245);
#1023=LINE('',#1246,#1247);
#1024=VERTEX_POINT('',#1248);
#1025=LINE('',#1249,#1250);
#1026=LINE('',#1251,#1252);
#1027=FILL_AREA_STYLE_COLOUR('',#1253);
#1028=CIRCLE('',#1254,2.75);
#1029=CIRCLE('',#1255,2.75);
#1030=FILL_AREA_STYLE_COLOUR('',#1256);
#1031=CIRCLE('',#1257,2.75);
#1032=CIRCLE('',#1258,2.75);
#1033=FILL_AREA_STYLE_COLOUR('',#1259);
#1034=CIRCLE('',#1260,2.75);
#1035=CIRCLE('',#1261,2.75);
#1036=FILL_AREA_STYLE_COLOUR('',#1262);
#1037=CIRCLE('',#1263,2.75);
#1038=CIRCLE('',#1264,2.75);
#1039=FILL_AREA_STYLE_COLOUR('',#1265);
#1040=VERTEX_POINT('',#1266);
#1041=LINE('',#1267,#1268);
#1042=VERTEX_POINT('',#1269);
#1043=LINE('',#1270,#1271);
#1044=VERTEX_POINT('',#1272);
#1045=LINE('',#1273,#1274);
#1046=VERTEX_POINT('',#1275);
#1047=LINE('',#1276,#1277);
#1048=VERTEX_POINT('',#1278);
#1049=LINE('',#1279,#1280);
#1050=VERTEX_POINT('',#1281);
#1051=LINE('',#1282,#1283);
#1052=LINE('',#1284,#1285);
#1053=FILL_AREA_STYLE_COLOUR('',#1286);
#1054=VERTEX_POINT('',#1287);
#1055=LINE('',#1288,#1289);
#1056=VERTEX_POINT('',#1290);
#1057=LINE('',#1291,#1292);
#1058=LINE('',#1293,#1294);
#1059=FILL_AREA_STYLE_COLOUR('',#1295);
#1060=VERTEX_POINT('',#1296);
#1061=VERTEX_POINT('',#1297);
#1062=LINE('',#1298,#1299);
#1063=LINE('',#1300,#1301);
#1064=VERTEX_POINT('',#1302);
#1065=LINE('',#1303,#1304);
#1066=LINE('',#1305,#1306);
#1067=VERTEX_POINT('',#1307);
#1068=LINE('',#1308,#1309);
#1069=LINE('',#1310,#1311);
#1070=FILL_AREA_STYLE_COLOUR('',#1312);
#1071=LINE('',#1313,#1314);
#1072=FILL_AREA_STYLE_COLOUR('',#1315);
#1073=CIRCLE('',#1316,2.49999999999999);
#1074=CIRCLE('',#1317,2.49999999999999);
#1075=CIRCLE('',#1318,2.49999999999999);
#1076=CIRCLE('',#1319,2.49999999999999);
#1077=CIRCLE('',#1320,5.0);
#1078=CIRCLE('',#1321,5.0);
#1079=CIRCLE('',#1322,5.0);
#1080=CIRCLE('',#1323,5.0);
#1081=FILL_AREA_STYLE_COLOUR('',#1324);
#1082=CIRCLE('',#1325,2.5);
#1083=CIRCLE('',#1326,2.5);
#1084=LINE('',#1327,#1328);
#1085=FILL_AREA_STYLE_COLOUR('',#1329);
#1086=CIRCLE('',#1330,5.0);
#1087=FILL_AREA_STYLE_COLOUR('',#1331);
#1088=FILL_AREA_STYLE_COLOUR('',#1332);
#1089=CIRCLE('',#1333,5.0);
#1090=FILL_AREA_STYLE_COLOUR('',#1334);
#1091=FILL_AREA_STYLE_COLOUR('',#1335);
#1092=CIRCLE('',#1336,5.0);
#1093=FILL_AREA_STYLE_COLOUR('',#1337);
#1094=FILL_AREA_STYLE_COLOUR('',#1338);
#1095=CIRCLE('',#1339,5.0);
#1096=FILL_AREA_STYLE_COLOUR('',#1340);
#1097=FILL_AREA_STYLE_COLOUR('',#1341);
#1098=FILL_AREA_STYLE_COLOUR('',#1342);
#1099=FILL_AREA_STYLE_COLOUR('',#1343);
#1100=FILL_AREA_STYLE_COLOUR('',#1344);
#1101=FILL_AREA_STYLE_COLOUR('',#1345);
#1102=LINE('',#1346,#1347);
#1103=LINE('',#1348,#1349);
#1104=FILL_AREA_STYLE_COLOUR('',#1350);
#1105=FILL_AREA_STYLE_COLOUR('',#1351);
#1106=COLOUR_RGB('',0.0,0.0,0.0);
#1107=CARTESIAN_POINT('',(10.0,82.5,0.0));
#1108=CARTESIAN_POINT('',(10.0,82.5,-12.0));
#1109=CARTESIAN_POINT('',(10.0,82.5,-12.0));
#1110=VECTOR('',#1352,1.0);
#1111=CARTESIAN_POINT('',(10.0,77.5,0.0));
#1112=AXIS2_PLACEMENT_3D('',#1353,#1354,#1355);
#1113=CARTESIAN_POINT('',(10.0,77.5,-12.0));
#1114=CARTESIAN_POINT('',(10.0,77.5,-1.77635683940025E-15));
#1115=VECTOR('',#1356,1.0);
#1116=AXIS2_PLACEMENT_3D('',#1357,#1358,#1359);
#1117=COLOUR_RGB('',0.0,0.0,0.0);
#1118=CARTESIAN_POINT('',(170.0,82.5,0.0));
#1119=CARTESIAN_POINT('',(170.0,82.5,-12.0));
#1120=CARTESIAN_POINT('',(170.0,82.5,-12.0));
#1121=VECTOR('',#1360,1.0);
#1122=CARTESIAN_POINT('',(170.0,77.5,0.0));
#1123=AXIS2_PLACEMENT_3D('',#1361,#1362,#1363);
#1124=CARTESIAN_POINT('',(170.0,77.5,-12.0));
#1125=CARTESIAN_POINT('',(170.0,77.5,-1.77635683940025E-15));
#1126=VECTOR('',#1364,1.0);
#1127=AXIS2_PLACEMENT_3D('',#1365,#1366,#1367);
#1128=COLOUR_RGB('',0.0,0.0,0.0);
#1129=CARTESIAN_POINT('',(170.0,22.5,0.0));
#1130=CARTESIAN_POINT('',(170.0,22.5,-12.0));
#1131=CARTESIAN_POINT('',(170.0,22.5,-12.0));
#1132=VECTOR('',#1368,1.0);
#1133=CARTESIAN_POINT('',(170.0,17.5,0.0));
#1134=AXIS2_PLACEMENT_3D('',#1369,#1370,#1371);
#1135=CARTESIAN_POINT('',(170.0,17.5,-12.0));
#1136=CARTESIAN_POINT('',(170.0,17.5,-1.77635683940025E-15));
#1137=VECTOR('',#1372,1.0);
#1138=AXIS2_PLACEMENT_3D('',#1373,#1374,#1375);
#1139=COLOUR_RGB('',0.0,0.0,0.0);
#1140=CARTESIAN_POINT('',(9.99999999999999,22.5,0.0));
#1141=CARTESIAN_POINT('',(9.99999999999999,22.5,-12.0));
#1142=CARTESIAN_POINT('',(9.99999999999999,22.5,-12.0));
#1143=VECTOR('',#1376,1.0);
#1144=CARTESIAN_POINT('',(9.99999999999999,17.5,0.0));
#1145=AXIS2_PLACEMENT_3D('',#1377,#1378,#1379);
#1146=CARTESIAN_POINT('',(10.0,17.5,-12.0));
#1147=CARTESIAN_POINT('',(9.99999999999999,17.5,-1.77635683940025E-15));
#1148=VECTOR('',#1380,1.0);
#1149=AXIS2_PLACEMENT_3D('',#1381,#1382,#1383);
#1150=COLOUR_RGB('',0.0,0.0,0.0);
#1151=CARTESIAN_POINT('',(115.0,85.0,-6.3));
#1152=CARTESIAN_POINT('',(115.0,85.0,-12.0));
#1153=CARTESIAN_POINT('',(115.0,85.0,-12.0));
#1154=VECTOR('',#1384,1.0);
#1155=CARTESIAN_POINT('',(115.0,75.0,-6.3));
#1156=AXIS2_PLACEMENT_3D('',#1385,#1386,#1387);
#1157=CARTESIAN_POINT('',(115.0,75.0,-12.0));
#1158=CARTESIAN_POINT('',(115.0,75.0,-6.3));
#1159=VECTOR('',#1388,1.0);
#1160=AXIS2_PLACEMENT_3D('',#1389,#1390,#1391);
#1161=COLOUR_RGB('',0.0,0.0,0.0);
#1162=CARTESIAN_POINT('',(115.0,25.0,-6.3));
#1163=CARTESIAN_POINT('',(115.0,25.0,-12.0));
#1164=CARTESIAN_POINT('',(115.0,25.0,-12.0));
#1165=VECTOR('',#1392,1.0);
#1166=CARTESIAN_POINT('',(115.0,15.0,-6.3));
#1167=AXIS2_PLACEMENT_3D('',#1393,#1394,#1395);
#1168=CARTESIAN_POINT('',(115.0,15.0,-12.0));
#1169=CARTESIAN_POINT('',(115.0,15.0,-6.3));
#1170=VECTOR('',#1396,1.0);
#1171=AXIS2_PLACEMENT_3D('',#1397,#1398,#1399);
#1172=COLOUR_RGB('',0.0,0.0,0.0);
#1173=CARTESIAN_POINT('',(65.0,85.0,-6.3));
#1174=CARTESIAN_POINT('',(65.0,85.0,-12.0));
#1175=CARTESIAN_POINT('',(65.0,85.0,-12.0));
#1176=VECTOR('',#1400,1.0);
#1177=CARTESIAN_POINT('',(65.0,75.0,-6.3));
#1178=AXIS2_PLACEMENT_3D('',#1401,#1402,#1403);
#1179=CARTESIAN_POINT('',(65.0,75.0,-12.0));
#1180=CARTESIAN_POINT('',(65.0,75.0,-6.3));
#1181=VECTOR('',#1404,1.0);
#1182=AXIS2_PLACEMENT_3D('',#1405,#1406,#1407);
#1183=COLOUR_RGB('',0.0,0.0,0.0);
#1184=CARTESIAN_POINT('',(65.0,25.0,-6.3));
#1185=CARTESIAN_POINT('',(65.0,25.0,-12.0));
#1186=CARTESIAN_POINT('',(65.0,25.0,-12.0));
#1187=VECTOR('',#1408,1.0);
#1188=CARTESIAN_POINT('',(65.0,15.0,-6.3));
#1189=AXIS2_PLACEMENT_3D('',#1409,#1410,#1411);
#1190=CARTESIAN_POINT('',(65.0,15.0,-12.0));
#1191=CARTESIAN_POINT('',(65.0,15.0,-6.3));
#1192=VECTOR('',#1412,1.0);
#1193=AXIS2_PLACEMENT_3D('',#1413,#1414,#1415);
#1194=COLOUR_RGB('',0.0,0.0,0.0);
#1195=CARTESIAN_POINT('',(115.0,82.75,-3.0));
#1196=CARTESIAN_POINT('',(115.0,82.75,-6.3));
#1197=CARTESIAN_POINT('',(115.0,82.75,-4.65));
#1198=VECTOR('',#1416,1.0);
#1199=CARTESIAN_POINT('',(115.0,77.25,-3.0));
#1200=AXIS2_PLACEMENT_3D('',#1417,#1418,#1419);
#1201=CARTESIAN_POINT('',(115.0,77.25,-6.3));
#1202=CARTESIAN_POINT('',(115.0,77.25,2.7));
#1203=VECTOR('',#1420,1.0);
#1204=AXIS2_PLACEMENT_3D('',#1421,#1422,#1423);
#1205=COLOUR_RGB('',0.0,0.0,0.0);
#1206=CARTESIAN_POINT('',(115.0,22.75,-3.0));
#1207=CARTESIAN_POINT('',(115.0,22.75,-6.3));
#1208=CARTESIAN_POINT('',(115.0,22.75,-4.65));
#1209=VECTOR('',#1424,1.0);
#1210=CARTESIAN_POINT('',(115.0,17.25,-3.0));
#1211=AXIS2_PLACEMENT_3D('',#1425,#1426,#1427);
#1212=CARTESIAN_POINT('',(115.0,17.25,-6.3));
#1213=CARTESIAN_POINT('',(115.0,17.25,2.7));
#1214=VECTOR('',#1428,1.0);
#1215=AXIS2_PLACEMENT_3D('',#1429,#1430,#1431);
#1216=COLOUR_RGB('',0.0,0.0,0.0);
#1217=CARTESIAN_POINT('',(65.0,82.75,-3.0));
#1218=CARTESIAN_POINT('',(65.0,82.75,-6.3));
#1219=CARTESIAN_POINT('',(65.0,82.75,-4.65));
#1220=VECTOR('',#1432,1.0);
#1221=CARTESIAN_POINT('',(65.0,77.25,-3.0));
#1222=AXIS2_PLACEMENT_3D('',#1433,#1434,#1435);
#1223=CARTESIAN_POINT('',(65.0,77.25,-6.3));
#1224=CARTESIAN_POINT('',(65.0,77.25,2.7));
#1225=VECTOR('',#1436,1.0);
#1226=AXIS2_PLACEMENT_3D('',#1437,#1438,#1439);
#1227=COLOUR_RGB('',0.0,0.0,0.0);
#1228=CARTESIAN_POINT('',(65.0,22.75,-3.0));
#1229=CARTESIAN_POINT('',(65.0,22.75,-6.3));
#1230=CARTESIAN_POINT('',(65.0,22.75,-4.65));
#1231=VECTOR('',#1440,1.0);
#1232=CARTESIAN_POINT('',(65.0,17.25,-3.0));
#1233=AXIS2_PLACEMENT_3D('',#1441,#1442,#1443);
#1234=CARTESIAN_POINT('',(65.0,17.25,-6.3));
#1235=CARTESIAN_POINT('',(65.0,17.25,2.7));
#1236=VECTOR('',#1444,1.0);
#1237=AXIS2_PLACEMENT_3D('',#1445,#1446,#1447);
#1238=COLOUR_RGB('',0.0,0.0,0.0);
#1239=AXIS2_PLACEMENT_3D('',#1448,#1449,#1450);
#1240=AXIS2_PLACEMENT_3D('',#1451,#1452,#1453);
#1241=CARTESIAN_POINT('',(48.0,0.0,0.0));
#1242=CARTESIAN_POINT('',(0.0,0.0,0.0));
#1243=CARTESIAN_POINT('',(0.0,0.0,0.0));
#1244=VECTOR('',#1454,1.0);
#1245=CARTESIAN_POINT('',(48.0,100.0,0.0));
#1246=CARTESIAN_POINT('',(48.0,100.0,0.0));
#1247=VECTOR('',#1455,1.0);
#1248=CARTESIAN_POINT('',(0.0,100.0,0.0));
#1249=CARTESIAN_POINT('',(0.0,100.0,0.0));
#1250=VECTOR('',#1456,1.0);
#1251=CARTESIAN_POINT('',(0.0,100.0,0.0));
#1252=VECTOR('',#1457,1.0);
#1253=COLOUR_RGB('',0.0,0.0,0.0);
#1254=AXIS2_PLACEMENT_3D('',#1458,#1459,#1460);
#1255=AXIS2_PLACEMENT_3D('',#1461,#1462,#1463);
#1256=COLOUR_RGB('',0.0,0.0,0.0);
#1257=AXIS2_PLACEMENT_3D('',#1464,#1465,#1466);
#1258=AXIS2_PLACEMENT_3D('',#1467,#1468,#1469);
#1259=COLOUR_RGB('',0.0,0.0,0.0);
#1260=AXIS2_PLACEMENT_3D('',#1470,#1471,#1472);
#1261=AXIS2_PLACEMENT_3D('',#1473,#1474,#1475);
#1262=COLOUR_RGB('',0.0,0.0,0.0);
#1263=AXIS2_PLACEMENT_3D('',#1476,#1477,#1478);
#1264=AXIS2_PLACEMENT_3D('',#1479,#1480,#1481);
#1265=COLOUR_RGB('',0.0,0.0,0.0);
#1266=CARTESIAN_POINT('',(48.0,100.0,-3.0));
#1267=CARTESIAN_POINT('',(48.0,100.0,-3.0));
#1268=VECTOR('',#1482,1.0);
#1269=CARTESIAN_POINT('',(132.0,100.0,-3.0));
#1270=CARTESIAN_POINT('',(132.0,100.0,-3.0));
#1271=VECTOR('',#1483,1.0);
#1272=CARTESIAN_POINT('',(132.0,100.0,0.0));
#1273=CARTESIAN_POINT('',(132.0,100.0,-3.0));
#1274=VECTOR('',#1484,1.0);
#1275=CARTESIAN_POINT('',(180.0,100.0,0.0));
#1276=CARTESIAN_POINT('',(0.0,100.0,0.0));
#1277=VECTOR('',#1485,1.0);
#1278=CARTESIAN_POINT('',(180.0,100.0,-12.0));
#1279=CARTESIAN_POINT('',(180.0,100.0,-12.0));
#1280=VECTOR('',#1486,1.0);
#1281=CARTESIAN_POINT('',(0.0,100.0,-12.0));
#1282=CARTESIAN_POINT('',(0.0,100.0,-12.0));
#1283=VECTOR('',#1487,1.0);
#1284=CARTESIAN_POINT('',(0.0,100.0,-12.0));
#1285=VECTOR('',#1488,1.0);
#1286=COLOUR_RGB('',0.0,0.0,0.0);
#1287=CARTESIAN_POINT('',(180.0,0.0,0.0));
#1288=CARTESIAN_POINT('',(180.0,100.0,0.0));
#1289=VECTOR('',#1489,1.0);
#1290=CARTESIAN_POINT('',(180.0,0.0,-12.0));
#1291=CARTESIAN_POINT('',(180.0,0.0,-12.0));
#1292=VECTOR('',#1490,1.0);
#1293=CARTESIAN_POINT('',(180.0,100.0,-12.0));
#1294=VECTOR('',#1491,1.0);
#1295=COLOUR_RGB('',0.0,0.0,0.0);
#1296=CARTESIAN_POINT('',(48.0,0.0,-3.0));
#1297=CARTESIAN_POINT('',(132.0,0.0,-3.0));
#1298=CARTESIAN_POINT('',(132.0,0.0,-3.0));
#1299=VECTOR('',#1492,1.0);
#1300=CARTESIAN_POINT('',(48.0,0.0,-3.0));
#1301=VECTOR('',#1493,1.0);
#1302=CARTESIAN_POINT('',(0.0,0.0,-12.0));
#1303=CARTESIAN_POINT('',(0.0,0.0,-12.0));
#1304=VECTOR('',#1494,1.0);
#1305=CARTESIAN_POINT('',(0.0,0.0,-12.0));
#1306=VECTOR('',#1495,1.0);
#1307=CARTESIAN_POINT('',(132.0,1.4210854715202E-14,0.0));
#1308=CARTESIAN_POINT('',(0.0,0.0,0.0));
#1309=VECTOR('',#1496,1.0);
#1310=CARTESIAN_POINT('',(132.0,0.0,-3.0));
#1311=VECTOR('',#1497,1.0);
#1312=COLOUR_RGB('',0.0,0.0,0.0);
#1313=CARTESIAN_POINT('',(0.0,100.0,-12.0));
#1314=VECTOR('',#1498,1.0);
#1315=COLOUR_RGB('',0.0,0.0,0.0);
#1316=AXIS2_PLACEMENT_3D('',#1499,#1500,#1501);
#1317=AXIS2_PLACEMENT_3D('',#1502,#1503,#1504);
#1318=AXIS2_PLACEMENT_3D('',#1505,#1506,#1507);
#1319=AXIS2_PLACEMENT_3D('',#1508,#1509,#1510);
#1320=AXIS2_PLACEMENT_3D('',#1511,#1512,#1513);
#1321=AXIS2_PLACEMENT_3D('',#1514,#1515,#1516);
#1322=AXIS2_PLACEMENT_3D('',#1517,#1518,#1519);
#1323=AXIS2_PLACEMENT_3D('',#1520,#1521,#1522);
#1324=COLOUR_RGB('',0.0,0.0,0.0);
#1325=AXIS2_PLACEMENT_3D('',#1523,#1524,#1525);
#1326=AXIS2_PLACEMENT_3D('',#1526,#1527,#1528);
#1327=CARTESIAN_POINT('',(132.0,100.0,0.0));
#1328=VECTOR('',#1529,1.0);
#1329=COLOUR_RGB('',0.0,0.0,0.0);
#1330=AXIS2_PLACEMENT_3D('',#1530,#1531,#1532);
#1331=COLOUR_RGB('',0.0,0.0,0.0);
#1332=COLOUR_RGB('',0.0,0.0,0.0);
#1333=AXIS2_PLACEMENT_3D('',#1533,#1534,#1535);
#1334=COLOUR_RGB('',0.0,0.0,0.0);
#1335=COLOUR_RGB('',0.0,0.0,0.0);
#1336=AXIS2_PLACEMENT_3D('',#1536,#1537,#1538);
#1337=COLOUR_RGB('',0.0,0.0,0.0);
#1338=COLOUR_RGB('',0.0,0.0,0.0);
#1339=AXIS2_PLACEMENT_3D('',#1539,#1540,#1541);
#1340=COLOUR_RGB('',0.0,0.0,0.0);
#1341=COLOUR_RGB('',0.0,0.0,0.0);
#1342=COLOUR_RGB('',0.0,0.0,0.0);
#1343=COLOUR_RGB('',0.0,0.0,0.0);
#1344=COLOUR_RGB('',0.0,0.0,0.0);
#1345=COLOUR_RGB('',0.0,0.0,0.0);
#1346=CARTESIAN_POINT('',(132.0,100.0,-3.0));
#1347=VECTOR('',#1542,1.0);
#1348=CARTESIAN_POINT('',(48.0,100.0,-3.0));
#1349=VECTOR('',#1543,1.0);
#1350=COLOUR_RGB('',0.0,0.0,0.0);
#1351=COLOUR_RGB('',0.0,0.0,0.0);
#1352=DIRECTION('',(0.0,0.0,-1.0));
#1353=CARTESIAN_POINT('',(10.0,80.0,0.0));
#1354=DIRECTION('',(0.0,0.0,-1.0));
#1355=DIRECTION('',(0.0,-1.0,0.0));
#1356=DIRECTION('',(0.0,0.0,1.0));
#1357=CARTESIAN_POINT('',(10.0,80.0,-12.0));
#1358=DIRECTION('',(0.0,0.0,-1.0));
#1359=DIRECTION('',(0.0,-1.0,0.0));
#1360=DIRECTION('',(0.0,0.0,-1.0));
#1361=CARTESIAN_POINT('',(170.0,80.0,0.0));
#1362=DIRECTION('',(0.0,0.0,-1.0));
#1363=DIRECTION('',(0.0,-1.0,0.0));
#1364=DIRECTION('',(0.0,0.0,1.0));
#1365=CARTESIAN_POINT('',(170.0,80.0,-12.0));
#1366=DIRECTION('',(0.0,0.0,-1.0));
#1367=DIRECTION('',(0.0,-1.0,0.0));
#1368=DIRECTION('',(0.0,0.0,-1.0));
#1369=CARTESIAN_POINT('',(170.0,20.0,0.0));
#1370=DIRECTION('',(0.0,0.0,-1.0));
#1371=DIRECTION('',(0.0,-1.0,0.0));
#1372=DIRECTION('',(0.0,0.0,1.0));
#1373=CARTESIAN_POINT('',(170.0,20.0,-12.0));
#1374=DIRECTION('',(0.0,0.0,-1.0));
#1375=DIRECTION('',(0.0,-1.0,0.0));
#1376=DIRECTION('',(0.0,0.0,-1.0));
#1377=CARTESIAN_POINT('',(9.99999999999999,20.0,0.0));
#1378=DIRECTION('',(0.0,0.0,-1.0));
#1379=DIRECTION('',(0.0,-1.0,0.0));
#1380=DIRECTION('',(0.0,0.0,1.0));
#1381=CARTESIAN_POINT('',(9.99999999999999,20.0,-12.0));
#1382=DIRECTION('',(0.0,0.0,-1.0));
#1383=DIRECTION('',(0.0,-1.0,0.0));
#1384=DIRECTION('',(0.0,0.0,-1.0));
#1385=CARTESIAN_POINT('',(115.0,80.0,-6.3));
#1386=DIRECTION('',(0.0,0.0,-1.0));
#1387=DIRECTION('',(0.0,-1.0,0.0));
#1388=DIRECTION('',(0.0,0.0,1.0));
#1389=CARTESIAN_POINT('',(115.0,80.0,-12.0));
#1390=DIRECTION('',(0.0,0.0,-1.0));
#1391=DIRECTION('',(0.0,-1.0,0.0));
#1392=DIRECTION('',(0.0,0.0,-1.0));
#1393=CARTESIAN_POINT('',(115.0,20.0,-6.3));
#1394=DIRECTION('',(0.0,0.0,-1.0));
#1395=DIRECTION('',(0.0,-1.0,0.0));
#1396=DIRECTION('',(0.0,0.0,1.0));
#1397=CARTESIAN_POINT('',(115.0,20.0,-12.0));
#1398=DIRECTION('',(0.0,0.0,-1.0));
#1399=DIRECTION('',(0.0,-1.0,0.0));
#1400=DIRECTION('',(0.0,0.0,-1.0));
#1401=CARTESIAN_POINT('',(65.0,80.0,-6.3));
#1402=DIRECTION('',(0.0,0.0,-1.0));
#1403=DIRECTION('',(0.0,-1.0,0.0));
#1404=DIRECTION('',(0.0,0.0,1.0));
#1405=CARTESIAN_POINT('',(65.0,80.0,-12.0));
#1406=DIRECTION('',(0.0,0.0,-1.0));
#1407=DIRECTION('',(0.0,-1.0,0.0));
#1408=DIRECTION('',(0.0,0.0,-1.0));
#1409=CARTESIAN_POINT('',(65.0,20.0,-6.3));
#1410=DIRECTION('',(0.0,0.0,-1.0));
#1411=DIRECTION('',(0.0,-1.0,0.0));
#1412=DIRECTION('',(0.0,0.0,1.0));
#1413=CARTESIAN_POINT('',(65.0,20.0,-12.0));
#1414=DIRECTION('',(0.0,0.0,-1.0));
#1415=DIRECTION('',(0.0,-1.0,0.0));
#1416=DIRECTION('',(0.0,0.0,-1.0));
#1417=CARTESIAN_POINT('',(115.0,80.0,-3.0));
#1418=DIRECTION('',(0.0,0.0,-1.0));
#1419=DIRECTION('',(0.0,1.0,0.0));
#1420=DIRECTION('',(0.0,0.0,1.0));
#1421=CARTESIAN_POINT('',(115.0,80.0,-6.3));
#1422=DIRECTION('',(0.0,0.0,-1.0));
#1423=DIRECTION('',(0.0,-1.0,0.0));
#1424=DIRECTION('',(0.0,0.0,-1.0));
#1425=CARTESIAN_POINT('',(115.0,20.0,-3.0));
#1426=DIRECTION('',(0.0,0.0,-1.0));
#1427=DIRECTION('',(0.0,1.0,0.0));
#1428=DIRECTION('',(0.0,0.0,1.0));
#1429=CARTESIAN_POINT('',(115.0,20.0,-6.3));
#1430=DIRECTION('',(0.0,0.0,-1.0));
#1431=DIRECTION('',(0.0,-1.0,0.0));
#1432=DIRECTION('',(0.0,0.0,-1.0));
#1433=CARTESIAN_POINT('',(65.0,80.0,-3.0));
#1434=DIRECTION('',(0.0,0.0,-1.0));
#1435=DIRECTION('',(0.0,1.0,0.0));
#1436=DIRECTION('',(0.0,0.0,1.0));
#1437=CARTESIAN_POINT('',(65.0,80.0,-6.3));
#1438=DIRECTION('',(0.0,0.0,-1.0));
#1439=DIRECTION('',(0.0,-1.0,0.0));
#1440=DIRECTION('',(0.0,0.0,-1.0));
#1441=CARTESIAN_POINT('',(65.0,20.0,-3.0));
#1442=DIRECTION('',(0.0,0.0,-1.0));
#1443=DIRECTION('',(0.0,1.0,0.0));
#1444=DIRECTION('',(0.0,0.0,1.0));
#1445=CARTESIAN_POINT('',(65.0,20.0,-6.3));
#1446=DIRECTION('',(0.0,0.0,-1.0));
#1447=DIRECTION('',(0.0,-1.0,0.0));
#1448=CARTESIAN_POINT('',(9.99999999999999,20.0,0.0));
#1449=DIRECTION('',(0.0,0.0,-1.0));
#1450=DIRECTION('',(0.0,-1.0,0.0));
#1451=CARTESIAN_POINT('',(10.0,80.0,0.0));
#1452=DIRECTION('',(0.0,0.0,-1.0));
#1453=DIRECTION('',(0.0,-1.0,0.0));
#1454=DIRECTION('',(-1.0,0.0,-0.0));
#1455=DIRECTION('',(1.38777878078145E-16,-1.0,0.0));
#1456=DIRECTION('',(1.0,-1.15648231731787E-16,0.0));
#1457=DIRECTION('',(0.0,1.0,0.0));
#1458=CARTESIAN_POINT('',(65.0,20.0,-6.3));
#1459=DIRECTION('',(0.0,0.0,-1.0));
#1460=DIRECTION('',(0.0,-1.0,0.0));
#1461=CARTESIAN_POINT('',(65.0,20.0,-3.0));
#1462=DIRECTION('',(0.0,0.0,-1.0));
#1463=DIRECTION('',(0.0,1.0,0.0));
#1464=CARTESIAN_POINT('',(65.0,80.0,-6.3));
#1465=DIRECTION('',(0.0,0.0,-1.0));
#1466=DIRECTION('',(0.0,-1.0,0.0));
#1467=CARTESIAN_POINT('',(65.0,80.0,-3.0));
#1468=DIRECTION('',(0.0,0.0,-1.0));
#1469=DIRECTION('',(0.0,1.0,0.0));
#1470=CARTESIAN_POINT('',(115.0,20.0,-6.3));
#1471=DIRECTION('',(0.0,0.0,-1.0));
#1472=DIRECTION('',(0.0,-1.0,0.0));
#1473=CARTESIAN_POINT('',(115.0,20.0,-3.0));
#1474=DIRECTION('',(0.0,0.0,-1.0));
#1475=DIRECTION('',(0.0,1.0,0.0));
#1476=CARTESIAN_POINT('',(115.0,80.0,-6.3));
#1477=DIRECTION('',(0.0,0.0,-1.0));
#1478=DIRECTION('',(0.0,-1.0,0.0));
#1479=CARTESIAN_POINT('',(115.0,80.0,-3.0));
#1480=DIRECTION('',(0.0,0.0,-1.0));
#1481=DIRECTION('',(0.0,1.0,0.0));
#1482=DIRECTION('',(0.0,0.0,1.0));
#1483=DIRECTION('',(-1.0,4.13029399042097E-17,0.0));
#1484=DIRECTION('',(0.0,0.0,1.0));
#1485=DIRECTION('',(1.0,-1.15648231731787E-16,0.0));
#1486=DIRECTION('',(0.0,0.0,1.0));
#1487=DIRECTION('',(1.0,-1.15648231731787E-16,0.0));
#1488=DIRECTION('',(0.0,0.0,1.0));
#1489=DIRECTION('',(0.0,-1.0,0.0));
#1490=DIRECTION('',(0.0,0.0,1.0));
#1491=DIRECTION('',(0.0,-1.0,0.0));
#1492=DIRECTION('',(1.0,0.0,0.0));
#1493=DIRECTION('',(0.0,0.0,1.0));
#1494=DIRECTION('',(0.0,0.0,1.0));
#1495=DIRECTION('',(-1.0,0.0,-0.0));
#1496=DIRECTION('',(-1.0,0.0,-0.0));
#1497=DIRECTION('',(0.0,0.0,1.0));
#1498=DIRECTION('',(0.0,1.0,0.0));
#1499=CARTESIAN_POINT('',(10.0,80.0,-12.0));
#1500=DIRECTION('',(0.0,0.0,-1.0));
#1501=DIRECTION('',(0.0,-1.0,0.0));
#1502=CARTESIAN_POINT('',(170.0,80.0,-12.0));
#1503=DIRECTION('',(0.0,0.0,-1.0));
#1504=DIRECTION('',(0.0,-1.0,0.0));
#1505=CARTESIAN_POINT('',(170.0,20.0,-12.0));
#1506=DIRECTION('',(0.0,0.0,-1.0));
#1507=DIRECTION('',(0.0,-1.0,0.0));
#1508=CARTESIAN_POINT('',(9.99999999999999,20.0,-12.0));
#1509=DIRECTION('',(0.0,0.0,-1.0));
#1510=DIRECTION('',(0.0,-1.0,0.0));
#1511=CARTESIAN_POINT('',(115.0,80.0,-12.0));
#1512=DIRECTION('',(0.0,0.0,-1.0));
#1513=DIRECTION('',(0.0,-1.0,0.0));
#1514=CARTESIAN_POINT('',(115.0,20.0,-12.0));
#1515=DIRECTION('',(0.0,0.0,-1.0));
#1516=DIRECTION('',(0.0,-1.0,0.0));
#1517=CARTESIAN_POINT('',(65.0,80.0,-12.0));
#1518=DIRECTION('',(0.0,0.0,-1.0));
#1519=DIRECTION('',(0.0,-1.0,0.0));
#1520=CARTESIAN_POINT('',(65.0,20.0,-12.0));
#1521=DIRECTION('',(0.0,0.0,-1.0));
#1522=DIRECTION('',(0.0,-1.0,0.0));
#1523=CARTESIAN_POINT('',(170.0,80.0,0.0));
#1524=DIRECTION('',(0.0,0.0,-1.0));
#1525=DIRECTION('',(0.0,-1.0,0.0));
#1526=CARTESIAN_POINT('',(170.0,20.0,0.0));
#1527=DIRECTION('',(0.0,0.0,-1.0));
#1528=DIRECTION('',(0.0,-1.0,0.0));
#1529=DIRECTION('',(-5.20417042793042E-17,1.0,0.0));
#1530=CARTESIAN_POINT('',(65.0,20.0,-6.3));
#1531=DIRECTION('',(0.0,0.0,-1.0));
#1532=DIRECTION('',(0.0,-1.0,0.0));
#1533=CARTESIAN_POINT('',(65.0,80.0,-6.3));
#1534=DIRECTION('',(0.0,0.0,-1.0));
#1535=DIRECTION('',(0.0,-1.0,0.0));
#1536=CARTESIAN_POINT('',(115.0,20.0,-6.3));
#1537=DIRECTION('',(0.0,0.0,-1.0));
#1538=DIRECTION('',(0.0,-1.0,0.0));
#1539=CARTESIAN_POINT('',(115.0,80.0,-6.3));
#1540=DIRECTION('',(0.0,0.0,-1.0));
#1541=DIRECTION('',(0.0,-1.0,0.0));
#1542=DIRECTION('',(-5.20417042793042E-17,1.0,0.0));
#1543=DIRECTION('',(1.38777878078145E-16,-1.0,0.0));
ENDSEC;
END-ISO-10303-21;
